<?xml version="1.0" encoding="UTF-8"?>
<!DOCTYPE svg PUBLIC "-//W3C//DTD SVG 1.1//EN" "http://www.w3.org/Graphics/SVG/1.1/DTD/svg11.dtd">
<!-- Creator: CorelDRAW X8 -->
<svg xmlns="http://www.w3.org/2000/svg" xml:space="preserve" width="1200px" height="1200px" version="1.1" style="shape-rendering:geometricPrecision; text-rendering:geometricPrecision; image-rendering:optimizeQuality; fill-rule:evenodd; clip-rule:evenodd"
viewBox="0 0 916 916"
 xmlns:xlink="http://www.w3.org/1999/xlink">
 <defs>
  <style type="text/css">
   <![CDATA[
    .fil2 {fill:#009688}
    .fil1 {fill:#F0F0F0}
    .fil0 {fill:white}
   ]]>
  </style>
 </defs>
 <g id="Capa_x0020_1">
  <metadata id="CorelCorpID_0Corel-Layer"/>
  <path class="fil0" d="M0 0l458 0c252,0 458,206 458,458l0 458 -458 0c-252,0 -458,-206 -458,-458l0 -458z"/>
  <path class="fil1" d="M0 0l6 0c440,122 787,468 910,908l0 8 -458 0c-252,0 -458,-206 -458,-458l0 -458z"/>
  <path class="fil2" d="M445 229c20,-7 45,-2 62,12 -53,21 -88,59 -86,113 2,70 146,49 158,144 11,93 -64,154 -161,189 39,-39 108,-126 94,-177 -17,-61 -133,-69 -166,-143 -17,-40 -7,-83 27,-109 11,-5 21,-6 31,-7 -16,21 -29,28 -31,73 11,-39 34,-83 72,-95zm-4 520c-153,-10 -274,-136 -274,-291 0,-155 121,-281 274,-290l0 44c-128,9 -230,116 -230,246 0,130 102,237 230,246l0 45zm35 -581c152,9 273,135 273,290 0,155 -121,281 -273,291l0 -45c128,-9 229,-116 229,-246 0,-130 -101,-237 -229,-246l0 -44z"/>
 </g>
</svg>
