<svg id="Capa_1" enable-background="new 0 0 512 512" height="512" viewBox="0 0 512 512" width="512" xmlns="http://www.w3.org/2000/svg"><g><path d="m482 287.035h-157.883c-8.284 0-15 6.716-15 15v105.555c0 7.224 5.148 13.421 12.249 14.745 15.573 2.906 26.876 16.513 26.876 32.354v35.219c0 8.284 6.716 15 15 15h24.42c27.198 0 49.246-22.048 49.246-49.246v-13.836h45.092c16.569 0 30-13.431 30-30v-94.791c0-16.568-13.431-30-30-30z" fill="#f1d0a4"/><path d="m309.117 364.813v42.777c0 7.224 5.148 13.421 12.249 14.745 15.573 2.906 26.876 16.513 26.876 32.354v35.219c0 8.284 6.716 15 15 15h24.42c27.198 0 49.246-22.048 49.246-49.246v-13.836h45.092c16.569 0 30-13.431 30-30v-57.013h-187.514z" fill="#f1ba87"/><path d="m190.634 89.665c-15.573-2.906-26.876-16.513-26.876-32.354v-35.219c0-8.284-6.716-15-15-15h-24.42c-27.198 0-49.246 22.048-49.246 49.246v13.837h-45.092c-16.569 0-30 13.431-30 30v94.79c0 16.569 13.431 30 30 30h157.883c8.284 0 15-6.716 15-15v-105.555c0-7.223-5.149-13.421-12.249-14.745z" fill="#f1d0a4"/><path d="m266.994 93.822c-2.814-2.824-6.638-4.412-10.625-4.412h-68.486v135.555h68.117c8.264 0 14.971-6.684 15-14.947l.369-105.555c.013-3.987-1.561-7.817-4.375-10.641z" fill="#5ce6b8"/><path d="m324.486 287.035h-68.486c-8.264 0-15.202 6.684-15.231 14.947v105.555c-.014 3.987 1.422 7.816 4.237 10.641s6.638 4.412 10.625 4.412h68.855z" fill="#ff6680"/><path d="m376.467 193.401c-3.839 0-7.678-1.465-10.606-4.394l-39.214-39.214c-5.858-5.857-5.858-15.355 0-21.213 5.857-5.857 15.355-5.857 21.213 0l28.608 28.607 69.072-69.073c5.857-5.857 15.355-5.857 21.213 0s5.858 15.355 0 21.213l-79.679 79.68c-2.929 2.929-6.768 4.394-10.607 4.394z" fill="#5ce6b8"/><path d="m156.528 354.813 29.233-29.233c5.858-5.857 5.858-15.355 0-21.213-5.857-5.857-15.355-5.857-21.213 0l-29.233 29.233-29.233-29.233c-5.857-5.857-15.355-5.857-21.213 0s-5.858 15.355 0 21.213l29.233 29.233-29.232 29.233c-5.858 5.857-5.858 15.355 0 21.213 2.929 2.929 6.768 4.394 10.606 4.394s7.678-1.465 10.606-4.394l29.233-29.233 29.233 29.233c2.929 2.929 6.768 4.394 10.606 4.394 3.839 0 7.678-1.465 10.606-4.394 5.858-5.857 5.858-15.355 0-21.213z" fill="#ff6680"/><path d="m0 157.188v37.777c0 16.569 13.431 30 30 30h157.883c8.284 0 15-6.716 15-15v-52.777z" fill="#f1ba87"/><path d="m187.883 157.188v67.777h68.117c8.264 0 14.971-6.684 15-14.947l.185-52.83z" fill="#3dccb4"/><path d="m240.769 354.813v52.725c-.014 3.987 1.422 7.816 4.237 10.641s6.638 4.412 10.625 4.412h68.855v-67.777z" fill="#e62e6b"/><path d="m114.102 354.813-29.232 29.233c-5.858 5.857-5.858 15.355 0 21.213 2.929 2.929 6.768 4.394 10.606 4.394s7.678-1.465 10.606-4.394l29.233-29.233 29.233 29.233c2.929 2.929 6.768 4.394 10.606 4.394 3.839 0 7.678-1.465 10.606-4.394 5.858-5.857 5.858-15.355 0-21.213l-29.233-29.233z" fill="#e62e6b"/><path d="m365.861 189.008c2.929 2.929 6.768 4.394 10.606 4.394s7.678-1.465 10.606-4.394l31.819-31.819h-84.852z" fill="#3dccb4"/></g></svg>