<?xml version="1.0" encoding="UTF-8"?>
<!DOCTYPE svg PUBLIC "-//W3C//DTD SVG 1.1//EN" "http://www.w3.org/Graphics/SVG/1.1/DTD/svg11.dtd">
<!-- Creator: CorelDRAW X8 -->
<svg xmlns="http://www.w3.org/2000/svg" xml:space="preserve" width="640px" height="480px" version="1.1" style="shape-rendering:geometricPrecision; text-rendering:geometricPrecision; image-rendering:optimizeQuality; fill-rule:evenodd; clip-rule:evenodd"
     viewBox="0 0 347 260"
     xmlns:xlink="http://www.w3.org/1999/xlink">
 <defs>
  <style type="text/css">
   <![CDATA[
    .fil0 {fill:none}
    .fil1 {fill:#373435}
    .fil2 {fill:#3266AF}
    .fil3 {fill:#00A859;fill-rule:nonzero}
   ]]>
  </style>
 </defs>
 <g id="Capa_x0020_1">
  <metadata id="CorelCorpID_0Corel-Layer"/>
  <rect class="fil0" width="347" height="260"/>
  <g id="_2262957147376">
   <path class="fil1" d="M177 77c30,2 54,27 54,58 0,30 -24,56 -54,57l0 -8c25,-2 46,-24 46,-49 0,-26 -21,-48 -46,-49l0 -9zm-6 12c4,-1 9,0 12,2 -10,5 -17,12 -17,23 0,14 29,10 32,29 2,18 -13,30 -32,37 7,-8 21,-25 18,-35 -3,-12 -26,-14 -33,-28 -3,-8 -1,-17 6,-22 2,-1 4,-1 6,-2 -4,5 -6,6 -6,15 2,-8 6,-17 14,-19zm-1 103c-30,-1 -54,-27 -54,-57 0,-31 24,-56 54,-58l0 9c-25,1 -46,23 -46,49 0,25 21,47 46,49l0 8z"/>
   <path class="fil2" d="M50 223c-26,-6 -46,-29 -46,-57 0,-28 19,-51 45,-57 -1,-3 -1,-6 -1,-9 0,-21 17,-39 39,-39 12,0 23,6 30,15 12,-34 45,-58 82,-58 49,0 88,39 88,87 0,4 0,7 -1,10 1,0 2,0 2,0 31,0 55,25 55,55 0,29 -21,52 -48,55l0 -13c9,-1 17,-5 23,-11 8,-8 13,-19 13,-31 0,-11 -5,-22 -13,-30 -7,-7 -18,-12 -30,-12 -2,0 1,0 0,0l0 0c-1,0 -2,0 -3,0 -7,-1 -12,-7 -11,-14 0,-2 0,-3 0,-4 0,-1 0,-3 0,-5 0,-20 -8,-39 -22,-53 -13,-13 -32,-22 -53,-22 -16,0 -30,5 -43,14 -12,9 -22,21 -27,36 -1,2 -2,4 -4,5 -5,5 -13,4 -18,-1 -2,-3 -5,-6 -9,-8 -3,-1 -7,-2 -11,-2 -7,0 -14,3 -19,8 -5,4 -8,11 -8,18 0,2 0,3 0,4 1,0 1,1 1,2l0 0c2,7 -3,14 -9,15 -11,3 -20,9 -26,16 -6,8 -10,18 -10,29 0,12 5,24 14,32 5,6 12,10 20,12l0 13z"/>
   <path class="fil3" d="M94 216c-2,-2 -3,-3 -5,-4 -2,0 -3,-1 -5,-1 -3,0 -6,1 -8,3 -2,3 -3,5 -3,9 0,3 1,6 3,8 2,2 5,3 8,3 2,0 4,0 6,-1 1,-1 3,-2 5,-4l0 10c-2,1 -4,2 -6,3 -2,0 -3,0 -5,0 -3,0 -5,0 -7,-1 -2,0 -4,-1 -5,-3 -3,-1 -4,-4 -6,-6 -1,-3 -2,-6 -2,-9 0,-3 1,-6 2,-8 1,-2 2,-4 4,-6 2,-2 4,-4 6,-4 2,-1 5,-2 8,-2 2,0 4,0 6,1 1,0 3,1 5,3l-1 9zm14 25l-8 0 0 -36 8 -1 0 37zm12 -11c0,2 1,3 2,5 0,1 1,1 3,1 1,0 2,0 3,-1 1,-2 1,-3 1,-5 0,-2 0,-4 -1,-5 -1,-1 -2,-2 -3,-2 -2,0 -3,1 -3,2 -1,1 -2,3 -2,5zm-8 0c0,-4 1,-7 4,-9 2,-3 5,-4 9,-4 3,0 7,1 9,4 2,2 3,5 3,9 0,3 -1,6 -3,9 -2,2 -6,3 -9,3 -4,0 -7,-1 -9,-3 -3,-3 -4,-6 -4,-9zm45 -12l8 0 0 23 -7 1 0 -4c-2,1 -3,3 -4,3 -2,1 -3,1 -5,1 -2,0 -4,0 -5,-2 -2,-1 -2,-3 -2,-6l0 -16 8 0 0 14c0,1 0,2 1,3 0,0 1,1 2,1 1,0 2,-1 3,-2 1,-1 1,-2 1,-4l0 -12zm29 6c-1,0 -1,0 -2,0 0,-1 0,-1 -1,-1 -1,0 -3,1 -4,2 -1,2 -1,3 -1,5 0,2 0,3 1,5 1,1 2,1 3,1 1,0 2,0 2,0 1,0 1,0 2,-1l0 -11zm8 -20l0 37 -7 1 -1 -1c-1,0 -2,1 -3,1 -1,0 -2,0 -3,0 -3,0 -6,-1 -8,-3 -1,-2 -2,-5 -2,-9 0,-4 1,-7 3,-9 2,-2 5,-4 8,-4 1,0 2,0 3,1 0,0 1,0 2,0l0 -13 8 -1zm7 37l0 -37 9 0 0 29 14 0 0 8 -23 0zm26 -31c0,-1 0,-3 1,-3 1,-1 2,-2 3,-2 2,0 3,1 3,2 1,0 2,1 2,3 0,1 -1,2 -2,3 0,1 -1,1 -3,1 -1,0 -2,0 -3,-1 -1,-1 -1,-2 -1,-3zm8 31l-8 0 0 -23 8 -1 0 24zm21 -23l0 6 -5 0 0 17 -8 0 0 -17 -4 0 0 -6 4 0 0 -2c0,-3 0,-5 1,-7 1,-2 2,-3 4,-4l9 -1 0 2c-2,1 -4,2 -5,3 -1,1 -1,3 -1,6l0 3 5 0zm10 10l10 -1 0 0c0,-1 0,-2 -1,-3 -1,-1 -2,-1 -4,-1 -1,0 -2,0 -3,1 -1,1 -2,2 -2,4zm15 5l-1 7c-1,1 -3,1 -4,2 -2,0 -3,0 -5,0 -4,0 -7,-1 -9,-3 -2,-2 -4,-5 -4,-9 0,-3 2,-6 4,-9 3,-2 6,-4 10,-4 3,0 5,1 7,3 2,2 3,4 3,7 0,1 0,1 0,2l0 1 -1 1 -15 0c0,2 1,3 2,4 1,1 2,1 4,1 1,0 3,0 4,0 2,-1 4,-2 5,-3z"/>
    </g>
 </g>
</svg>
