<svg id="Capa_1" enable-background="new 0 0 512 512" height="512" viewBox="0 0 512 512" width="512" xmlns="http://www.w3.org/2000/svg"><path d="m494.465 504.357h-442.687c-5.534 0-10.02-4.486-10.02-10.02v-346.792h462.727v346.793c0 5.533-4.486 10.019-10.02 10.019z" fill="#ffcd6b"/><path d="m504.482 147.545.003 3.573v343.22c0 5.534-4.486 10.02-10.02 10.02h-53.144c16.973 0 30.72-13.757 30.72-30.72v-326.093z" fill="#ffc143"/><path d="m293.715 17.206c-12.62-7.804-28.568-7.804-41.188 0l-210.769 130.339 199.992 198.871c17.354 17.257 45.388 17.257 62.743 0l199.992-198.871z" fill="#ffe1a8"/><path d="m273.121 70.679h-153.645c-4.427 0-8.016 3.589-8.016 8.016v138.162l130.292 129.562c8.676 8.628 20.022 12.942 31.368 12.942s22.692-4.314 31.368-12.942l130.292-129.562v-138.163c0-4.427-3.589-8.016-8.016-8.016h-153.643z" fill="#fff5f5"/><path d="m434.779 78.698v138.16l-33.856 33.666v-171.826c0-4.429-3.587-8.016-8.016-8.016h33.856c4.429 0 8.016 3.587 8.016 8.016z" fill="#efe2dd"/><path d="m354.753 306.847c-17.897-27.718-48.637-44.46-81.631-44.46-32.994 0-63.734 16.742-81.631 44.46l-127.532 197.51h209.163 209.163z" fill="#fa0"/><path d="m482.284 504.357h-40.768l-127.535-197.506c-14.138-21.905-36.286-36.951-61.241-42.303 6.625-1.422 13.455-2.161 20.379-2.161 32.993 0 63.73 16.74 81.63 44.464z" fill="#ff9500"/><path d="m242.379 219.97h-229.164c-3.148 0-5.7-2.552-5.7-5.7v-62.318c0-3.148 2.552-5.701 5.7-5.701h229.164c3.148 0 5.701 2.552 5.701 5.701v62.318c-.001 3.148-2.553 5.7-5.701 5.7z" fill="#c9f0ff"/><path d="m242.379 219.97h-23.596v-73.719h23.596c3.148 0 5.701 2.552 5.701 5.701v62.318c-.001 3.148-2.553 5.7-5.701 5.7z" fill="#9ae7fd"/><path d="m86.672 88.584v86.049c0 5.037 4.084 9.121 9.121 9.121h64.009c5.037 0 9.121-4.084 9.121-9.121v-86.049h20.253c3.021 0 4.673-3.522 2.741-5.845l-61.379-73.811c-1.425-1.714-4.057-1.714-5.483 0l-61.377 73.811c-1.932 2.323-.28 5.845 2.741 5.845z" fill="#a3e72d"/><path d="m189.17 88.586h-17.584l-56.389-67.813 9.857-11.846c1.426-1.714 4.057-1.713 5.482.001l61.376 73.813c1.931 2.323.279 5.845-2.742 5.845z" fill="#80cf00"/><path d="m511.998 147.505c-.001-.264-.017-.525-.045-.781-.001-.012-.001-.025-.002-.037-.007-.058-.022-.114-.03-.172-.028-.203-.061-.405-.104-.603-.017-.078-.039-.153-.059-.23-.048-.187-.1-.372-.162-.553-.027-.079-.057-.157-.086-.235-.066-.174-.137-.345-.215-.513-.036-.078-.073-.156-.112-.232-.083-.164-.174-.324-.269-.481-.044-.072-.086-.146-.132-.217-.107-.164-.222-.322-.341-.477-.043-.056-.082-.114-.126-.169-.166-.204-.341-.4-.527-.585-.034-.034-.073-.064-.107-.098-.156-.15-.317-.294-.486-.43-.067-.054-.137-.103-.206-.154-.148-.111-.298-.218-.455-.318-.033-.021-.062-.046-.094-.066l-66.141-40.901v-21.559c0-8.564-6.967-15.53-15.53-15.53h-44.445l-84.654-52.349c-15.14-9.363-33.951-9.363-49.092 0l-70.462 43.573-41.799-50.264c-2.111-2.539-5.216-3.996-8.519-3.996-3.302 0-6.408 1.456-8.52 3.996l-61.378 73.811c-2.776 3.34-3.356 7.856-1.512 11.789s5.688 6.375 10.031 6.375h12.738v19.483l-37.443 23.155h-28.499c-7.286-.001-13.215 5.928-13.215 13.215v62.318c0 7.287 5.929 13.215 13.215 13.215h21.028v266.853c0 9.668 7.866 17.534 17.534 17.534h12.181 418.326 12.181c9.668 0 17.534-7.866 17.534-17.534v-346.794c.001-.013-.001-.026-.001-.039zm-69.701-29.582 50.139 31.006-50.139 49.858zm-185.817-94.326c10.264-6.348 23.018-6.348 33.282 0l63.983 39.567h-161.247zm-181.639 57.472 52.956-63.684 52.956 63.684h-11.831c-4.15 0-7.515 3.364-7.515 7.515v86.049c0 .885-.721 1.606-1.606 1.606h-64.008c-.885 0-1.606-.72-1.606-1.606v-86.049c0-4.151-3.365-7.515-7.515-7.515zm2.915 415.774 33.419-51.756c2.251-3.486 1.25-8.138-2.237-10.389-3.486-2.251-8.138-1.249-10.389 2.237l-38.683 59.909h-8.088c-1.381 0-2.505-1.123-2.505-2.505v-266.854h62.219l74.494 74.076c-.269.404-.544.801-.808 1.209l-67.992 105.3c-2.251 3.486-1.25 8.138 2.237 10.389 3.485 2.252 8.138 1.25 10.389-2.237l67.992-105.3c16.586-25.687 44.743-41.022 75.318-41.022 30.576 0 58.732 15.336 75.318 41.022l120.047 185.92h-390.731zm419.215-2.505c0 1.382-1.124 2.505-2.505 2.505h-8.088l-125.312-194.073c-.264-.408-.536-.808-.808-1.209l20.96-20.843c2.943-2.927 2.956-7.685.03-10.627-2.927-2.943-7.683-2.957-10.628-.03l-19.637 19.528c-19.68-21.972-47.759-34.717-77.862-34.717-30.102 0-58.195 12.731-77.876 34.703l-62.439-62.089h109.572c7.287 0 13.215-5.929 13.215-13.215v-62.318c0-7.287-5.929-13.215-13.215-13.215h-52.75c-4.15 0-7.515 3.364-7.515 7.515s3.364 7.515 7.515 7.515h50.935v58.69h-225.534v-58.69h47.221c4.15 0 7.515-3.364 7.515-7.515 0-2.239-.985-4.244-2.538-5.62l11.93-7.378v41.379c0 9.172 7.463 16.635 16.635 16.635h64.009c9.173 0 16.635-7.463 16.635-16.635v-78.536h12.738c4.343 0 8.187-2.442 10.031-6.375 1.798-3.833 1.286-8.218-1.312-11.53h228.873c.276 0 .501.225.501.501v135.037l-31.642 31.465c-2.943 2.927-2.956 7.685-.03 10.627 2.928 2.944 7.684 2.958 10.628.03l16.519-16.427c.002-.002.004-.003.006-.005l74.222-73.806v328.723z"/></svg>