<svg height="512pt" viewBox="0 -32 512 512" width="512pt" xmlns="http://www.w3.org/2000/svg"><path d="m32 0h448c17.671875 0 32 14.328125 32 32v288c0 17.671875-14.328125 32-32 32h-448c-17.671875 0-32-14.328125-32-32v-288c0-17.671875 14.328125-32 32-32zm0 0" fill="#eee"/><path d="m278.625 96 4.6875-4.6875-22.625-22.625-4.6875 4.6875-4.6875-4.6875-22.625 22.625 4.6875 4.6875-232.191406 232.191406c2.960937 11.042969 11.582031 19.664063 22.625 22.625l232.191406-232.191406 232.191406 232.191406c11.042969-2.960937 19.664063-11.582031 22.625-22.625zm0 0" fill="#e0e0e0"/><path d="m256 160 244.207031-152.625c-5.667969-4.738281-12.816406-7.3476562-20.207031-7.375h-448c-7.390625.0273438-14.539062 2.636719-20.207031 7.375zm0 0" fill="#bcaaa4"/><path d="m341.328125 448v-64h-112v-128h112v-64l170.671875 128zm0 0" fill="#66bb6a"/><path d="m336 64h-32v-32h32zm-64 0h-32v-32h32zm-64 0h-32v-32h32zm0 0" fill="#fff"/></svg>