<svg height="512pt" viewBox="0 0 512 512.04745" width="512pt" xmlns="http://www.w3.org/2000/svg"><path d="m503.492188 8.535156c0 75.773438-40.449219 117.929688-103.253907 156.242188-4.058593-3.71875-8.332031-7.195313-12.800781-10.410156-7.542969-5.46875-15.601562-10.183594-24.0625-14.078126-.085938 0-.085938-.085937-.171875-.085937-1.964844-.855469-3.925781-1.707031-5.972656-2.476563.089843-.292968.203125-.578124.339843-.851562 14.59375-40.875 52.054688-117.929688 129.878907-127.402344 5.324219-.621094 10.679687-.933594 16.042969-.9375zm0 0" fill="#f57c00"/><path d="m487.449219 9.472656c-3.246094 68.691406-41.558594 108.714844-100.011719 144.894532-1.023438.597656-2.046875 1.28125-3.074219 1.878906-6.484375-5.960938-13.511719-11.304688-20.988281-15.957032-.085938 0-.085938-.085937-.171875-.085937l-5.632813-3.328125c14.59375-40.875 52.054688-117.929688 129.878907-127.402344zm0 0" fill="#ff9801"/><g fill="#9e9e9e"><path d="m8.558594 213.332031c12.351562 7.933594 26.488281 12.65625 41.128906 13.738281-13.648438 1.464844-27.445312.570313-40.789062-2.644531-.257813-3.753906-.339844-7.421875-.339844-11.09375zm0 0"/><path d="m71.019531 333.054688c20.136719-.769532 39.738281-6.703126 56.917969-17.234376-3.625 5.148438-7.585938 10.050782-11.859375 14.675782-14.847656 2.78125-29.992187 3.644531-45.058594 2.558594zm0 0"/><path d="m392.558594 409.601562c-17.066406 42.664063 0 93.863282 0 93.863282-8.789063 0-17.324219-.167969-25.773438-.59375-1.875-5.804688-15.785156-53.335938.171875-93.269532 17.066407-42.667968 51.199219-101.804687 51.199219-162.136718 0-41.042969-47.273438-113.578125-126.71875-119.039063 5.035156-.339843 10.324219-.425781 15.785156-.425781 85.335938 0 136.535156 76.800781 136.535156 119.464844 0 60.332031-34.132812 119.46875-51.199218 162.136718zm0 0"/></g><path d="m366.957031 409.601562c-15.957031 39.933594-2.046875 87.464844-.171875 93.269532-20.527344-.878906-40.984375-2.960938-61.269531-6.230469-5.714844-.855469-11.347656-1.878906-16.894531-2.988281-29.394532-5.75-58.128906-14.472656-85.761719-26.027344 53.589844-44.796875 77.226563-161.363281 78.679687-168.617188-9.097656 23.085938-23.476562 43.71875-41.984374 60.246094-32.628907 28.652344-70.148438 51.199219-110.761719 66.558594-3.074219-2.21875-6.058594-4.523438-9.046875-6.910156-15.742188-12.277344-30.3125-25.988282-43.519532-40.960938 30.710938-13.667968 57.351563-35.074218 77.3125-62.121094-11.40625 7.300782-24.132812 12.285157-37.460937 14.675782 4.273437-4.625 8.234375-9.527344 11.859375-14.675782-17.179688 10.53125-36.78125 16.464844-56.917969 17.234376-9.839843-.550782-19.640625-1.660157-29.351562-3.328126-7.597657-13.179687-14.019531-27-19.203125-41.300781-2.132813-5.714843-4.007813-11.519531-5.628906-17.238281-4.339844-15.25-7-30.929688-7.9375-46.761719 13.34375 3.214844 27.140624 4.109375 40.789062 2.644531 17.75 1.714844 35.664062-.050781 52.734375-5.203124 49.835937-14.25 66.902344-87.636719 189.015625-93.441407 79.445312 5.460938 126.71875 77.996094 126.71875 119.039063 0 60.332031-34.132812 119.46875-51.199219 162.136718zm0 0" fill="#cfd8dc"/><path d="m400.238281 173.320312c-2.132812 0-4.1875-.800781-5.761719-2.242187-11.816406-10.859375-25.507812-19.484375-40.40625-25.457031-4.253906-1.695313-6.414062-6.449219-4.886718-10.769532 14.359375-40.542968 58.085937-134.851562 154.308594-134.851562 4.710937 0 8.53125 3.820312 8.53125 8.535156 0 86.117188-51.582032 129.492188-107.324219 163.539063-1.34375.820312-2.886719 1.25-4.460938 1.246093zm-32.214843-40.25c11.914062 5.558594 23.039062 12.664063 33.09375 21.136719 54.160156-33.957031 90.640624-71.21875 93.625-136.839843-72.199219 4.957031-109.566407 70.960937-126.703126 115.703124zm0 0"/><path d="m443.757812 72.839844c-3.617187.003906-6.84375-2.277344-8.050781-5.6875s-.132812-7.210938 2.683594-9.484375c6.335937-5.148438 13.222656-9.582031 20.53125-13.226563 4.191406-1.917968 9.152344-.152344 11.195313 3.980469 2.042968 4.132813.433593 9.140625-3.636719 11.3125-6.179688 3.085937-12.003907 6.84375-17.363281 11.203125-1.515626 1.226562-3.410157 1.898438-5.359376 1.902344zm0 0"/><path d="m400.65625 130.558594c-1.285156.003906-2.550781-.289063-3.703125-.851563-4.246094-2.046875-6.023437-7.148437-3.976563-11.390625 4.867188-10.1875 10.515626-19.980468 16.902344-29.289062 1.710938-2.566406 4.671875-4.011719 7.746094-3.777344 3.074219.230469 5.785156 2.105469 7.089844 4.898438 1.304687 2.796874 1 6.074218-.796875 8.582031-5.878907 8.585937-11.082031 17.613281-15.566407 27-1.421874 2.957031-4.414062 4.832031-7.695312 4.828125zm0 0"/><path d="m392.558594 512c-66.136719.917969-131.773438-11.515625-192.992188-36.558594-2.734375-1.15625-4.667968-3.65625-5.105468-6.59375-.441407-2.9375.679687-5.890625 2.957031-7.800781 28.910156-24.199219 48.953125-71.371094 61.140625-108.9375-36.796875 41.226563-91.503906 67.757813-126.644532 81.65625-2.726562 1.074219-5.8125.675781-8.175781-1.058594-19.710937-14.363281-37.800781-30.824219-53.953125-49.097656-1.8125-2.058594-2.523437-4.859375-1.917968-7.53125.605468-2.671875 2.457031-4.890625 4.980468-5.960937 18.03125-7.890626 34.621094-18.730469 49.09375-32.070313-26.972656 5.296875-54.714844 5.328125-81.699218.09375-2.515626-.425781-4.703126-1.953125-5.972657-4.164063-21.6875-36.5625-33.488281-78.140624-34.2460935-120.644531 0-3.230469 1.8281245-6.1875 4.7187505-7.632812 2.890624-1.445313 6.347656-1.132813 8.933593.808593 1.238281.902344 31.933594 22.707032 86.402344 7.160157 15.625-4.464844 28.355469-16.136719 43.09375-29.65625 31.367187-28.757813 70.398437-64.546875 164.050781-64.546875 93.867188 0 145.066406 84.558594 145.066406 128 0 49.015625-21.554687 96.992187-38.886718 135.535156-4.761719 10.609375-9.265625 20.636719-12.917969 29.773438-15.667969 39.160156 0 87.519531.171875 88.003906.863281 2.601562.421875 5.460937-1.179688 7.683594-1.605468 2.222656-4.179687 3.539062-6.917968 3.539062zm-174.160156-47.34375c52.148437 19.507812 107.3125 29.71875 162.988281 30.175781-4.265625-18.253906-9.964844-55.332031 3.261719-88.40625 3.785156-9.464843 8.371093-19.625 13.207031-30.421875 16.640625-37.058594 37.367187-83.183594 37.367187-128.539062 0-39.105469-48.597656-110.929688-128-110.929688-87.039062 0-123.332031 33.277344-152.523437 60.0625-15.652344 14.347656-30.429688 27.90625-49.929688 33.46875-28.441406 9.253906-59.203125 8.449219-87.125-2.277344 2.980469 33.140626 13.03125 65.253907 29.476563 94.183594 26.453125 4.136719 71.328125 6.953125 101.765625-13.339844 3.398437-2.265624 7.921875-1.808593 10.796875 1.089844 2.875 2.902344 3.292968 7.429688.996094 10.804688-18.5 25.234375-42.578126 45.851562-70.355469 60.253906 12.234375 12.859375 25.515625 24.683594 39.703125 35.347656 45.78125-18.628906 120.808594-57.730468 143.574218-120.378906 1.519532-4.1875 6-6.5 10.289063-5.316406 4.292969 1.183594 6.953125 5.464844 6.113281 9.835937-.921875 4.824219-21.914062 111.890625-71.605468 164.386719zm0 0"/><path d="m297.070312 504.320312h-.375c-4.710937-.203124-8.363281-4.183593-8.160156-8.890624.855469-20.773438 6.410156-58.882813 27.65625-122.667969 1.488282-4.476563 6.328125-6.898438 10.804688-5.410157 4.476562 1.488282 6.898437 6.324219 5.410156 10.804688-20.625 61.875-25.960938 98.320312-26.804688 118.007812-.199218 4.5625-3.960937 8.160157-8.53125 8.15625zm0 0"/><path d="m77.539062 293.027344c-20.027343-.066406-40.011718-1.859375-59.730468-5.359375-4.511719-.9375-7.464844-5.289063-6.667969-9.828125.792969-4.539063 5.050781-7.625 9.609375-6.976563 27.546875 4.816407 81.066406 10.457031 130.152344-5.894531 2.894531-.964844 6.085937-.308594 8.367187 1.71875 2.285157 2.027344 3.3125 5.117188 2.699219 8.105469-.617188 2.988281-2.777344 5.425781-5.675781 6.390625-25.449219 8.125-52.035157 12.125-78.753907 11.84375zm0 0"/></svg>