<?xml version="1.0" encoding="UTF-8"?>
<!DOCTYPE svg PUBLIC "-//W3C//DTD SVG 1.1//EN" "http://www.w3.org/Graphics/SVG/1.1/DTD/svg11.dtd">
<!-- Creator: CorelDRAW X8 -->
<svg xmlns="http://www.w3.org/2000/svg" xml:space="preserve" width="128px" height="128px" version="1.1" style="shape-rendering:geometricPrecision; text-rendering:geometricPrecision; image-rendering:optimizeQuality; fill-rule:evenodd; clip-rule:evenodd"
viewBox="0 0 128 128"
 xmlns:xlink="http://www.w3.org/1999/xlink">
 <defs>
  <style type="text/css">
   <![CDATA[
    .fil0 {fill:none}
    .fil5 {fill:#1565C0}
    .fil1 {fill:#C62828}
    .fil2 {fill:#F44336}
    .fil3 {fill:#FBC02D}
    .fil4 {fill:#FF8F00;fill-rule:nonzero}
   ]]>
  </style>
 </defs>
 <g id="Capa_x0020_1">
  <metadata id="CorelCorpID_0Corel-Layer"/>
  <rect class="fil0" width="128" height="128"/>
  <g id="_3029391670752">
   <g>
    <polygon class="fil1" points="49,40 73,40 105,0 82,0 "/>
    <polygon class="fil2" points="73,40 49,40 17,0 41,0 "/>
   </g>
   <circle class="fil3" cx="61" cy="75" r="46"/>
   <path class="fil4" d="M61 102c-7,0 -14,-3 -19,-8 -5,-5 -8,-12 -8,-19 0,-8 3,-15 8,-20 5,-5 12,-8 19,-8 8,0 15,3 20,8 5,5 8,12 8,20 0,7 -3,14 -8,19 -5,5 -12,8 -20,8zm-14 -13c3,4 9,6 14,6 6,0 11,-2 14,-6 4,-4 6,-9 6,-14 0,-6 -2,-11 -6,-15 -3,-3 -8,-5 -14,-5 -5,0 -11,2 -14,5 -4,4 -6,9 -6,15 0,5 2,10 6,14z"/>
  </g>
  <polygon class="fil5" points="88,61 102,61 102,88 128,88 128,102 102,102 102,128 88,128 88,102 61,102 61,88 88,88 "/>
 </g>
</svg>
