<?xml version="1.0" encoding="UTF-8"?>
<!DOCTYPE svg PUBLIC "-//W3C//DTD SVG 1.1//EN" "http://www.w3.org/Graphics/SVG/1.1/DTD/svg11.dtd">
<!-- Creator: CorelDRAW X8 -->
<svg xmlns="http://www.w3.org/2000/svg" xml:space="preserve" width="128px" height="128px" version="1.1" style="shape-rendering:geometricPrecision; text-rendering:geometricPrecision; image-rendering:optimizeQuality; fill-rule:evenodd; clip-rule:evenodd"
viewBox="0 0 78 78"
 xmlns:xlink="http://www.w3.org/1999/xlink">
 <defs>
  <style type="text/css">
   <![CDATA[
    .fil0 {fill:none}
    .fil3 {fill:#757575}
    .fil1 {fill:#9E9E9E}
    .fil2 {fill:#BDBDBD}
    .fil4 {fill:#424242;fill-rule:nonzero}
   ]]>
  </style>
 </defs>
 <g id="Capa_x0020_1">
  <metadata id="CorelCorpID_0Corel-Layer"/>
  <rect class="fil0" width="78.2786" height="78.2786"/>
  <polygon class="fil1" points="30,24 44,24 64,0 50,0 "/>
  <polygon class="fil2" points="44,24 30,24 11,0 25,0 "/>
  <circle class="fil3" cx="37" cy="46" r="28"/>
  <path class="fil4" d="M37 63c-4,0 -8,-2 -11,-5 -4,-3 -5,-8 -5,-12 0,-5 1,-9 5,-12 3,-3 7,-5 11,-5 5,0 9,2 12,5 3,3 5,7 5,12 0,4 -2,9 -5,12 -3,3 -7,5 -12,5zm-8 -9c2,3 5,4 8,4 4,0 7,-1 9,-4 2,-2 4,-5 4,-8 0,-4 -2,-7 -4,-9 -2,-2 -5,-4 -9,-4 -3,0 -6,2 -8,4 -3,2 -4,5 -4,9 0,3 1,6 4,8z"/>
  <polygon class="fil1" points="54,37 62,37 62,54 78,54 78,62 62,62 62,78 54,78 54,62 37,62 37,54 54,54 "/>
 </g>
</svg>
