<?xml version="1.0" encoding="UTF-8"?>
<!DOCTYPE svg PUBLIC "-//W3C//DTD SVG 1.1//EN" "http://www.w3.org/Graphics/SVG/1.1/DTD/svg11.dtd">
<!-- Creator: CorelDRAW X8 -->
<svg xmlns="http://www.w3.org/2000/svg" xml:space="preserve" width="640px" height="640px" version="1.1" style="shape-rendering:geometricPrecision; text-rendering:geometricPrecision; image-rendering:optimizeQuality; fill-rule:evenodd; clip-rule:evenodd"
viewBox="0 0 123 123"
 xmlns:xlink="http://www.w3.org/1999/xlink">
 <defs>
  <style type="text/css">
   <![CDATA[
    .fil0 {fill:none}
    .fil5 {fill:black}
    .fil3 {fill:#BDBDBD}
    .fil2 {fill:#E0E0E0}
    .fil4 {fill:whitesmoke}
    .fil6 {fill:whitesmoke}
    .fil1 {fill:url(#id0)}
   ]]>
  </style>
  <linearGradient id="id0" gradientUnits="userSpaceOnUse" x1="61.4333" y1="3.83995" x2="61.4333" y2="119.027">
   <stop offset="0" style="stop-opacity:1; stop-color:#757575"/>
   <stop offset="1" style="stop-opacity:1; stop-color:#424242"/>
  </linearGradient>
 </defs>
 <g id="Capa_x0020_1">
  <metadata id="CorelCorpID_0Corel-Layer"/>
  <rect class="fil0" width="123" height="123"/>
  <path class="fil1" d="M4 119l18 0 0 -51 76 0 0 51 21 0 0 -93 -22 -22 -6 0 0 39 -64 0 0 -39 -23 0 0 115zm64 -107l16 0 0 23 -16 0 0 -23z"/>
  <path class="fil2" d="M27 4l64 0 0 39 -64 0 0 -39zm41 8l16 0 0 23 -16 0 0 -23z"/>
  <rect class="fil3" x="22" y="68" width="76.0247" height="29.1809"/>
  <rect class="fil4" x="22" y="97" width="76.0247" height="22.2206"/>
  <rect class="fil5" x="73" y="16" width="6.14256" height="15.3095"/>
  <g id="_1782752175408">
   <rect class="fil6" x="30" y="85" width="39.5427" height="6.16727" rx="3" ry="3"/>
   <rect class="fil6" x="30" y="73" width="27.4939" height="6.16727" rx="2" ry="3"/>
   <circle class="fil6" cx="75" cy="88" r="3"/>
  </g>
 </g>
</svg>
