<?xml version="1.0" encoding="UTF-8"?>
<!DOCTYPE svg PUBLIC "-//W3C//DTD SVG 1.1//EN" "http://www.w3.org/Graphics/SVG/1.1/DTD/svg11.dtd">
<!-- Creator: CorelDRAW X8 -->
<svg xmlns="http://www.w3.org/2000/svg" xml:space="preserve" width="6000px" height="800px" version="1.1" style="shape-rendering:geometricPrecision; text-rendering:geometricPrecision; image-rendering:optimizeQuality; fill-rule:evenodd; clip-rule:evenodd"
viewBox="0 0 4991 665"
 xmlns:xlink="http://www.w3.org/1999/xlink">
 <defs>
  <style type="text/css">
   <![CDATA[
    .fil0 {fill:none}
    .fil1 {fill:white}
    .fil2 {fill:white;fill-rule:nonzero}
   ]]>
  </style>
 </defs>
 <g id="Capa_x0020_1">
  <metadata id="CorelCorpID_0Corel-Layer"/>
  <rect class="fil0" width="4991" height="665"/>
  <g id="_2579881434432">
   <path class="fil1" d="M325 97c21,-6 46,-1 64,13 -55,21 -91,61 -89,117 2,72 151,50 163,148 12,97 -65,159 -166,196 40,-40 112,-131 98,-183 -18,-63 -139,-71 -172,-148 -18,-41 -7,-85 27,-112 12,-6 22,-7 32,-7 -16,21 -29,28 -32,75 12,-41 36,-86 75,-99z"/>
   <path class="fil1" d="M320 633c-157,-10 -282,-140 -282,-300 0,-160 125,-291 282,-300l0 46c-132,9 -236,119 -236,254 0,134 104,244 236,254l0 46zm37 -600c157,9 282,140 282,300 0,160 -125,290 -282,300l0 -46c132,-10 236,-120 236,-254 0,-135 -104,-245 -236,-254l0 -46z"/>
   <path class="fil2" d="M1175 468c1,2 1,3 -1,5 -14,15 -38,28 -72,40 -26,9 -59,13 -99,13 -34,0 -61,-3 -80,-9 -21,-7 -41,-20 -60,-37 -31,-30 -47,-75 -47,-135 0,-34 9,-67 27,-101 15,-27 37,-50 67,-68 39,-25 89,-37 151,-37 23,0 44,1 63,3 22,2 36,5 42,8 1,0 1,1 1,3 0,3 -1,11 -2,23 -2,10 -2,19 -3,27 -1,2 -1,3 -3,3 -1,0 -2,-1 -3,-2 0,-2 -1,-5 -3,-8 -2,-4 -10,-10 -24,-19 -21,-10 -51,-15 -91,-15 -51,0 -92,15 -123,45 -34,34 -52,77 -52,129 0,56 18,100 55,132 18,16 37,27 56,33 16,5 39,8 68,8 21,0 41,-5 61,-14 19,-8 34,-20 44,-34 5,-8 9,-16 10,-23 0,-4 0,-5 2,-5 0,0 1,1 2,2 1,7 3,12 6,18 2,4 4,9 8,15z"/>
   <path class="fil2" d="M1498 389c0,40 -11,71 -32,94 -7,8 -13,13 -18,17 -10,7 -23,14 -39,19 -13,4 -30,7 -51,7 -33,0 -58,-4 -74,-12 -13,-5 -23,-13 -31,-21 -10,-11 -18,-23 -22,-35 -5,-16 -8,-36 -8,-61 0,-17 3,-33 8,-48 6,-18 15,-34 27,-46 12,-12 29,-23 51,-31 16,-5 34,-8 53,-8 30,0 53,3 68,9 18,8 31,17 41,30 18,22 27,51 27,86zm-33 10c0,-18 -2,-34 -7,-47 -5,-16 -13,-30 -24,-42 -10,-10 -23,-18 -37,-24 -16,-6 -32,-9 -49,-9 -21,0 -36,3 -45,9 -17,11 -29,24 -35,37 -9,18 -13,39 -13,65 0,38 7,67 23,89 9,13 23,23 41,31 15,6 31,9 48,9 19,0 37,-4 53,-14 13,-8 24,-21 33,-39 8,-17 12,-39 12,-65z"/>
   <path class="fil2" d="M1792 521c0,2 0,2 -1,2l-64 0c-1,0 -3,0 -4,-2 -5,-4 -14,-15 -28,-32 -7,-9 -14,-18 -21,-27 -8,-12 -18,-29 -32,-53 -1,-3 -2,-4 -3,-4 -6,0 -17,0 -33,-2 -2,-1 -3,0 -3,2 0,2 0,10 0,24 1,13 1,28 1,43 0,27 3,41 8,41l35 0c1,0 2,1 2,2l0 6c0,2 0,2 -2,2l-103 0c-1,0 -2,0 -2,0 0,-1 0,-1 0,-2l0 -5c0,-2 0,-2 0,-2 1,-1 1,-1 2,-1l25 0c2,0 3,-2 3,-6l0 -101c0,-52 0,-78 0,-78 0,-35 -2,-52 -6,-52l-25 0c-1,0 -2,-1 -2,-2l0 -7c0,-1 0,-1 1,-1l59 0c2,0 9,-1 22,-1 13,-1 20,-1 22,-1 8,0 17,1 25,2 18,3 32,9 43,20 13,11 19,26 19,44 0,21 -6,37 -19,51 -7,8 -20,14 -37,20 -1,1 -2,1 -1,2 5,15 19,34 39,56 11,12 19,21 24,26 9,9 16,15 22,20 8,6 19,9 31,9 2,0 3,0 3,1l0 6zm-94 -181c0,-17 -6,-30 -17,-41 -16,-15 -40,-22 -70,-22 -4,0 -7,1 -7,3 0,36 0,59 -1,68 0,0 0,14 0,43 0,1 1,2 3,2 3,1 11,1 25,1 5,0 12,0 19,-1 6,-1 10,-2 9,-2 26,-6 39,-23 39,-51z"/>
   <path class="fil2" d="M1999 343c0,19 -6,36 -19,50 -13,14 -33,21 -59,21 -12,0 -26,-2 -43,-6 -1,0 -1,0 -1,1l0 62c0,28 2,43 7,43l33 0c2,0 3,0 3,2l0 5c0,2 -1,2 -1,2l-99 0c-1,0 -2,0 -2,-1l0 -6c0,-2 1,-2 2,-2l25 0c2,0 3,-2 3,-5l0 -195c0,-24 -1,-35 -4,-35l-26 0c-1,0 -2,-1 -2,-2l0 -7c0,-1 1,-2 2,-2l46 0c2,0 10,0 24,0 15,-1 22,-1 23,-1 13,0 24,1 33,3 14,3 26,10 37,21 12,13 18,31 18,52zm-29 3c0,-17 -6,-32 -18,-44 -14,-15 -34,-22 -60,-22 -7,0 -11,0 -12,0 -1,0 -1,2 -2,4 0,7 -1,26 -1,58 0,1 0,10 0,27 0,17 0,26 0,26 0,2 1,3 2,4 8,3 20,4 36,4 18,0 32,-4 41,-13 9,-10 14,-25 14,-44z"/>
   <path class="fil2" d="M2873 521c0,2 0,2 -1,2l-92 0c-1,0 -2,0 -2,-2l0 -5c0,-2 1,-3 2,-3l27 0c2,0 3,-1 3,-3 -1,-4 -6,-17 -14,-40 -8,-22 -12,-34 -13,-36 -1,-2 -3,-3 -4,-3l-97 0c-1,0 -2,1 -3,2 -2,3 -5,11 -9,24 -5,12 -7,21 -9,26 -2,10 -3,16 -3,18 0,8 1,12 3,12l31 0c1,0 2,1 2,3l0 5c0,2 -1,2 -2,2l-80 0c-2,0 -2,0 -2,-2l0 -6c0,-1 0,-2 1,-2l17 0c3,0 7,-6 12,-18 5,-11 20,-46 45,-102 16,-36 35,-79 57,-130 2,-4 3,-6 5,-7 4,-1 8,-3 14,-5 1,0 2,1 3,2 1,2 1,4 -1,6 -4,4 -6,8 -6,11 0,4 1,9 3,15 7,19 20,54 38,106 19,52 32,86 40,101 7,14 12,21 15,21l18 0c2,0 2,1 2,3l0 5zm-99 -108c-5,-15 -11,-31 -17,-49 -6,-18 -13,-37 -20,-56 0,-2 0,-3 -1,-3 -1,0 -1,1 -2,3 -17,39 -29,66 -36,82 -7,16 -11,25 -11,25 0,1 1,1 2,1l84 0c2,0 2,-1 1,-3z"/>
   <path class="fil2" d="M3135 486c0,1 0,2 -1,3 -10,10 -26,19 -49,27 -18,7 -41,10 -69,10 -23,0 -41,-3 -55,-7 -14,-5 -27,-13 -40,-25 -22,-20 -33,-51 -33,-92 0,-23 6,-46 19,-69 10,-18 25,-34 46,-47 26,-16 61,-24 103,-24 16,0 30,0 43,1 16,2 25,4 29,6 1,0 1,1 1,2 0,2 0,7 -1,16 -1,7 -2,13 -2,18 -1,1 -1,2 -2,2 -1,0 -2,0 -2,-1 0,-2 -1,-3 -2,-6 -2,-2 -7,-7 -17,-13 -14,-7 -35,-10 -62,-10 -36,0 -64,10 -85,31 -24,23 -35,53 -35,88 0,38 12,68 37,90 13,11 25,18 38,22 12,4 27,6 47,6 14,0 28,-3 42,-9 14,-6 24,-14 30,-24 4,-6 6,-11 7,-16 0,-2 1,-3 1,-3 1,0 1,1 2,2 1,4 2,8 4,12 1,3 3,6 6,10z"/>
   <path class="fil2" d="M3944 273c0,2 -1,3 -2,3l-29 0c-3,0 -5,1 -5,5 0,1 0,18 0,51 0,34 -1,52 -1,55 0,2 0,25 0,67 -1,43 -1,65 -1,67 0,6 -1,9 -3,9 -2,0 -3,0 -5,-2 -12,-15 -50,-59 -113,-131 -23,-27 -49,-57 -79,-90 -2,-2 -4,-1 -4,1 -1,2 -2,25 -3,70 -2,45 -3,73 -3,85 0,34 4,50 12,50l28 0c1,0 2,1 2,2l0 7c0,1 -1,1 -2,1l-83 0c-2,0 -3,0 -3,-1l0 -7c0,-1 1,-2 3,-2l26 0c2,0 3,-1 3,-3l0 -27c0,-8 1,-38 3,-91 3,-53 4,-80 4,-81 0,-24 -9,-35 -27,-35l-15 0c-1,0 -2,-1 -2,-2l0 -6c0,-2 1,-2 2,-2l67 0c2,0 3,1 5,3 1,2 13,16 35,42 22,27 34,42 37,45 31,37 65,76 100,116 0,1 1,1 2,1 1,0 1,-2 2,-6 0,-2 0,-24 0,-67 -1,-42 -1,-65 -1,-68 -2,-38 -7,-56 -15,-56l-29 0c-2,0 -3,-1 -3,-2l0 -6c0,-2 1,-2 3,-2l92 0c1,0 2,0 2,1l0 6z"/>
   <path class="fil2" d="M4380 462c0,2 -1,29 -7,39 -2,4 -4,10 -9,19 -2,2 -3,3 -5,3l-225 0c-2,0 -3,-1 -3,-3l0 -9c0,-2 1,-3 3,-3l40 0c3,0 5,-2 5,-6 0,-1 0,-13 -1,-33 0,-21 0,-67 1,-138 0,-71 1,-108 1,-112 0,-39 -4,-59 -11,-59l-31 0c-2,0 -3,-1 -3,-3l0 -8c0,-3 1,-4 3,-4l147 0c2,0 3,1 3,3l0 9c0,2 -1,3 -3,3l-54 0c-3,0 -5,1 -5,4 -1,3 -2,48 -3,135 -1,83 -1,130 -1,141 0,43 4,65 14,65 58,0 58,-2 67,-2 43,1 49,-14 66,-41 3,-4 7,-4 8,-4 2,1 3,3 3,4z"/>
   <path class="fil2" d="M4521 522c0,1 -1,1 -2,1l-92 0c-1,0 -2,0 -2,0 0,-1 0,-1 0,-2l0 -5c0,-2 0,-2 0,-2 0,-1 1,-1 1,-1l26 0c2,0 3,-2 3,-5l0 -196c0,-24 -3,-36 -7,-36l-24 0c-2,0 -3,-1 -3,-2l0 -6c0,-1 1,-2 2,-2l93 0c1,0 1,1 1,2l0 7c0,1 -1,1 -2,1l-27 0c-2,0 -3,1 -3,4 0,115 -1,174 -1,178 0,18 0,29 1,32 1,15 3,23 7,23l27 0c1,0 2,1 2,2l0 7z"/>
   <path class="fil2" d="M4739 268c0,0 -1,3 -3,12 -1,4 -3,10 -4,18 -1,1 -1,2 -2,2 -1,0 -2,0 -3,-2 -1,-2 -3,-5 -6,-7 -4,-4 -12,-7 -22,-8 -2,0 -17,-1 -46,-2 -28,-2 -14,-2 -15,-2 -2,0 -3,0 -3,1 -1,7 -2,38 -2,92 0,4 1,5 4,5l72 0c2,0 3,0 3,-1 1,-8 2,-16 3,-24 0,-2 1,-3 3,-3l3 0c1,0 2,1 2,3 0,0 0,6 -1,17 0,10 0,16 0,18 0,2 0,9 0,20 0,12 0,18 0,19 0,3 -1,5 -2,5l-4 0c-1,0 -2,-1 -2,-2 0,-1 -1,-6 -1,-17 -1,-10 -1,-15 -1,-16 0,-1 -1,-2 -3,-2 -8,-1 -16,-2 -73,-2 -1,0 -2,1 -3,3 0,0 0,23 0,68 0,34 4,50 11,50l38 0c1,0 2,1 2,2l0 6c0,2 -1,2 -2,2l-105 0c-2,0 -2,0 -2,-2l0 -5c0,-2 0,-3 2,-3l24 0c2,0 3,-1 3,-3 0,-3 0,-44 0,-125l0 -66c0,-29 -2,-43 -6,-43l-25 0c-1,0 -2,0 -2,-1l0 -7c0,-1 0,-2 2,-2l63 0c2,0 20,0 55,0 14,1 46,0 46,0 1,0 2,1 2,2z"/>
   <path class="fil2" d="M4952 478c-3,7 -3,34 -9,43 -1,2 -2,2 -4,2l-154 0c-1,0 -2,0 -2,-2l0 -6c0,-1 1,-2 2,-2l31 0c2,0 4,-1 4,-4 0,-1 0,-20 -1,-58 0,-38 0,-57 0,-58 0,-2 0,-14 0,-39 0,-25 0,-38 0,-40 0,-25 -3,-38 -9,-38l-25 0c-1,0 -2,-1 -2,-2l0 -6c0,-2 1,-2 3,-2l143 0c2,0 6,0 10,-1 4,0 6,0 6,0 2,0 2,1 2,2 -2,7 -4,24 -7,33 -1,3 -3,4 -4,4 0,0 -2,0 -3,-3 -2,-31 -59,-23 -80,-23 -1,0 -2,1 -3,2 -1,2 -1,33 -1,94 0,3 1,4 4,4l68 0c2,0 3,-1 4,-3 0,-1 1,-2 1,-8 1,-7 2,-4 2,-5 0,-2 1,-4 2,-4l3 0c2,0 3,1 3,4 0,0 0,0 -1,10 0,10 -1,12 -1,14 0,2 0,6 1,17 0,11 0,14 0,15 0,3 -1,4 -2,4l-4 0c-1,0 -2,-1 -2,-3 -1,-8 -1,-11 -2,-22 0,-2 -2,-4 -4,-4 -1,0 -28,0 -61,0 -33,-1 -7,-1 -8,-1 -2,0 -3,1 -3,3l0 72c0,30 4,45 11,45 65,0 79,-7 83,-31 1,-5 7,-5 8,-6 2,0 2,1 1,3z"/>
   <path class="fil2" d="M2322 389c0,40 -10,71 -31,94 -8,8 -14,13 -18,17 -10,7 -24,14 -40,19 -13,4 -30,7 -50,7 -33,0 -58,-4 -75,-12 -12,-5 -22,-13 -30,-21 -11,-11 -18,-23 -22,-35 -6,-16 -8,-36 -8,-61 0,-17 2,-33 7,-48 6,-18 15,-34 27,-46 12,-12 30,-23 52,-31 16,-5 34,-8 53,-8 30,0 52,3 68,9 17,8 31,17 41,30 17,22 26,51 26,86zm-33 10c0,-18 -2,-34 -6,-47 -5,-16 -14,-30 -25,-42 -10,-10 -22,-18 -36,-24 -16,-6 -33,-9 -49,-9 -21,0 -36,3 -46,9 -17,11 -29,24 -35,37 -9,18 -13,39 -13,65 0,38 8,67 23,89 9,13 23,23 42,31 14,6 30,9 47,9 20,0 37,-4 54,-14 12,-8 23,-21 32,-39 8,-17 12,-39 12,-65z"/>
   <path class="fil2" d="M2626 521c0,2 0,2 -1,2l-64 0c-1,0 -3,0 -4,-2 -5,-4 -14,-15 -28,-32 -7,-9 -14,-18 -21,-27 -8,-12 -18,-29 -32,-53 -1,-3 -2,-4 -3,-4 -6,0 -17,0 -33,-2 -2,-1 -3,0 -3,2 0,2 0,10 1,24 0,13 0,28 0,43 0,27 3,41 8,41l35 0c1,0 2,1 2,2l0 6c0,2 0,2 -1,2l-104 0c-1,0 -2,0 -2,0 0,-1 0,-1 0,-2l0 -5c0,-2 0,-2 0,-2 1,-1 1,-1 2,-1l25 0c2,0 3,-2 3,-6l0 -101c0,-52 0,-78 0,-78 0,-35 -2,-52 -6,-52l-25 0c-1,0 -2,-1 -2,-2l0 -7c0,-1 0,-1 2,-1l58 0c2,0 9,-1 22,-1 13,-1 21,-1 22,-1 9,0 17,1 25,2 18,3 32,9 43,20 13,11 19,26 19,44 0,21 -6,37 -18,51 -8,8 -21,14 -38,20 -1,1 -2,1 -1,2 5,15 19,34 39,56 11,12 19,21 24,26 9,9 16,15 22,20 8,6 19,9 31,9 2,0 3,0 3,1l0 6zm-94 -181c0,-17 -6,-30 -17,-41 -16,-15 -39,-22 -70,-22 -4,0 -7,1 -7,3 0,36 0,59 -1,68 0,0 0,14 0,43 0,1 1,2 3,2 3,1 11,1 25,1 5,0 12,0 19,-1 7,-1 10,-2 9,-2 26,-6 39,-23 39,-51z"/>
   <path class="fil2" d="M3280 522c0,1 0,1 -1,1l-92 0c-2,0 -2,0 -3,0 0,-1 0,-1 0,-2l0 -5c0,-2 0,-2 1,-2 0,-1 1,-1 1,-1l26 0c2,0 3,-2 3,-5l-1 -196c0,-24 -2,-36 -6,-36l-25 0c-1,0 -2,-1 -2,-2l0 -6c0,-1 0,-2 2,-2l92 0c1,0 2,1 2,2l0 7c0,1 -1,1 -2,1l-27 0c-2,0 -4,1 -4,4 0,115 0,174 0,178 0,18 0,29 0,32 1,15 4,23 8,23l27 0c1,0 1,1 1,2l0 7z"/>
   <path class="fil2" d="M3605 389c0,40 -10,71 -31,94 -7,8 -13,13 -18,17 -10,7 -23,14 -40,19 -13,4 -29,7 -50,7 -33,0 -58,-4 -75,-12 -12,-5 -22,-13 -30,-21 -10,-11 -18,-23 -22,-35 -6,-16 -8,-36 -8,-61 0,-17 2,-33 7,-48 7,-18 16,-34 28,-46 12,-12 29,-23 51,-31 16,-5 34,-8 53,-8 30,0 52,3 68,9 17,8 31,17 41,30 18,22 26,51 26,86zm-32 10c0,-18 -3,-34 -7,-47 -5,-16 -13,-30 -25,-42 -10,-10 -22,-18 -36,-24 -16,-6 -32,-9 -49,-9 -21,0 -36,3 -46,9 -17,11 -28,24 -35,37 -8,18 -13,39 -13,65 0,38 8,67 23,89 10,13 24,23 42,31 15,6 30,9 47,9 20,0 38,-4 54,-14 12,-8 23,-21 33,-39 8,-17 12,-39 12,-65z"/>
   <path class="fil2" d="M3520 182c-12,9 -72,48 -76,48l2 5c8,-5 69,-23 92,-18l-18 -35z"/>
  </g>
 </g>
</svg>
