<?xml version="1.0" encoding="UTF-8"?>
<!DOCTYPE svg PUBLIC "-//W3C//DTD SVG 1.1//EN" "http://www.w3.org/Graphics/SVG/1.1/DTD/svg11.dtd">
<!-- Creator: CorelDRAW X8 -->
<svg xmlns="http://www.w3.org/2000/svg" xml:space="preserve" width="4320px" height="1600px" version="1.1" style="shape-rendering:geometricPrecision; text-rendering:geometricPrecision; image-rendering:optimizeQuality; fill-rule:evenodd; clip-rule:evenodd"
viewBox="0 0 1542 571"
 xmlns:xlink="http://www.w3.org/1999/xlink">
 <defs>
  <style type="text/css">
   <![CDATA[
    .fil0 {fill:none}
    .fil1 {fill:black}
   ]]>
  </style>
 </defs>
 <g id="Capa_x0020_1">
  <metadata id="CorelCorpID_0Corel-Layer"/>
  <rect class="fil0" width="1542" height="571"/>
  <path class="fil1" d="M763 71c13,-4 28,-1 39,8 -33,13 -55,37 -54,71 2,43 92,30 99,89 7,58 -40,96 -100,118 24,-24 67,-79 58,-110 -10,-38 -83,-43 -103,-89 -11,-25 -5,-52 16,-68 8,-3 14,-4 20,-5 -10,13 -18,18 -20,46 8,-25 22,-52 45,-60zm245 337c-4,3 -26,18 -28,18l1 2c3,-2 25,-9 34,-7l-7 -13zm32 77c0,15 -4,27 -12,35 -2,3 -5,5 -6,7 -4,2 -9,5 -15,7 -5,1 -11,2 -19,2 -12,0 -21,-1 -28,-4 -4,-2 -8,-5 -11,-8 -4,-4 -7,-8 -8,-13 -2,-6 -3,-13 -3,-23 0,-6 1,-12 3,-18 2,-6 5,-12 10,-17 4,-4 11,-8 19,-11 6,-2 12,-3 20,-3 11,0 19,1 25,3 6,3 12,7 15,11 7,8 10,19 10,32zm-12 4c0,-7 -1,-13 -3,-18 -2,-6 -5,-11 -9,-15 -4,-4 -8,-7 -13,-9 -6,-2 -12,-3 -19,-3 -7,0 -13,1 -17,3 -6,4 -10,9 -13,14 -3,6 -4,14 -4,24 0,14 2,25 8,33 4,5 9,9 16,12 5,2 11,3 17,3 7,0 14,-2 20,-5 5,-3 9,-8 12,-15 3,-6 5,-14 5,-24zm-109 46c0,0 0,0 -1,0l-34 0c0,0 -1,0 -1,0 0,0 0,0 0,0l0 -2c0,-1 0,-1 0,-1 0,0 1,0 1,0l9 0c1,0 1,-1 1,-2l0 -73c0,-9 -1,-14 -2,-14l-9 0c-1,0 -1,0 -1,0l0 -3c0,0 0,-1 0,-1l35 0c0,0 1,1 1,1l0 3c0,0 -1,0 -1,0l-10 0c-1,0 -1,1 -1,2 -1,42 -1,65 -1,66 0,7 0,11 0,12 1,6 2,9 3,9l10 0c1,0 1,0 1,0l0 3zm-249 0l-19 0c-1,0 -1,0 -2,0 -2,-2 -5,-6 -10,-12 -3,-4 -5,-7 -8,-11 -3,-4 -7,-10 -12,-19 0,-1 -1,-2 -1,-2 -2,0 -6,0 -12,0 -1,-1 -1,0 -1,0 0,1 0,4 0,9 0,5 0,11 0,16 0,11 1,16 3,16l13 0c0,0 1,0 1,0l0 3c0,0 -1,0 -1,0l-38 0c-1,0 -1,0 -1,0 0,0 0,0 0,0l0 -2c0,-1 0,-1 0,-1 0,0 0,0 0,0l10 0c1,0 1,-1 1,-3l0 -37c0,-20 0,-29 0,-29 0,-13 -1,-20 -2,-20l-10 0c0,0 0,0 0,0l0 -3c0,0 0,-1 0,-1l22 0c1,0 3,0 8,0 5,0 8,0 8,0 4,0 7,0 10,0 6,2 12,4 16,8 5,4 7,10 7,16 0,8 -2,14 -7,19 -3,3 -8,6 -14,8 0,0 -1,0 -1,1 3,5 8,12 15,21 4,4 7,7 9,9 3,3 6,6 8,8 3,1 6,2 9,3l5 0c1,0 2,-3 4,-7 2,-4 8,-17 17,-38 6,-14 13,-30 21,-49 1,-1 1,-2 2,-2 1,-1 3,-1 5,-2 1,0 1,0 2,1 0,0 0,1 -1,2 -2,1 -2,3 -2,4 0,2 0,3 1,5 2,8 7,21 14,40 7,19 12,32 15,38 2,5 4,8 5,8l7 0c1,0 1,0 1,1l0 2c0,0 0,0 0,0l-35 0c0,0 0,0 0,0l0 -2c0,-1 0,-1 0,-1l11 0c0,0 1,-1 0,-2 0,-1 -2,-6 -5,-14 -3,-9 -4,-13 -5,-14 0,-1 0,-1 -1,-1l-36 0c0,0 -1,0 -1,1 -1,1 -2,4 -4,9 -1,4 -2,8 -3,9 -1,4 -1,6 -1,7 0,3 0,5 1,5l11 0c1,0 1,0 1,1l0 2c0,0 0,0 0,0l-25 0 -5 0 0 0zm-30 -68c0,-6 -2,-11 -7,-15 -5,-6 -14,-8 -25,-8 -2,0 -3,0 -3,1 0,13 0,22 0,25 0,0 0,5 0,16 0,1 0,1 1,1 1,0 4,0 9,0 2,0 4,0 7,0 2,-1 4,-1 3,-1 10,-2 15,-9 15,-19zm-78 18c0,15 -4,27 -12,35 -3,3 -5,5 -7,7 -4,2 -8,5 -14,7 -5,1 -12,2 -19,2 -13,0 -22,-1 -28,-4 -5,-2 -8,-5 -12,-8 -3,-4 -6,-8 -8,-13 -2,-6 -3,-13 -3,-23 0,-6 1,-12 3,-18 2,-6 6,-12 10,-17 5,-4 11,-8 20,-11 5,-2 12,-3 19,-3 11,0 20,1 26,3 6,3 11,7 15,11 6,8 10,19 10,32zm-13 4c0,-7 0,-13 -2,-18 -2,-6 -5,-11 -9,-15 -4,-4 -8,-7 -14,-9 -6,-2 -12,-3 -18,-3 -8,0 -14,1 -17,3 -6,4 -11,9 -13,14 -3,6 -5,14 -5,24 0,14 3,25 9,33 3,5 8,9 15,12 6,2 11,3 18,3 7,0 14,-2 20,-5 4,-3 9,-8 12,-15 3,-6 4,-14 4,-24zm993 29c-1,3 -1,13 -3,17 0,0 -1,0 -2,0l-57 0c0,0 -1,0 -1,0l0 -3c0,0 0,0 1,0l11 0c1,0 2,-1 2,-2 0,0 0,-7 0,-22 0,-14 0,-21 0,-21 0,-1 0,-6 -1,-15 0,-9 0,-14 0,-15 0,-9 -1,-14 -3,-14l-9 0c0,0 -1,0 -1,-1l0 -2c0,0 1,-1 1,-1l53 0c1,0 3,0 4,0 2,0 3,0 3,0 0,0 0,0 0,1 0,2 -1,9 -2,12 -1,1 -1,2 -2,2 0,0 -1,0 -1,-1 -1,-12 -22,-9 -30,-9 0,0 -1,0 -1,1 0,0 0,12 0,35 0,1 0,1 1,1l26 0c0,0 1,0 1,-1 0,0 0,-1 1,-3 0,-2 0,-1 0,-2 0,-1 0,-1 1,-1l1 0c1,0 1,0 1,1 0,0 0,0 0,4 0,4 0,5 0,5 0,1 0,2 0,7 0,4 0,5 0,5 0,1 0,2 -1,2l-1 0c-1,0 -1,-1 -1,-1 0,-3 -1,-4 -1,-9 0,-1 -1,-1 -1,-1 -1,0 -11,0 -23,0 -12,-1 -3,-1 -3,-1 -1,0 -1,1 -1,2l0 26c0,12 1,17 4,17 24,0 29,-2 31,-11 0,-2 2,-2 3,-3 0,0 1,1 0,1zm-79 -78c0,0 0,1 -1,5 -1,1 -1,4 -2,6 0,1 0,1 -1,1 0,0 0,0 -1,0 0,-1 -1,-2 -2,-3 -2,-2 -4,-3 -8,-3 -1,0 -7,0 -17,-1 -11,-1 -5,-1 -6,-1 -1,0 -1,0 -1,1 0,2 -1,14 -1,34 0,1 1,2 2,2l27 0c0,0 1,0 1,-1 0,-2 0,-5 1,-9 0,0 0,-1 1,-1l1 0c1,0 1,1 1,2 0,0 0,2 0,6 -1,4 -1,6 -1,7 0,0 0,3 0,7 0,5 0,7 0,7 0,1 0,2 0,2l-2 0c0,0 -1,0 -1,-1 0,0 0,-2 0,-6 0,-4 0,-6 0,-6 0,0 -1,-1 -1,-1 -3,0 -6,0 -27,0 -1,0 -2,0 -2,1 0,0 0,8 0,25 0,12 2,19 4,19l14 0c1,0 1,0 1,0l0 3c0,0 0,0 -1,0l-39 0c0,0 0,0 0,0l0 -2c0,-1 0,-1 0,-1l9 0c1,0 1,-1 1,-2 1,-1 1,-16 1,-46l0 -25c0,-10 -1,-16 -3,-16l-9 0c-1,0 -1,0 -1,0l0 -3c0,0 0,-1 1,-1l23 0c1,0 8,1 21,1 5,0 17,-1 17,-1 1,0 1,1 1,1zm-82 95c0,0 0,0 0,0l-35 0c0,0 0,0 0,0 0,0 0,0 0,0l0 -2c0,-1 0,-1 0,-1 0,0 0,0 0,0l10 0c1,0 1,-1 1,-2l0 -73c0,-9 -1,-14 -3,-14l-9 0c0,0 -1,0 -1,0l0 -3c0,0 0,-1 1,-1l34 0c1,0 1,1 1,1l0 3c0,0 0,0 -1,0l-10 0c-1,0 -1,1 -1,2 0,42 0,65 0,66 0,7 0,11 0,12 0,6 1,9 3,9l10 0c0,0 0,0 0,0l0 3zm-52 -22c0,0 -1,10 -3,14 0,2 -1,4 -3,7 -1,1 -1,1 -2,1l-84 0c-1,0 -1,0 -1,-1l0 -3c0,-1 0,-1 1,-1l15 0c1,0 2,-1 2,-2 0,-1 0,-5 0,-13 0,-8 0,-25 0,-51 0,-27 0,-41 0,-42 0,-15 -1,-22 -4,-22l-11 0c-1,0 -2,0 -2,-1l0 -3c0,-1 1,-1 2,-1l54 0c1,0 1,0 1,0l0 4c0,1 0,1 0,1l-21 0c-1,0 -1,0 -2,1 0,1 0,18 -1,51 0,31 0,48 0,53 0,15 2,23 5,23 22,0 22,0 25,0 16,0 18,-6 25,-15 1,-2 2,-2 3,-2 0,1 1,1 1,2zm-163 -71c0,1 0,1 0,1l-11 0c-1,0 -2,1 -2,2 0,0 0,7 0,19 0,13 0,19 0,20 0,1 0,10 -1,26 0,16 0,24 0,25 0,2 0,3 -1,3 -1,0 -1,0 -2,-1 -4,-6 -19,-22 -42,-49 -8,-10 -18,-21 -29,-33 -1,-1 -2,-1 -2,0 0,1 0,10 -1,26 -1,17 -1,28 -1,32 0,12 1,19 4,19l11 0c0,0 0,0 0,0l0 3c0,0 0,0 0,0l-31 0c-1,0 -1,0 -1,0l0 -3c0,0 0,0 1,0l10 0c0,0 1,-1 1,-1l0 -11c0,-3 0,-14 1,-34 1,-19 1,-29 1,-30 0,-9 -3,-13 -10,-13l-5 0c-1,0 -1,0 -1,-1l0 -2c0,0 0,-1 1,-1l25 0c0,0 1,1 1,1 1,1 5,7 13,16 9,10 13,16 14,17 12,14 24,28 38,43 0,0 0,1 0,1 1,0 1,-1 1,-2 0,-1 0,-10 0,-25 0,-16 0,-25 0,-26 -1,-14 -3,-21 -6,-21l-11 0c0,0 -1,0 -1,-1l0 -2c0,0 1,-1 1,-1l34 0c1,0 1,1 1,1l0 2zm-301 80c0,0 0,0 -1,1 -3,4 -9,7 -18,10 -7,2 -15,3 -25,3 -9,0 -16,-1 -21,-2 -5,-2 -10,-5 -15,-10 -8,-7 -12,-18 -12,-34 0,-8 2,-17 7,-25 3,-7 9,-13 17,-18 10,-6 23,-9 38,-9 6,0 12,0 16,1 6,0 10,1 11,2 1,0 1,0 1,0 0,1 -1,3 -1,6 0,3 -1,5 -1,7 0,1 0,1 0,1 -1,0 -1,0 -1,-1 0,0 -1,-1 -1,-2 0,-1 -3,-2 -6,-5 -5,-2 -13,-3 -23,-3 -14,0 -24,3 -32,11 -9,9 -13,20 -13,33 0,14 4,25 14,34 4,4 9,6 14,8 4,1 10,2 17,2 6,0 11,-1 16,-4 5,-2 9,-5 11,-8 2,-2 3,-4 3,-6 0,-1 0,-1 0,-1 1,0 1,0 1,0 0,2 1,3 2,5 0,1 1,2 2,4zm-135 -28c-2,-5 -4,-11 -6,-18 -3,-7 -5,-14 -8,-21 0,0 0,-1 0,-1 0,0 -1,1 -1,1 -6,15 -10,25 -13,31 -3,6 -4,9 -4,9 0,0 0,1 0,1l32 0c0,0 0,-1 0,-2zm-289 -26c0,7 -2,14 -7,19 -5,5 -12,8 -22,8 -4,0 -10,-1 -16,-3 0,0 0,0 0,1l0 23c0,10 1,16 2,16l13 0c0,0 1,0 1,1l0 2c0,0 -1,0 -1,0l-37 0c0,0 0,0 0,0l0 -2c0,-1 0,-1 0,-1l10 0c1,0 1,-1 1,-2l0 -73c0,-8 -1,-13 -2,-13l-9 0c-1,0 -1,0 -1,0l0 -3c0,0 0,-1 1,-1l17 0c1,0 4,0 9,0 5,0 8,0 8,0 5,0 9,0 13,1 5,1 9,4 13,8 5,5 7,11 7,19zm-11 1c0,-6 -2,-12 -6,-16 -6,-6 -13,-8 -23,-8 -2,0 -4,0 -4,0 0,0 -1,0 -1,1 0,3 0,10 0,22 0,0 0,4 0,10 0,6 0,9 0,10 0,0 0,1 1,1 3,1 7,2 13,2 7,0 12,-2 15,-5 4,-4 5,-10 5,-17zm-66 66c0,0 0,0 0,0l-24 0c-1,0 -1,0 -2,0 -2,-2 -5,-6 -10,-12 -3,-4 -5,-7 -8,-11 -3,-4 -7,-10 -12,-19 0,-1 -1,-2 -1,-2 -2,0 -6,0 -12,0 -1,-1 -1,0 -1,0 0,1 0,4 0,9 0,5 0,11 0,16 0,11 1,16 3,16l13 0c0,0 1,0 1,0l0 3c0,0 0,0 -1,0l-38 0c-1,0 -1,0 -1,0 0,0 0,0 0,0l0 -2c0,-1 0,-1 0,-1 0,0 0,0 0,0l10 0c1,0 1,-1 1,-3l0 -37c0,-20 0,-29 0,-29 0,-13 -1,-20 -2,-20l-10 0c0,0 0,0 0,0l0 -3c0,0 0,-1 0,-1l22 0c1,0 3,0 8,0 5,0 8,0 8,0 4,0 7,0 10,0 6,2 12,4 16,8 5,4 7,10 7,16 0,8 -2,14 -7,19 -3,3 -8,6 -14,8 0,0 -1,0 0,1 2,5 7,12 14,21 4,4 7,7 9,9 3,3 6,6 8,8 3,2 7,3 12,3 1,0 1,0 1,0l0 3zm-35 -68c0,-6 -2,-11 -7,-15 -5,-6 -14,-8 -25,-8 -2,0 -3,0 -3,1 0,13 0,22 0,25 0,0 0,5 0,16 0,1 0,1 1,1 1,0 4,0 9,0 2,0 4,0 7,0 2,-1 4,-1 3,-1 10,-2 15,-9 15,-19zm-75 18c0,15 -4,27 -11,35 -3,3 -5,5 -7,7 -4,2 -9,5 -15,7 -5,1 -11,2 -19,2 -12,0 -21,-1 -28,-4 -4,-2 -8,-5 -11,-8 -4,-4 -6,-8 -8,-13 -2,-6 -3,-13 -3,-23 0,-6 1,-12 3,-18 2,-6 5,-12 10,-17 4,-4 11,-8 19,-11 6,-2 13,-3 20,-3 11,0 19,1 25,3 7,3 12,7 15,11 7,8 10,19 10,32zm-12 4c0,-7 -1,-13 -2,-18 -2,-6 -5,-11 -10,-15 -3,-4 -8,-7 -13,-9 -6,-2 -12,-3 -18,-3 -8,0 -14,1 -17,3 -7,4 -11,9 -14,14 -3,6 -4,14 -4,24 0,14 3,25 8,33 4,5 9,9 16,12 5,2 11,3 17,3 8,0 14,-2 20,-5 5,-3 9,-8 13,-15 3,-6 4,-14 4,-24zm-108 26c0,0 0,1 0,2 -6,5 -15,10 -27,14 -10,4 -22,5 -37,5 -13,0 -23,-1 -30,-3 -8,-3 -15,-7 -22,-14 -12,-11 -18,-28 -18,-50 0,-13 3,-25 10,-38 6,-10 14,-18 25,-25 15,-9 33,-14 56,-14 9,0 17,1 24,1 8,1 13,2 16,3 0,0 0,1 0,1 0,1 0,4 -1,9 0,4 -1,7 -1,10 0,1 0,1 -1,1 0,0 -1,0 -1,-1 0,0 0,-1 -1,-3 -1,-1 -4,-3 -9,-7 -8,-3 -19,-5 -34,-5 -19,0 -35,5 -46,17 -13,12 -19,28 -19,47 0,22 7,38 20,50 7,6 14,10 21,12 6,2 15,3 25,3 8,0 16,-2 23,-5 7,-3 13,-8 16,-13 3,-3 4,-6 4,-9 0,-1 0,-1 1,-1 0,0 0,0 1,1 0,2 1,4 2,6 1,2 2,4 3,6zm627 -120c-95,-5 -171,-84 -171,-181 0,-96 76,-175 171,-181l0 28c-80,6 -143,72 -143,153 0,81 63,148 143,154l0 27zm22 -362c95,6 170,85 170,181 0,97 -75,176 -170,181l0 -27c79,-6 142,-73 142,-154 0,-81 -63,-147 -142,-153l0 -28z"/>
 </g>
</svg>
