<?xml version="1.0" encoding="UTF-8"?>
<!DOCTYPE svg PUBLIC "-//W3C//DTD SVG 1.1//EN" "http://www.w3.org/Graphics/SVG/1.1/DTD/svg11.dtd">
<!-- Creator: CorelDRAW 2017 -->
<svg xmlns="http://www.w3.org/2000/svg" xml:space="preserve" width="2419px" height="2419px" version="1.1" style="shape-rendering:geometricPrecision; text-rendering:geometricPrecision; image-rendering:optimizeQuality; fill-rule:evenodd; clip-rule:evenodd"
viewBox="0 0 2419 2419"
 xmlns:xlink="http://www.w3.org/1999/xlink">
 <defs>
  <style type="text/css">
   <![CDATA[
    .fil0 {fill:none}
    .fil2 {fill:#0295AA}
    .fil5 {fill:#365558}
    .fil1 {fill:#4ACFD9}
    .fil6 {fill:#9BAAAB}
    .fil3 {fill:#CDD4D5}
    .fil4 {fill:#E6EAEA}
    .fil7 {fill:#F0353D}
   ]]>
  </style>
 </defs>
 <g id="Capa_x0020_1">
  <metadata id="CorelCorpID_0Corel-Layer"/>
  <rect class="fil0" width="2419" height="2419"/>
  <path class="fil1" d="M1949.06 425.64l-1217.2 0c-15.96,0 -28.89,12.93 -28.89,28.89l0 1479.13c0,15.95 12.93,28.89 28.89,28.89l1217.2 0c15.96,0 28.89,-12.94 28.89,-28.89l0 -1479.14c0,-15.95 -12.93,-28.88 -28.89,-28.88z"/>
  <path class="fil2" d="M731.86 425.64c-15.96,0 -28.89,12.93 -28.89,28.89l0 1479.13c0,15.95 12.93,28.89 28.89,28.89l616.31 0 0 -1536.91 -616.31 0z"/>
  <path class="fil3" d="M1610.1 687.57l-1140.16 0c-15.96,0 -28.89,12.93 -28.89,28.89l0 1078.53c0,7.66 3.04,15.01 8.46,20.43l292.74 292.74c5.42,5.42 12.76,8.47 20.43,8.47l847.42 0c15.96,0 28.89,-12.94 28.89,-28.89l0 -1371.28c0,-15.96 -12.93,-28.89 -28.89,-28.89z"/>
  <path class="fil4" d="M469.94 687.57c-15.96,0 -28.89,12.93 -28.89,28.89l0 1078.53c0,7.66 3.04,15.01 8.46,20.43l292.74 292.74c5.42,5.42 12.76,8.47 20.43,8.47l277.34 0 0 -1429.06 -570.08 0z"/>
  <path class="fil5" d="M1425.21 945.64l-754.98 0c-15.96,0 -28.89,-12.93 -28.89,-28.89 0,-15.95 12.93,-28.89 28.89,-28.89l754.98 0c15.96,0 28.89,12.94 28.89,28.89 0,15.96 -12.94,28.89 -28.89,28.89z"/>
  <path class="fil5" d="M1425.21 1192.16l-754.98 0c-15.96,0 -28.89,-12.93 -28.89,-28.89 0,-15.95 12.93,-28.89 28.89,-28.89l754.98 0c15.96,0 28.89,12.94 28.89,28.89 0,15.96 -12.94,28.89 -28.89,28.89z"/>
  <path class="fil5" d="M1425.21 1438.68l-754.98 0c-15.96,0 -28.89,-12.93 -28.89,-28.88 0,-15.96 12.93,-28.89 28.89,-28.89l754.98 0c15.96,0 28.89,12.93 28.89,28.89 0,15.95 -12.94,28.88 -28.89,28.88z"/>
  <path class="fil5" d="M1425.21 1685.21l-754.98 0c-15.96,0 -28.89,-12.93 -28.89,-28.89 0,-15.96 12.93,-28.89 28.89,-28.89l754.98 0c15.96,0 28.89,12.93 28.89,28.89 0,15.96 -12.94,28.89 -28.89,28.89z"/>
  <path class="fil6" d="M441.1 1794.99c0,7.51 2.88,14.9 8.41,20.42l292.74 292.75c5.53,5.53 12.91,8.46 20.43,8.46l0 -292.74c0,-15.96 -12.93,-28.89 -28.89,-28.89l-292.69 0z"/>
  <path class="fil7" d="M1238.39 408.3c0,-58.41 -47.52,-105.92 -105.93,-105.92l-123.26 0c-58.41,0 -105.93,47.51 -105.93,105.92l0 508.45c0,58.41 47.52,105.93 105.93,105.93l46.22 0c58.41,0 105.93,-47.52 105.93,-105.93l0 -369.78c0,-15.95 -12.93,-28.89 -28.89,-28.89 -15.96,0 -28.89,12.94 -28.89,28.89l0 369.79c0,26.55 -21.6,48.14 -48.15,48.14l-46.22 0c-26.55,0 -48.15,-21.59 -48.15,-48.14l0 -508.46c0,-26.55 21.6,-48.15 48.15,-48.15l123.26 0c26.55,0 48.15,21.6 48.15,48.15l0 15.41 57.78 0 0 -15.41z"/>
 </g>
</svg>
