<?xml version="1.0" encoding="UTF-8"?>
<!DOCTYPE svg PUBLIC "-//W3C//DTD SVG 1.1//EN" "http://www.w3.org/Graphics/SVG/1.1/DTD/svg11.dtd">
<!-- Creator: CorelDRAW 2017 -->
<svg xmlns="http://www.w3.org/2000/svg" xml:space="preserve" width="2419px" height="2419px" version="1.1" style="shape-rendering:geometricPrecision; text-rendering:geometricPrecision; image-rendering:optimizeQuality; fill-rule:evenodd; clip-rule:evenodd"
viewBox="0 0 2419 2419"
 xmlns:xlink="http://www.w3.org/1999/xlink">
 <defs>
  <style type="text/css">
   <![CDATA[
    .fil0 {fill:none}
    .fil5 {fill:#1A2B63}
    .fil4 {fill:#293D7C}
    .fil14 {fill:#37C47A}
    .fil15 {fill:#445EA0}
    .fil7 {fill:#52BBEF}
    .fil6 {fill:#69CDFF}
    .fil11 {fill:#91E0E8}
    .fil3 {fill:#C3DDF4}
    .fil16 {fill:#D9EAFC}
    .fil12 {fill:#E26693}
    .fil2 {fill:#EEF6FF}
    .fil9 {fill:#EF8318}
    .fil1 {fill:#F24976}
    .fil8 {fill:#FF9518}
    .fil13 {fill:#FFAF10}
    .fil10 {fill:#FFD00D}
   ]]>
  </style>
 </defs>
 <g id="Capa_x0020_1">
  <metadata id="CorelCorpID_0Corel-Layer"/>
  <rect class="fil0" width="2419" height="2419"/>
  <circle class="fil1" cx="1248.48" cy="1248.48" r="868.15"/>
  <path class="fil2" d="M1158.68 1158.67c67.08,-67.07 156.26,-104 251.1,-104 64.62,0 126.59,17.15 180.75,49.29l0 -611.08 -1288.15 0 0 1122.96c0,19.49 15.94,35.43 35.43,35.43l811.68 0c-129.16,-139.07 -126.11,-357.29 9.19,-492.6z"/>
  <path class="fil3" d="M382.74 1615.84l0 -1122.96 -80.36 0 0 1122.96c0,19.49 15.94,35.43 35.43,35.43l80.37 0c-19.49,0 -35.44,-15.94 -35.44,-35.43z"/>
  <path class="fil4" d="M1570.28 302.38l-1247.65 0c-11.14,0 -20.25,9.11 -20.25,20.25l0 180.3 1288.15 0 0 -180.3c0,-11.14 -9.11,-20.25 -20.25,-20.25z"/>
  <path class="fil5" d="M403 302.38l-80.37 0c-11.14,0 -20.25,9.11 -20.25,20.25l0 180.3 80.36 0 0 -180.3c0,-11.14 9.11,-20.25 20.26,-20.25z"/>
  <path class="fil6" d="M863.16 935.29c0,9.74 -7.97,17.72 -17.72,17.72l-394.89 0c-9.75,0 -17.72,-7.98 -17.72,-17.72l0 -283.19c0,-9.74 7.97,-17.72 17.72,-17.72l394.89 0c9.74,0 17.72,7.98 17.72,17.72l0 283.19 0 0z"/>
  <path class="fil7" d="M513.2 935.29l0 -283.19c0,-9.74 7.97,-17.72 17.71,-17.72l-80.36 0c-9.75,0 -17.72,7.98 -17.72,17.72l0 283.19c0,9.74 7.97,17.72 17.72,17.72l80.36 0c-9.74,0 -17.71,-7.98 -17.71,-17.72z"/>
  <path class="fil8" d="M1071.83 1300.88l-621.28 0c-9.75,0 -17.72,7.97 -17.72,17.72l0 169.41c0,9.74 7.97,17.71 17.72,17.71l617.43 0c-18.69,-67 -17.42,-138.45 3.85,-204.84z"/>
  <path class="fil9" d="M513.2 1488.01l0 -169.41c0,-9.75 7.97,-17.72 17.71,-17.72l-80.36 0c-9.75,0 -17.72,7.97 -17.72,17.72l0 169.41c0,9.74 7.97,17.71 17.72,17.71l80.36 0c-9.74,0 -17.71,-7.97 -17.71,-17.71z"/>
  <path class="fil10" d="M1071.83 1300.88l-128.62 0 0 204.84 124.77 0c-18.69,-67 -17.42,-138.45 3.85,-204.84z"/>
  <path class="fil11" d="M1438.95 660.96l-434.39 0c-14.67,0 -26.57,-11.9 -26.57,-26.58 0,-14.67 11.9,-26.57 26.57,-26.57l434.39 0c14.68,0 26.58,11.9 26.58,26.57 0,14.68 -11.9,26.58 -26.58,26.58z"/>
  <path class="fil11" d="M1438.95 767.17l-434.39 0c-14.67,0 -26.57,-11.9 -26.57,-26.58 0,-14.68 11.9,-26.58 26.57,-26.58l434.39 0c14.68,0 26.58,11.9 26.58,26.58 0,14.68 -11.9,26.58 -26.58,26.58z"/>
  <path class="fil11" d="M1438.95 873.37l-434.39 0c-14.67,0 -26.57,-11.89 -26.57,-26.57 0,-14.68 11.9,-26.58 26.57,-26.58l434.39 0c14.68,0 26.58,11.9 26.58,26.58 0,14.68 -11.9,26.57 -26.58,26.57z"/>
  <path class="fil11" d="M1438.95 979.58l-434.39 0c-14.67,0 -26.57,-11.9 -26.57,-26.57 0,-14.68 11.9,-26.58 26.57,-26.58l434.39 0c14.68,0 26.58,11.9 26.58,26.58 0,14.68 -11.9,26.57 -26.58,26.57z"/>
  <path class="fil11" d="M1363.5 1057.66l-930.67 0c-14.68,0 -26.58,11.89 -26.58,26.57 0,14.68 11.9,26.58 26.58,26.58l785.14 0c43.89,-28.28 93.38,-46.41 145.53,-53.15z"/>
  <path class="fil11" d="M1151.78 1165.78l-718.95 0c-14.68,0 -26.58,11.9 -26.58,26.58 0,14.67 11.9,26.57 26.58,26.57l677.47 0c11.91,-18.69 25.73,-36.51 41.48,-53.15z"/>
  <path class="fil12" d="M426.02 425.01c-7.01,0 -13.85,-2.83 -18.81,-7.76 -4.93,-4.96 -7.76,-11.8 -7.76,-18.81 0,-6.99 2.83,-13.82 7.76,-18.78 4.96,-4.96 11.8,-7.8 18.81,-7.8 6.99,0 13.86,2.83 18.78,7.8 4.97,4.96 7.8,11.8 7.8,18.78 0,7.01 -2.83,13.85 -7.8,18.81 -4.92,4.93 -11.8,7.76 -18.78,7.76z"/>
  <path class="fil13" d="M513.18 425.01c-6.99,0 -13.86,-2.83 -18.79,-7.8 -4.96,-4.92 -7.79,-11.76 -7.79,-18.77 0,-6.99 2.83,-13.82 7.79,-18.78 4.96,-4.96 11.8,-7.8 18.79,-7.8 7.01,0 13.85,2.83 18.81,7.8 4.93,4.96 7.76,11.8 7.76,18.78 0,6.98 -2.84,13.85 -7.76,18.77 -4.96,4.97 -11.8,7.8 -18.81,7.8z"/>
  <path class="fil14" d="M600.36 425.01c-7.01,0 -13.85,-2.83 -18.78,-7.76 -4.96,-4.96 -7.79,-11.8 -7.79,-18.81 0,-6.99 2.83,-13.82 7.79,-18.78 4.93,-4.96 11.77,-7.8 18.78,-7.8 6.98,0 13.86,2.83 18.78,7.8 4.96,4.96 7.8,11.8 7.8,18.78 0,7.01 -2.84,13.85 -7.8,18.81 -4.96,4.93 -11.8,7.76 -18.78,7.76z"/>
  <path class="fil15" d="M1754.37 1681.51l-72.84 72.84 143.29 143.29c25.69,-22.82 50.01,-47.15 72.84,-72.84l-143.29 -143.29z"/>
  <path class="fil4" d="M1783.28 1637.59l-60.36 -60.36c-16.05,30.07 -36.73,58.31 -62.05,83.63 -25.04,25.04 -53.16,45.87 -83.51,62.15l60.25 60.25c6.89,6.89 18.17,6.89 25.06,0l120.61 -120.61c6.89,-6.89 6.89,-18.17 0,-25.06z"/>
  <path class="fil5" d="M1678.95 1741.92l-51.52 -51.52c-15.84,12.33 -32.59,23.23 -50.07,32.61l60.25 60.25c6.89,6.89 18.16,6.89 25.06,0l41.34 -41.34c-6.89,6.89 -18.17,6.89 -25.06,0z"/>
  <path class="fil15" d="M1665.88 1153.66c141.44,141.44 141.44,370.76 0,512.21 -141.43,141.43 -370.76,141.43 -512.21,0 -141.44,-141.45 -141.43,-370.77 0,-512.21 141.45,-141.44 370.78,-141.45 512.21,0z"/>
  <path class="fil6" d="M1589.35 1589.33c-99.17,99.17 -259.96,99.17 -359.14,-0.01 -99.17,-99.16 -99.17,-259.96 0,-359.13 99.17,-99.16 259.97,-99.16 359.13,0 99.18,99.18 99.18,259.97 0.01,359.14z"/>
  <path class="fil7" d="M1589.35 1589.33c9.03,-9.04 17.21,-18.59 24.6,-28.55 -99.41,73.72 -240.44,65.53 -330.59,-24.61 -90.14,-90.13 -98.32,-231.17 -24.6,-330.58 -9.97,7.39 -19.52,15.58 -28.55,24.6 -99.17,99.17 -99.16,259.97 0,359.13 99.18,99.18 259.97,99.18 359.14,0.01z"/>
  <path class="fil15" d="M1570.28 302.38l-857.18 0 0 200.55 877.43 0 0 -180.3c0,-11.14 -9.11,-20.25 -20.25,-20.25z"/>
  <circle class="fil16" cx="1453.4" cy="1239.73" r="42.52"/>
  <circle class="fil16" cx="1542.73" cy="1283.91" r="30.12"/>
 </g>
</svg>
