<?xml version="1.0" encoding="UTF-8"?>
<!DOCTYPE svg PUBLIC "-//W3C//DTD SVG 1.1//EN" "http://www.w3.org/Graphics/SVG/1.1/DTD/svg11.dtd">
<!-- Creator: CorelDRAW 2017 -->
<svg xmlns="http://www.w3.org/2000/svg" xml:space="preserve" width="2419px" height="2419px" version="1.1" style="shape-rendering:geometricPrecision; text-rendering:geometricPrecision; image-rendering:optimizeQuality; fill-rule:evenodd; clip-rule:evenodd"
viewBox="0 0 2419 2419"
 xmlns:xlink="http://www.w3.org/1999/xlink">
 <defs>
  <style type="text/css">
   <![CDATA[
    .fil0 {fill:none}
    .fil6 {fill:#1D83D4}
    .fil3 {fill:#2196F3}
    .fil4 {fill:#546D79}
    .fil1 {fill:#607D8B}
    .fil5 {fill:#DEDEDE}
    .fil2 {fill:white}
   ]]>
  </style>
 </defs>
 <g id="Capa_x0020_1">
  <metadata id="CorelCorpID_0Corel-Layer"/>
  <rect class="fil0" width="2419" height="2419"/>
  <path class="fil1" d="M1889.84 377.97l-1360.68 0c-125.04,0 -226.78,101.75 -226.78,226.78l0 1209.5c0,125.03 101.74,226.78 226.78,226.78l1360.68 0c125.04,0 226.79,-101.75 226.79,-226.78l0 -1209.5c0,-125.03 -101.75,-226.78 -226.79,-226.78l0 0z"/>
  <path class="fil2" d="M1889.84 1889.84l-1360.68 0c-41.66,0 -75.6,-33.86 -75.6,-75.59l0 -1058.31 1511.88 0 0 1058.31c0,41.73 -33.95,75.59 -75.6,75.59l0 0z"/>
  <path class="fil3" d="M848.16 1641.9l642.55 -642.55c22.15,-22.15 102.35,58.05 80.2,80.2l-642.54 642.55c-11.11,11.04 -102.36,-58.05 -80.21,-80.2z"/>
  <path class="fil3" d="M1490.71 1722.03l-642.55 -642.55c-22.15,-22.15 57.98,-102.28 80.13,-80.13l642.55 642.55c22.15,22.15 -69.09,91.24 -80.13,80.13z"/>
  <path class="fil3" d="M1058.31 1814.25l-226.78 0c-41.8,0 -75.59,-33.79 -75.59,-75.59l0 -226.78c0,-30.54 18.37,-58.21 46.64,-69.85 28.35,-11.72 60.78,-5.14 82.4,16.4l226.78 226.78c21.62,21.62 28.12,54.13 16.4,82.4 -11.64,28.27 -39.31,46.64 -69.85,46.64l0 0z"/>
  <path class="fil3" d="M1587.47 1285.09c-19.66,0 -39.01,-7.71 -53.45,-22.15l-226.78 -226.78c-21.62,-21.62 -28.12,-54.12 -16.4,-82.39 11.64,-28.2 39.31,-46.64 69.85,-46.64l226.78 0c41.8,0 75.59,33.79 75.59,75.59l0 226.78c0,30.54 -18.37,58.21 -46.64,69.85 -9.37,3.93 -19.2,5.74 -28.95,5.74z"/>
  <path class="fil3" d="M1663.06 1511.88l0 226.78c0,41.8 -33.79,75.59 -75.59,75.59l-226.78 0c-30.54,0 -58.21,-18.37 -69.85,-46.64 -11.72,-28.35 -5.14,-60.78 16.4,-82.4l226.78 -226.78c21.62,-21.62 54.13,-28.12 82.4,-16.4 28.27,11.64 46.64,39.31 46.64,69.85l0 0z"/>
  <path class="fil3" d="M1133.91 982.72c0,19.65 -7.71,39.01 -22.15,53.44l-226.78 226.78c-21.62,21.62 -54.13,28.12 -82.4,16.41 -28.2,-11.64 -46.64,-39.31 -46.64,-69.85l0 -226.78c0,-41.81 33.87,-75.59 75.59,-75.59l226.78 0c30.54,0 58.13,18.36 69.85,46.64 3.93,9.37 5.75,19.2 5.75,28.95l0 0z"/>
  <path class="fil4" d="M1209.5 377.97l-680.34 0c-125.04,0 -226.78,101.75 -226.78,226.78l0 1209.5c0,125.03 101.74,226.78 226.78,226.78l680.34 0 0 -151.19 -680.34 0c-41.66,0 -75.6,-33.86 -75.6,-75.59l0 -1058.31 755.94 0 0 -377.97z"/>
  <path class="fil5" d="M1209.5 755.94l-755.94 0 0 1058.31c0,41.73 33.95,75.59 75.6,75.59l680.34 0 0 -448.95 -171.07 171.07 73.33 73.33c21.62,21.62 28.12,54.12 16.4,82.39 -11.64,28.2 -39.31,46.57 -69.85,46.57l-226.78 0c-41.8,0 -75.59,-33.79 -75.59,-75.59l0 -226.78c0,-30.54 18.37,-58.21 46.64,-69.85 9.37,-3.86 19.2,-5.75 28.88,-5.75 19.73,0 39,7.71 53.52,22.15l73.32 73.33 171 -171.07 -171.07 -171.07 -73.33 73.32c-14.36,14.44 -33.71,22.15 -53.37,22.15 -9.75,0 -19.58,-1.89 -28.95,-5.74 -28.2,-11.64 -46.64,-39.31 -46.64,-69.85l0 -226.78c0,-41.81 33.86,-75.59 75.59,-75.59l226.78 0c30.54,0 58.13,18.36 69.85,46.64 3.93,9.37 5.75,19.2 5.75,28.95 0,19.65 -7.71,39 -22.15,53.44l-73.33 73.33 171.07 170.99 0 -524.54z"/>
  <polygon class="fil6" points="1129.29,1360.69 958.23,1531.76 1038.43,1611.96 1209.5,1440.89 "/>
  <polygon class="fil6" points="1038.43,1109.49 958.3,1189.62 1129.29,1360.69 1209.5,1440.89 1209.5,1280.48 "/>
  <path class="fil6" d="M831.45 1436.28c-9.75,0 -19.5,1.89 -28.87,5.75 -28.27,11.64 -46.64,39.31 -46.64,69.85l0 226.78c0,41.8 33.79,75.59 75.59,75.59l226.78 0c30.54,0 58.13,-18.37 69.85,-46.64 11.72,-28.27 5.22,-60.78 -16.4,-82.4l-73.33 -73.32 -80.2 -80.21 -73.33 -73.32c-14.44,-14.37 -33.71,-22.08 -53.44,-22.08l-0.01 0z"/>
  <path class="fil6" d="M1058.31 907.13l-226.78 0c-41.73,0 -75.59,33.79 -75.59,75.59l0 226.78c0,30.54 18.44,58.21 46.64,69.85 9.37,3.85 19.2,5.74 28.95,5.74 19.66,0 39.01,-7.71 53.45,-22.15l73.32 -73.32 80.21 -80.21 73.32 -73.32c14.37,-14.36 22.08,-33.72 22.08,-53.37 0,-9.75 -1.82,-19.58 -5.75,-28.95 -11.64,-28.28 -39.31,-46.64 -69.85,-46.64z"/>
 </g>
</svg>
