<?xml version="1.0" encoding="UTF-8"?>
<!DOCTYPE svg PUBLIC "-//W3C//DTD SVG 1.1//EN" "http://www.w3.org/Graphics/SVG/1.1/DTD/svg11.dtd">
<!-- Creator: CorelDRAW 2017 -->
<svg xmlns="http://www.w3.org/2000/svg" xml:space="preserve" width="1209px" height="1209px" version="1.1" style="shape-rendering:geometricPrecision; text-rendering:geometricPrecision; image-rendering:optimizeQuality; fill-rule:evenodd; clip-rule:evenodd"
viewBox="0 0 819.22 819.22"
 xmlns:xlink="http://www.w3.org/1999/xlink">
 <defs>
  <style type="text/css">
   <![CDATA[
    .fil0 {fill:none}
    .fil5 {fill:black}
    .fil1 {fill:#514E73}
    .fil2 {fill:#D4E9FF}
    .fil4 {fill:#ED4C74}
    .fil3 {fill:#FFE985}
   ]]>
  </style>
 </defs>
 <g id="Capa_x0020_1">
  <metadata id="CorelCorpID_0Corel-Layer"/>
  <rect class="fil0" width="819.22" height="819.22"/>
  <g id="_2602160763904">
   <path class="fil1" d="M641.66 177.57c84.36,84.37 84.36,221.15 0,305.53 -78.64,78.62 -202.81,83.98 -287.63,16.03 -6.19,-4.96 -12.17,-10.3 -17.9,-16.03 -5.74,-5.74 -11.08,-11.72 -16.04,-17.91 -67.94,-84.82 -62.59,-208.99 16.04,-287.62 84.37,-84.37 221.15,-84.37 305.53,0z"/>
   <path class="fil2" d="M607.7 211.52c-65.74,-65.76 -172.22,-65.41 -237.7,0.07 -12.71,12.76 -23.42,27.41 -31.75,44.28 -0.01,0.01 -0.02,0.03 -0.02,0.06 -30.33,60.04 -21.56,139.82 31.85,193.21 81.93,81.95 220.39,57.63 269.91,-45.31 6.2,-12.73 7.09,-17.55 7.46,-17.93 20.7,-59.56 7.02,-127.61 -39.75,-174.38z"/>
   <polygon class="fil3" points="320.09,465.19 268.23,517.04 302.18,550.99 354.03,499.13 "/>
   <path class="fil4" d="M302.18 550.99c9.38,9.38 9.38,24.57 0,33.95l-105.81 105.8c-18.75,18.76 -49.14,18.76 -67.88,0 -18.76,-18.75 -18.76,-49.14 0,-67.89l105.8 -105.81c9.37,-9.37 24.57,-9.37 33.94,0l33.95 33.95z"/>
   <path class="fil5" d="M639.22 429.42c44.78,-67.87 39.28,-160.39 -19.81,-223.09 -59,-61.84 -149.66,-71.33 -216.73,-34.07 -5.79,3.22 -7.88,10.53 -4.66,16.32 3.22,5.8 10.53,7.88 16.32,4.66 61.34,-34.08 138.53,-21.88 187.65,29.61 50.69,53.77 56.39,133.93 17.18,193.36 -54.01,82.03 -170.66,94.4 -240.6,24.44 -47.13,-47.11 -60.79,-123.09 -26.74,-184.91 3.19,-5.81 1.07,-13.11 -4.73,-16.31 -5.81,-3.19 -13.11,-1.07 -16.31,4.73 -0.73,1.34 -2.04,3.84 -3.3,6.39l0 0c-34.91,71.16 -19.03,153.97 34.1,207.08 80.58,80.59 215.18,66.64 277.63,-28.21z"/>
   <path class="fil5" d="M225.8 508.55l-105.8 105.81c-23.45,23.44 -23.47,61.41 0,84.86 23.45,23.46 61.41,23.47 84.86,0l105.81 -105.8c11.29,-11.29 13.32,-27.87 7.04,-40.98l37.4 -37.41c89.71,65.13 215.08,56.5 295.04,-23.45 88.9,-88.91 88.9,-233.58 -0.01,-322.5 -88.91,-88.9 -233.58,-88.9 -322.5,0 -79.96,79.97 -88.56,205.35 -23.45,295.04l-37.4 37.39c-13.11,-6.28 -29.7,-4.25 -40.99,7.04zm101.84 -16.97c2.82,2.82 5.74,5.58 8.71,8.26l-34.17 34.18 -16.97 -16.98 34.17 -34.17c2.69,2.98 5.44,5.89 8.26,8.71zm-33.94 84.87l-105.82 105.8c-14.06,14.08 -36.83,14.09 -50.91,0 -14.08,-14.07 -14.08,-36.84 0,-50.91l105.8 -105.81c4.68,-4.68 12.29,-4.68 16.97,0l33.96 33.95c4.68,4.68 4.68,12.29 0,16.97zm50.91 -390.4c79.55,-79.54 209,-79.55 288.56,0 79.55,79.56 79.55,209.01 0,288.56 -79.53,79.52 -208.37,80.2 -288.56,0 -80.09,-80.09 -79.61,-208.93 0,-288.56z"/>
   <path class="fil5" d="M361.9 220.31c4.71,4.38 12.08,4.27 16.67,-0.3 4.57,-4.59 4.68,-11.96 0.28,-16.68 -0.08,-0.1 -0.18,-0.2 -0.28,-0.31 -4.7,-4.68 -12.29,-4.68 -16.99,0 -4.68,4.7 -4.68,12.29 0,16.99 0.11,0.1 0.21,0.2 0.32,0.3z"/>
  </g>
 </g>
</svg>
