<?xml version="1.0" encoding="UTF-8"?>
<!DOCTYPE svg PUBLIC "-//W3C//DTD SVG 1.1//EN" "http://www.w3.org/Graphics/SVG/1.1/DTD/svg11.dtd">
<!-- Creator: CorelDRAW X8 -->
<svg xmlns="http://www.w3.org/2000/svg" xml:space="preserve" width="886px" height="886px" version="1.1" style="shape-rendering:geometricPrecision; text-rendering:geometricPrecision; image-rendering:optimizeQuality; fill-rule:evenodd; clip-rule:evenodd"
viewBox="0 0 658 658"
 xmlns:xlink="http://www.w3.org/1999/xlink">
 <defs>
  <style type="text/css">
   <![CDATA[
    .fil0 {fill:none}
    .fil2 {fill:black;fill-rule:nonzero}
    .fil1 {fill:#00BCD4;fill-rule:nonzero}
   ]]>
  </style>
 </defs>
 <g id="Capa_x0020_1">
  <metadata id="CorelCorpID_0Corel-Layer"/>
  <rect class="fil0" width="658" height="658"/>
  <path class="fil1" d="M491 550c2,0 3,0 5,-2 1,-1 2,-3 2,-5 0,-138 0,-276 0,-414 -31,-31 -62,-61 -92,-92l-17 0 -42 0 -231 0c-2,0 -4,1 -5,2 -1,1 -2,3 -2,5l0 499c0,2 1,4 2,5 1,2 3,2 5,2 125,0 250,0 375,0zm36 -7c0,10 -4,19 -11,26 -6,6 -15,10 -25,10 -125,0 -250,0 -375,0 -10,0 -19,-4 -26,-10 -6,-7 -10,-16 -10,-26l0 -499c0,-10 4,-19 10,-26 7,-6 16,-10 26,-10l302 0 109 109c0,142 0,284 0,426z"/>
  <path class="fil2" d="M447 80c36,0 69,15 92,39 24,23 39,56 39,92l0 25 -31 0 0 -25c0,-27 -12,-52 -30,-70 -18,-18 -43,-30 -70,-30 -28,0 -52,12 -71,30 -18,18 -29,43 -29,70l0 308c0,27 11,52 29,70 19,18 43,29 71,29 27,0 52,-11 70,-29 18,-18 30,-43 30,-70 0,-57 0,-114 0,-171 0,-16 -7,-32 -18,-43 -12,-11 -27,-18 -44,-18 -17,0 -32,7 -43,18 -11,11 -18,27 -18,43l0 116 -31 0 0 -116c0,-25 10,-48 27,-65 17,-17 40,-27 65,-27 26,0 49,10 66,27 16,17 27,40 27,65 0,57 0,114 0,171 0,36 -15,69 -39,92 -23,24 -56,39 -92,39 -36,0 -69,-15 -93,-39 -23,-23 -38,-56 -38,-92l0 -308c0,-36 15,-69 38,-92 24,-24 57,-39 93,-39z"/>
 </g>
</svg>
