<?xml version="1.0" encoding="UTF-8"?>
<!DOCTYPE svg PUBLIC "-//W3C//DTD SVG 1.1//EN" "http://www.w3.org/Graphics/SVG/1.1/DTD/svg11.dtd">
<!-- Creator: CorelDRAW X8 -->
<svg xmlns="http://www.w3.org/2000/svg" xml:space="preserve" width="681px" height="681px" version="1.1" style="shape-rendering:geometricPrecision; text-rendering:geometricPrecision; image-rendering:optimizeQuality; fill-rule:evenodd; clip-rule:evenodd"
viewBox="0 0 255 255"
 xmlns:xlink="http://www.w3.org/1999/xlink">
 <defs>
  <style type="text/css">
   <![CDATA[
    .str0 {stroke:#00BCD4;stroke-width:5.97778}
    .fil0 {fill:none}
    .fil1 {fill:#00BCD4;fill-rule:nonzero}
   ]]>
  </style>
 </defs>
 <g id="Capa_x0020_1">
  <metadata id="CorelCorpID_0Corel-Layer"/>
  <rect class="fil0" width="255" height="255"/>
  <path class="fil1 str0" d="M83 114c-16,0 -29,-6 -39,-16 -10,-10 -16,-24 -16,-39 0,-15 6,-29 16,-39 10,-10 23,-16 39,-16 15,0 29,6 39,16 10,10 16,24 16,39 0,15 -6,29 -16,39 -10,10 -24,16 -39,16zm117 43l6 6 -42 43 -6 6 -7 -6 -22 -22 7 -7 22 22 42 -42zm-150 -66c9,8 20,13 33,13 12,0 24,-5 32,-13 8,-8 13,-20 13,-32 0,-13 -5,-24 -13,-33 -8,-8 -20,-13 -32,-13 -13,0 -24,5 -33,13 -8,9 -13,20 -13,33 0,12 5,24 13,32zm33 37c-14,0 -27,5 -37,13 -9,7 -15,16 -19,27l72 0c1,-6 3,-12 6,-17 2,-5 5,-10 8,-14 -4,-3 -8,-5 -12,-6 -6,-2 -12,-3 -18,-3zm-43 6c12,-10 27,-15 43,-15 7,0 14,1 21,3 7,2 13,6 19,10l4 3 -4 4c-4,4 -7,10 -10,16 -3,5 -4,12 -5,18l0 4 -93 0 1 -6c4,-15 12,-28 24,-37zm129 117c-19,0 -37,-8 -50,-21 -13,-13 -21,-30 -21,-50 0,-20 8,-37 21,-50 13,-13 31,-21 50,-21 20,0 37,8 50,21 13,13 21,30 21,50 0,20 -8,37 -21,50 -13,13 -30,21 -50,21zm-43 -28c11,12 26,18 43,18 17,0 32,-6 44,-18 11,-11 18,-26 18,-43 0,-17 -7,-32 -18,-44 -12,-11 -27,-18 -44,-18 -17,0 -32,7 -43,18 -12,12 -18,27 -18,44 0,17 6,32 18,43z"/>
 </g>
</svg>
