<?xml version="1.0" encoding="UTF-8"?>
<svg xmlns="http://www.w3.org/2000/svg" xmlns:xlink="http://www.w3.org/1999/xlink" width="228.843201pt" height="228.843201pt" viewBox="0 0 228.843201 228.843201" version="1.1">
<g id="surface1">
<path style=" stroke:none;fill-rule:nonzero;fill:rgb(55%,55%,55%);fill-opacity:1;" d="M 114.421875 0 C 51.226562 0 0 51.230469 0 114.421875 C 0 177.617188 51.226562 228.84375 114.421875 228.84375 C 177.609375 228.84375 228.84375 177.617188 228.84375 114.421875 C 228.835938 51.230469 177.609375 0 114.421875 0 Z M 114.421875 207.390625 C 63.074219 207.390625 21.453125 165.769531 21.453125 114.421875 C 21.453125 63.074219 63.074219 21.460938 114.421875 21.460938 C 165.761719 21.460938 207.390625 63.074219 207.390625 114.421875 C 207.390625 165.769531 165.761719 207.390625 114.421875 207.390625 Z M 157.464844 100.121094 L 128.714844 100.121094 L 128.714844 71.511719 C 128.714844 67.566406 125.511719 64.363281 121.566406 64.363281 L 107.261719 64.363281 C 103.308594 64.363281 100.113281 67.566406 100.113281 71.511719 L 100.113281 100.121094 L 71.519531 100.121094 C 67.558594 100.121094 64.355469 103.324219 64.355469 107.269531 L 64.355469 121.574219 C 64.355469 125.527344 67.558594 128.722656 71.519531 128.722656 L 100.121094 128.722656 L 100.121094 157.265625 C 100.121094 161.210938 103.316406 164.410156 107.269531 164.410156 L 121.574219 164.410156 C 125.519531 164.410156 128.722656 161.210938 128.722656 157.265625 L 128.722656 128.722656 L 157.472656 128.722656 C 161.433594 128.722656 164.636719 125.527344 164.636719 121.574219 L 164.636719 107.269531 C 164.632812 103.328125 161.421875 100.121094 157.464844 100.121094 Z M 157.464844 100.121094 "/>
</g>
</svg>
