<?xml version="1.0" encoding="UTF-8"?>
<svg xmlns="http://www.w3.org/2000/svg" xmlns:xlink="http://www.w3.org/1999/xlink" width="228.843201pt" height="228.843201pt" viewBox="0 0 228.843201 228.843201" version="1.1">
<g id="surface1">
<path style=" stroke:none;fill-rule:nonzero;fill:rgb(50%,50%,50%);fill-opacity:1;" d="M 134.679688 114.339844 L 154.90625 94.113281 C 157.703125 91.3125 157.703125 86.792969 154.90625 84.003906 L 144.792969 73.882812 C 141.996094 71.09375 137.476562 71.089844 134.679688 73.882812 L 114.449219 94.113281 L 94.234375 73.898438 C 91.429688 71.09375 86.902344 71.09375 84.105469 73.882812 L 73.996094 84.003906 C 71.199219 86.792969 71.207031 91.328125 74.007812 94.121094 L 94.226562 114.339844 L 74.042969 134.519531 C 71.25 137.316406 71.25 141.835938 74.042969 144.632812 L 84.15625 154.75 C 86.953125 157.539062 91.472656 157.546875 94.269531 154.75 L 114.449219 134.570312 L 134.773438 154.902344 C 137.578125 157.703125 142.105469 157.703125 144.898438 154.910156 L 155.011719 144.796875 C 157.808594 142 157.800781 137.472656 155.003906 134.671875 Z M 114.421875 0.00390625 C 51.226562 0.00390625 0 51.230469 0 114.417969 C 0 177.613281 51.226562 228.839844 114.421875 228.839844 C 177.617188 228.839844 228.84375 177.613281 228.84375 114.417969 C 228.84375 51.234375 177.617188 0.00390625 114.421875 0.00390625 Z M 114.421875 207.386719 C 63.074219 207.386719 21.453125 165.765625 21.453125 114.417969 C 21.453125 63.070312 63.074219 21.449219 114.421875 21.449219 C 165.769531 21.449219 207.390625 63.070312 207.390625 114.417969 C 207.390625 165.765625 165.769531 207.386719 114.421875 207.386719 Z M 114.421875 207.386719 "/>
</g>
</svg>
