<svg height="512pt" viewBox="0 0 512.00356 512" width="512pt" xmlns="http://www.w3.org/2000/svg"><path d="m459.035156 185.382812c-4.875 0-8.828125-3.953124-8.828125-8.828124v-114.761719c0-9.75-7.902343-17.652344-17.652343-17.652344h-8.828126c-4.875 0-8.828124-3.953125-8.828124-8.828125s3.953124-8.828125 8.828124-8.828125h8.828126c19.5 0 35.308593 15.808594 35.308593 35.308594v114.761719c0 4.875-3.953125 8.828124-8.828125 8.828124zm0 0" fill="#802d40"/><path d="m512.003906 247.175781-.003906 246.5625c.140625 9.90625-7.746094 18.066407-17.652344 18.261719h-476.691406c-9.90625-.195312-17.792969-8.355469-17.65625-18.261719v-246.5625zm0 0" fill="#bbd1b5"/><path d="m479.90625 211.863281h-462.25c-9.738281.03125-17.625 7.917969-17.65625 17.65625v26.480469h512v-26.480469c0-9.710937-14.441406-17.65625-32.09375-17.65625zm0 0" fill="#46b29d"/><g fill="#24ae5f"><path d="m70.621094 423.726562c-10.847656.152344-21.460938-3.1875-30.269532-9.527343-8.445312-5.910157-13.589843-15.476563-13.867187-25.785157 0-4.875 3.953125-8.824218 8.828125-8.824218s8.828125 3.949218 8.828125 8.824218c.351563 4.730469 2.863281 9.03125 6.804687 11.664063 12.007813 7.617187 27.335938 7.617187 39.34375 0 4.207032-2.375 6.808594-6.832031 6.808594-11.664063 0-4.828124-2.601562-9.285156-6.808594-11.660156-5.761718-4.015625-12.644531-6.113281-19.667968-5.992187-10.847656.152343-21.460938-3.1875-30.269532-9.527344-8.660156-5.71875-13.875-15.402344-13.875-25.785156 0-10.378907 5.214844-20.066407 13.875-25.785157 18.308594-12.277343 42.222657-12.277343 60.53125 0 8.449219 5.914063 13.597657 15.476563 13.878907 25.785157 0 4.875-3.953125 8.828125-8.828125 8.828125s-8.828125-3.953125-8.828125-8.828125c-.351563-4.726563-2.863281-9.027344-6.804688-11.660157-12.011719-7.617187-27.335937-7.617187-39.347656 0-4.203125 2.375-6.804687 6.832032-6.804687 11.660157 0 4.832031 2.601562 9.289062 6.804687 11.660156 5.765625 4.019531 12.644531 6.117187 19.667969 5.996094 10.851562-.152344 21.464844 3.1875 30.269531 9.523437 8.664063 5.71875 13.878906 15.40625 13.878906 25.785156 0 10.382813-5.214843 20.070313-13.878906 25.785157-8.804687 6.34375-19.417969 9.683593-30.269531 9.527343zm0 0"/><path d="m70.621094 317.792969c-4.875 0-8.828125-3.949219-8.828125-8.824219v-17.65625c0-4.875 3.953125-8.828125 8.828125-8.828125s8.828125 3.953125 8.828125 8.828125v17.65625c0 4.875-3.953125 8.824219-8.828125 8.824219zm0 0"/><path d="m70.621094 441.382812c-4.875 0-8.828125-3.953124-8.828125-8.828124v-17.65625c0-4.875 3.953125-8.828126 8.828125-8.828126s8.828125 3.953126 8.828125 8.828126v17.65625c0 4.875-3.953125 8.828124-8.828125 8.828124zm0 0"/><path d="m264.828125 379.589844h-123.585937c-4.875 0-8.828126-3.953125-8.828126-8.828125s3.953126-8.828125 8.828126-8.828125h123.585937c4.875 0 8.828125 3.953125 8.828125 8.828125s-3.953125 8.828125-8.828125 8.828125zm0 0"/><path d="m264.828125 423.726562h-123.585937c-4.875 0-8.828126-3.953124-8.828126-8.828124s3.953126-8.828126 8.828126-8.828126h123.585937c4.875 0 8.828125 3.953126 8.828125 8.828126s-3.953125 8.828124-8.828125 8.828124zm0 0"/><path d="m264.828125 467.863281h-123.585937c-4.875 0-8.828126-3.953125-8.828126-8.828125s3.953126-8.828125 8.828126-8.828125h123.585937c4.875 0 8.828125 3.953125 8.828125 8.828125s-3.953125 8.828125-8.828125 8.828125zm0 0"/></g><path d="m450.207031 300.140625h-132.414062c-9.738281.027344-17.625 7.914063-17.652344 17.652344v35.3125c.027344 9.738281 7.914063 17.625 17.652344 17.65625h132.414062c9.742188-.03125 17.628907-7.917969 17.65625-17.65625v-35.3125c-.027343-9.738281-7.914062-17.625-17.65625-17.652344zm0 0" fill="#fff"/><path d="m467.863281 467.863281h-158.894531c-4.875 0-8.828125-3.953125-8.828125-8.828125s3.953125-8.828125 8.828125-8.828125h158.894531c4.875 0 8.828125 3.953125 8.828125 8.828125s-3.953125 8.828125-8.828125 8.828125zm0 0" fill="#24ae5f"/><path d="m361.933594 388.414062 26.480468 70.621094 26.484376-70.621094v-26.480468h-52.964844zm0 0" fill="#f0c419"/><path d="m361.933594 114.761719h52.964844v273.652343h-52.964844zm0 0" fill="#e64c3c"/><path d="m388.414062 0c19.503907 0 35.3125 15.8125 35.3125 35.3125v123.585938h-70.621093v-123.585938c0-19.5 15.808593-35.3125 35.308593-35.3125zm0 0" fill="#c03a2b"/></svg>