<?xml version="1.0" encoding="UTF-8"?>
<svg xmlns="http://www.w3.org/2000/svg" xmlns:xlink="http://www.w3.org/1999/xlink" width="409.598389pt" height="409.598389pt" viewBox="0 0 409.598389 409.598389" version="1.1">
<g id="surface1">
<path style=" stroke:none;fill-rule:nonzero;fill:rgb(71%,71%,71%);fill-opacity:1;" d="M 204.796875 409.597656 C 317.597656 409.597656 409.597656 317.597656 409.597656 204.800781 C 409.597656 92 317.597656 0 204.796875 0 C 92 0 0 92 0 204.800781 C 0 317.597656 92 409.597656 204.796875 409.597656 Z M 204.796875 409.597656 "/>
<path style=" stroke:none;fill-rule:nonzero;fill:rgb(100%,100%,100%);fill-opacity:1;" d="M 267.921875 55.941406 L 76.789062 133.324219 L 186.792969 405.050781 L 377.929688 327.671875 Z M 267.921875 55.941406 "/>
<path style=" stroke:none;fill-rule:nonzero;fill:rgb(54%,54%,54%);fill-opacity:1;" d="M 5.535156 49.335938 L 180.746094 49.335938 L 180.746094 258.699219 L 5.535156 258.699219 Z M 5.535156 49.335938 "/>
<path style=" stroke:none;fill-rule:nonzero;fill:rgb(79%,79%,79%);fill-opacity:1;" d="M 127.542969 258.699219 L 180.742188 258.699219 L 180.742188 91.238281 L 76.789062 133.324219 Z M 127.542969 258.699219 "/>
<path style=" stroke:none;fill-rule:nonzero;fill:rgb(40%,40%,40%);fill-opacity:1;" d="M 0 43.273438 L 175.210938 43.273438 L 175.210938 252.636719 L 0 252.636719 Z M 0 43.273438 "/>
<path style=" stroke:none;fill-rule:nonzero;fill:rgb(100%,100%,100%);fill-opacity:1;" d="M 20.898438 111.675781 L 38.9375 111.675781 C 41.378906 111.675781 43.378906 113.671875 43.378906 116.117188 L 43.378906 134.15625 C 43.378906 136.601562 41.382812 138.597656 38.9375 138.597656 L 20.898438 138.597656 C 18.453125 138.597656 16.457031 136.601562 16.457031 134.15625 L 16.457031 116.117188 C 16.457031 113.671875 18.453125 111.675781 20.898438 111.675781 Z M 20.898438 111.675781 "/>
<path style=" stroke:none;fill-rule:nonzero;fill:rgb(100%,100%,100%);fill-opacity:1;" d="M 55.867188 111.675781 L 73.910156 111.675781 C 76.351562 111.675781 78.347656 113.671875 78.347656 116.117188 L 78.347656 134.15625 C 78.347656 136.601562 76.351562 138.597656 73.910156 138.597656 L 55.867188 138.597656 C 53.425781 138.597656 51.425781 136.601562 51.425781 134.15625 L 51.425781 116.117188 C 51.425781 113.671875 53.425781 111.675781 55.867188 111.675781 Z M 55.867188 111.675781 "/>
<path style=" stroke:none;fill-rule:nonzero;fill:rgb(73%,73%,73%);fill-opacity:1;" d="M 90.835938 111.675781 L 108.878906 111.675781 C 111.320312 111.675781 113.320312 113.671875 113.320312 116.117188 L 113.320312 134.15625 C 113.320312 136.601562 111.320312 138.597656 108.878906 138.597656 L 90.835938 138.597656 C 88.394531 138.597656 86.398438 136.601562 86.398438 134.15625 L 86.398438 116.117188 C 86.398438 113.671875 88.394531 111.675781 90.835938 111.675781 Z M 90.835938 111.675781 "/>
<path style=" stroke:none;fill-rule:nonzero;fill:rgb(55%,55%,55%);fill-opacity:1;" d="M 125.808594 111.675781 L 143.847656 111.675781 C 146.292969 111.675781 148.292969 113.671875 148.292969 116.117188 L 148.292969 134.15625 C 148.292969 136.601562 146.292969 138.597656 143.847656 138.597656 L 125.808594 138.597656 C 123.367188 138.597656 121.367188 136.601562 121.367188 134.15625 L 121.367188 116.117188 C 121.367188 113.671875 123.363281 111.675781 125.808594 111.675781 Z M 125.808594 111.675781 "/>
<path style=" stroke:none;fill-rule:nonzero;fill:rgb(100%,100%,100%);fill-opacity:1;" d="M 20.898438 145.875 L 38.9375 145.875 C 41.378906 145.875 43.378906 147.875 43.378906 150.316406 L 43.378906 168.359375 C 43.378906 170.800781 41.382812 172.800781 38.9375 172.800781 L 20.898438 172.800781 C 18.453125 172.800781 16.457031 170.804688 16.457031 168.359375 L 16.457031 150.316406 C 16.457031 147.875 18.453125 145.875 20.898438 145.875 Z M 20.898438 145.875 "/>
<path style=" stroke:none;fill-rule:nonzero;fill:rgb(100%,100%,100%);fill-opacity:1;" d="M 55.867188 145.875 L 73.910156 145.875 C 76.351562 145.875 78.347656 147.875 78.347656 150.316406 L 78.347656 168.359375 C 78.347656 170.800781 76.351562 172.800781 73.910156 172.800781 L 55.867188 172.800781 C 53.425781 172.800781 51.425781 170.804688 51.425781 168.359375 L 51.425781 150.316406 C 51.425781 147.875 53.425781 145.875 55.867188 145.875 Z M 55.867188 145.875 "/>
<path style=" stroke:none;fill-rule:nonzero;fill:rgb(100%,100%,100%);fill-opacity:1;" d="M 90.835938 145.875 L 108.878906 145.875 C 111.320312 145.875 113.320312 147.875 113.320312 150.316406 L 113.320312 168.359375 C 113.320312 170.800781 111.320312 172.800781 108.878906 172.800781 L 90.835938 172.800781 C 88.394531 172.800781 86.398438 170.804688 86.398438 168.359375 L 86.398438 150.316406 C 86.398438 147.875 88.394531 145.875 90.835938 145.875 Z M 90.835938 145.875 "/>
<path style=" stroke:none;fill-rule:nonzero;fill:rgb(100%,100%,100%);fill-opacity:1;" d="M 125.808594 145.875 L 143.847656 145.875 C 146.292969 145.875 148.292969 147.875 148.292969 150.316406 L 148.292969 168.359375 C 148.292969 170.800781 146.292969 172.800781 143.847656 172.800781 L 125.808594 172.800781 C 123.367188 172.800781 121.367188 170.804688 121.367188 168.359375 L 121.367188 150.316406 C 121.367188 147.875 123.363281 145.875 125.808594 145.875 Z M 125.808594 145.875 "/>
<path style=" stroke:none;fill-rule:nonzero;fill:rgb(100%,100%,100%);fill-opacity:1;" d="M 20.898438 180.078125 L 38.9375 180.078125 C 41.378906 180.078125 43.378906 182.078125 43.378906 184.519531 L 43.378906 202.5625 C 43.378906 205 41.382812 207 38.9375 207 L 20.898438 207 C 18.453125 207 16.457031 205 16.457031 202.5625 L 16.457031 184.519531 C 16.457031 182.078125 18.453125 180.078125 20.898438 180.078125 Z M 20.898438 180.078125 "/>
<path style=" stroke:none;fill-rule:nonzero;fill:rgb(100%,100%,100%);fill-opacity:1;" d="M 55.867188 180.078125 L 73.910156 180.078125 C 76.351562 180.078125 78.347656 182.078125 78.347656 184.519531 L 78.347656 202.5625 C 78.347656 205 76.351562 207 73.910156 207 L 55.867188 207 C 53.425781 207 51.425781 205 51.425781 202.5625 L 51.425781 184.519531 C 51.425781 182.078125 53.425781 180.078125 55.867188 180.078125 Z M 55.867188 180.078125 "/>
<path style=" stroke:none;fill-rule:nonzero;fill:rgb(100%,100%,100%);fill-opacity:1;" d="M 90.835938 180.078125 L 108.878906 180.078125 C 111.320312 180.078125 113.320312 182.078125 113.320312 184.519531 L 113.320312 202.5625 C 113.320312 205 111.320312 207 108.878906 207 L 90.835938 207 C 88.394531 207 86.398438 205 86.398438 202.5625 L 86.398438 184.519531 C 86.398438 182.078125 88.394531 180.078125 90.835938 180.078125 Z M 90.835938 180.078125 "/>
<path style=" stroke:none;fill-rule:nonzero;fill:rgb(100%,100%,100%);fill-opacity:1;" d="M 125.808594 180.078125 L 143.847656 180.078125 C 146.292969 180.078125 148.292969 182.078125 148.292969 184.519531 L 148.292969 202.5625 C 148.292969 205 146.292969 207 143.847656 207 L 125.808594 207 C 123.367188 207 121.367188 205 121.367188 202.5625 L 121.367188 184.519531 C 121.367188 182.078125 123.363281 180.078125 125.808594 180.078125 Z M 125.808594 180.078125 "/>
<path style=" stroke:none;fill-rule:nonzero;fill:rgb(100%,100%,100%);fill-opacity:1;" d="M 20.898438 214.277344 L 38.9375 214.277344 C 41.378906 214.277344 43.378906 216.273438 43.378906 218.71875 L 43.378906 236.757812 C 43.378906 239.203125 41.382812 241.199219 38.9375 241.199219 L 20.898438 241.199219 C 18.453125 241.199219 16.457031 239.203125 16.457031 236.757812 L 16.457031 218.71875 C 16.457031 216.273438 18.453125 214.277344 20.898438 214.277344 Z M 20.898438 214.277344 "/>
<path style=" stroke:none;fill-rule:nonzero;fill:rgb(100%,100%,100%);fill-opacity:1;" d="M 55.867188 214.277344 L 73.910156 214.277344 C 76.351562 214.277344 78.347656 216.273438 78.347656 218.71875 L 78.347656 236.757812 C 78.347656 239.203125 76.351562 241.199219 73.910156 241.199219 L 55.867188 241.199219 C 53.425781 241.199219 51.425781 239.203125 51.425781 236.757812 L 51.425781 218.71875 C 51.425781 216.273438 53.425781 214.277344 55.867188 214.277344 Z M 55.867188 214.277344 "/>
<path style=" stroke:none;fill-rule:nonzero;fill:rgb(100%,100%,100%);fill-opacity:1;" d="M 90.835938 214.277344 L 108.878906 214.277344 C 111.320312 214.277344 113.320312 216.273438 113.320312 218.71875 L 113.320312 236.757812 C 113.320312 239.203125 111.320312 241.199219 108.878906 241.199219 L 90.835938 241.199219 C 88.394531 241.199219 86.398438 239.203125 86.398438 236.757812 L 86.398438 218.71875 C 86.398438 216.273438 88.394531 214.277344 90.835938 214.277344 Z M 90.835938 214.277344 "/>
<path style=" stroke:none;fill-rule:nonzero;fill:rgb(100%,100%,100%);fill-opacity:1;" d="M 125.808594 214.277344 L 143.847656 214.277344 C 146.292969 214.277344 148.292969 216.273438 148.292969 218.71875 L 148.292969 236.757812 C 148.292969 239.203125 146.292969 241.199219 143.847656 241.199219 L 125.808594 241.199219 C 123.367188 241.199219 121.367188 239.203125 121.367188 236.757812 L 121.367188 218.71875 C 121.367188 216.273438 123.363281 214.277344 125.808594 214.277344 Z M 125.808594 214.277344 "/>
<path style=" stroke:none;fill-rule:nonzero;fill:rgb(79%,79%,79%);fill-opacity:1;" d="M 11.902344 54.28125 L 163.304688 54.28125 L 163.304688 87.753906 L 11.902344 87.753906 Z M 11.902344 54.28125 "/>
<path style=" stroke:none;fill-rule:nonzero;fill:rgb(100%,100%,100%);fill-opacity:1;" d="M 147.730469 60.660156 C 149.628906 60.660156 151.359375 61.441406 152.617188 62.695312 L 152.621094 62.695312 L 152.621094 62.699219 C 153.875 63.957031 154.65625 65.6875 154.65625 67.585938 L 154.65625 72.644531 C 154.65625 74.550781 153.875 76.285156 152.621094 77.539062 C 151.367188 78.792969 149.636719 79.570312 147.730469 79.570312 C 145.828125 79.570312 144.097656 78.792969 142.84375 77.539062 L 142.839844 77.53125 C 141.585938 76.277344 140.808594 74.546875 140.808594 72.644531 L 140.808594 67.585938 C 140.808594 65.679688 141.589844 63.945312 142.839844 62.695312 C 144.09375 61.441406 145.828125 60.660156 147.734375 60.660156 Z M 150.867188 64.445312 L 150.867188 64.445312 C 150.0625 63.644531 148.953125 63.144531 147.730469 63.144531 C 146.511719 63.144531 145.402344 63.644531 144.597656 64.453125 C 143.789062 65.253906 143.289062 66.367188 143.289062 67.585938 L 143.289062 72.648438 C 143.289062 73.867188 143.789062 74.980469 144.59375 75.785156 C 145.398438 76.589844 146.507812 77.089844 147.730469 77.089844 C 148.949219 77.089844 150.058594 76.589844 150.863281 75.785156 C 151.671875 74.980469 152.167969 73.867188 152.167969 72.648438 L 152.167969 67.585938 C 152.167969 66.367188 151.671875 65.253906 150.867188 64.453125 L 150.863281 64.449219 Z M 150.867188 64.445312 "/>
<path style=" stroke:none;fill-rule:nonzero;fill:rgb(49%,49%,49%);fill-opacity:1;" d="M 218.167969 39.316406 L 223.851562 39.316406 L 223.851562 215.074219 L 218.167969 215.074219 Z M 218.167969 39.316406 "/>
<path style=" stroke:none;fill-rule:nonzero;fill:rgb(55%,55%,55%);fill-opacity:1;" d="M 223.851562 39.316406 L 229.535156 39.316406 L 229.535156 215.074219 L 223.851562 215.074219 Z M 223.851562 39.316406 "/>
<path style=" stroke:none;fill-rule:nonzero;fill:rgb(49%,49%,49%);fill-opacity:1;" d="M 229.535156 39.316406 L 235.222656 39.316406 L 235.222656 215.074219 L 229.535156 215.074219 Z M 229.535156 39.316406 "/>
<path style=" stroke:none;fill-rule:nonzero;fill:rgb(73%,73%,73%);fill-opacity:1;" d="M 226.703125 252.515625 L 235.222656 215.074219 L 218.167969 215.074219 Z M 226.703125 252.515625 "/>
<path style=" stroke:none;fill-rule:nonzero;fill:rgb(100%,100%,100%);fill-opacity:1;" d="M 218.167969 33.765625 L 235.222656 33.765625 L 235.222656 39.316406 L 218.167969 39.316406 Z M 218.167969 33.765625 "/>
<path style=" stroke:none;fill-rule:nonzero;fill:rgb(35%,35%,35%);fill-opacity:1;" d="M 223.71875 22.667969 L 229.671875 22.667969 C 232.722656 22.667969 235.222656 25.164062 235.222656 28.21875 L 235.222656 33.769531 L 218.167969 33.769531 L 218.167969 28.21875 C 218.167969 25.164062 220.664062 22.667969 223.71875 22.667969 Z M 223.71875 22.667969 "/>
<path style=" stroke:none;fill-rule:nonzero;fill:rgb(35%,35%,35%);fill-opacity:1;" d="M 226.355469 255.222656 L 227.066406 255.222656 L 229.902344 238.476562 L 223.542969 238.476562 Z M 226.355469 255.222656 "/>
<path style=" stroke:none;fill-rule:nonzero;fill:rgb(82%,82%,82%);fill-opacity:1;" d="M 191.582031 359.898438 L 268.007812 328.40625 L 269.078125 331.011719 L 192.652344 362.507812 Z M 180.160156 328.523438 L 181.230469 331.132812 L 286.574219 287.722656 L 285.503906 285.113281 Z M 185.871094 344.210938 L 186.941406 346.820312 L 292.285156 303.410156 L 291.214844 300.800781 Z M 185.871094 344.210938 "/>
<path style=" stroke:none;fill-rule:nonzero;fill:rgb(54%,54%,54%);fill-opacity:1;" d="M 220.960938 298.367188 L 216.636719 287.628906 L 205.953125 291.933594 L 204.144531 287.441406 L 214.828125 283.136719 L 210.519531 272.457031 L 215.066406 270.621094 L 219.375 281.304688 L 230.054688 277 L 231.863281 281.492188 L 221.179688 285.796875 L 225.507812 296.535156 Z M 220.960938 298.367188 "/>
<path style=" stroke:none;fill-rule:nonzero;fill:rgb(54%,54%,54%);fill-opacity:1;" d="M 266.925781 186.570312 L 266.925781 181.0625 L 288.644531 181.0625 L 288.644531 186.570312 Z M 266.925781 186.570312 "/>
<path style=" stroke:none;fill-rule:nonzero;fill:rgb(82%,82%,82%);fill-opacity:1;" d="M 287.242188 248.394531 C 288.269531 248.394531 289.085938 248.15625 289.683594 247.6875 C 290.289062 247.214844 290.726562 246.601562 291.035156 245.84375 C 291.332031 245.085938 291.519531 244.238281 291.597656 243.300781 C 291.664062 242.367188 291.707031 241.421875 291.707031 240.476562 C 291.707031 239.558594 291.664062 238.660156 291.578125 237.757812 C 291.496094 236.863281 291.308594 236.054688 291.011719 235.339844 C 290.710938 234.628906 290.273438 234.046875 289.683594 233.605469 C 289.105469 233.171875 288.308594 232.949219 287.296875 232.949219 C 286.300781 232.949219 285.5 233.164062 284.90625 233.597656 C 284.308594 234.03125 283.851562 234.601562 283.539062 235.316406 C 283.222656 236.03125 283.011719 236.84375 282.917969 237.757812 C 282.8125 238.675781 282.761719 239.609375 282.761719 240.570312 C 282.761719 241.503906 282.804688 242.433594 282.890625 243.359375 C 282.96875 244.292969 283.164062 245.128906 283.476562 245.875 C 283.785156 246.625 284.234375 247.230469 284.832031 247.695312 C 285.433594 248.164062 286.234375 248.394531 287.246094 248.394531 Z M 279.09375 240.546875 L 279.09375 240.546875 C 279.09375 238.886719 279.265625 237.382812 279.597656 236.039062 C 279.929688 234.695312 280.4375 233.554688 281.117188 232.609375 C 281.800781 231.675781 282.652344 230.953125 283.675781 230.441406 C 284.714844 229.941406 285.921875 229.6875 287.320312 229.6875 C 288.679688 229.6875 289.859375 229.933594 290.871094 230.417969 C 291.878906 230.910156 292.710938 231.625 293.375 232.550781 C 294.035156 233.476562 294.539062 234.617188 294.871094 235.960938 C 295.203125 237.3125 295.367188 238.835938 295.367188 240.546875 C 295.367188 244.152344 294.71875 246.890625 293.410156 248.769531 C 292.109375 250.644531 290.050781 251.582031 287.242188 251.582031 C 284.421875 251.582031 282.363281 250.644531 281.050781 248.769531 C 279.753906 246.886719 279.09375 244.148438 279.09375 240.546875 Z M 264.773438 229.386719 L 264.773438 229.386719 C 265.804688 229.386719 266.621094 229.152344 267.214844 228.671875 C 267.808594 228.207031 268.261719 227.585938 268.558594 226.835938 C 268.855469 226.078125 269.050781 225.222656 269.128906 224.253906 C 269.214844 223.292969 269.257812 222.320312 269.257812 221.34375 C 269.257812 220.460938 269.210938 219.585938 269.128906 218.699219 C 269.050781 217.820312 268.859375 217.023438 268.558594 216.316406 C 268.261719 215.609375 267.820312 215.042969 267.222656 214.597656 C 266.636719 214.15625 265.835938 213.933594 264.824219 213.933594 C 263.820312 213.933594 263.03125 214.15625 262.429688 214.589844 C 261.832031 215.015625 261.375 215.585938 261.058594 216.292969 C 260.742188 216.996094 260.539062 217.804688 260.4375 218.714844 C 260.335938 219.617188 260.28125 220.535156 260.28125 221.460938 C 260.28125 222.421875 260.324219 223.382812 260.410156 224.328125 C 260.496094 225.273438 260.691406 226.125 260.996094 226.871094 C 261.304688 227.617188 261.753906 228.222656 262.359375 228.691406 C 262.953125 229.148438 263.761719 229.386719 264.773438 229.386719 Z M 256.628906 221.539062 L 256.628906 221.539062 C 256.628906 219.878906 256.789062 218.375 257.121094 217.039062 C 257.453125 215.703125 257.972656 214.5625 258.660156 213.628906 C 259.347656 212.683594 260.207031 211.96875 261.238281 211.460938 C 262.265625 210.949219 263.472656 210.703125 264.867188 210.703125 C 266.222656 210.703125 267.390625 210.941406 268.394531 211.433594 C 269.398438 211.929688 270.230469 212.632812 270.90625 213.570312 C 271.570312 214.492188 272.0625 215.632812 272.394531 216.976562 C 272.726562 218.320312 272.894531 219.84375 272.894531 221.535156 C 272.894531 225.140625 272.242188 227.878906 270.9375 229.757812 C 269.640625 231.628906 267.582031 232.574219 264.773438 232.574219 C 261.96875 232.574219 259.910156 231.628906 258.59375 229.757812 C 257.28125 227.878906 256.628906 225.140625 256.628906 221.535156 Z M 259.339844 251.507812 L 290.753906 209.53125 L 292.828125 210.949219 L 261.660156 252.832031 Z M 259.339844 251.507812 "/>
<path style=" stroke:none;fill-rule:nonzero;fill:rgb(73%,73%,73%);fill-opacity:1;" d="M 314.167969 158.660156 L 309.175781 154.355469 C 306.71875 156.570312 304.414062 158.113281 302.265625 158.980469 C 300.117188 159.847656 297.652344 160.0625 294.890625 159.660156 C 292.113281 159.242188 289.367188 158.007812 286.613281 155.964844 L 289.953125 150.140625 C 292.984375 152.078125 295.546875 153.101562 297.652344 153.203125 C 300.636719 153.339844 303.078125 152.511719 304.976562 150.734375 L 289.3125 137.21875 C 287.011719 138.816406 284.339844 140.15625 281.296875 141.253906 C 279.046875 142.082031 276.765625 142.242188 274.453125 141.75 C 272.132812 141.25 269.988281 140.140625 267.992188 138.421875 C 264.449219 135.363281 262.660156 131.625 262.617188 127.21875 C 262.585938 124.273438 263.832031 120.996094 266.347656 117.410156 L 263.964844 115.355469 L 266.511719 112.40625 L 268.894531 114.460938 C 271.65625 111.8125 274.488281 110.269531 277.375 109.808594 C 281.058594 109.210938 284.679688 110.058594 288.230469 112.347656 L 284.621094 118.140625 C 282.394531 116.726562 280.339844 116.03125 278.480469 116.058594 C 276.625 116.070312 274.832031 116.753906 273.09375 118.085938 L 287.464844 130.484375 C 290.265625 128.53125 292.195312 127.308594 293.246094 126.796875 C 295.265625 125.835938 297.179688 125.296875 299.003906 125.167969 C 300.824219 125.027344 302.632812 125.28125 304.441406 125.921875 C 306.234375 126.558594 307.925781 127.558594 309.496094 128.910156 C 312.949219 131.886719 314.875 135.460938 315.300781 139.652344 C 315.714844 143.835938 314.5 147.734375 311.667969 151.359375 L 316.714844 155.714844 L 314.171875 158.664062 Z M 270.488281 120.980469 L 270.488281 120.980469 C 269.117188 123.164062 268.574219 125.363281 268.882812 127.5625 C 269.175781 129.765625 270.179688 131.601562 271.902344 133.085938 C 273.601562 134.554688 275.441406 135.3125 277.398438 135.355469 C 279.355469 135.394531 281.613281 134.539062 284.160156 132.773438 Z M 307.523438 147.785156 L 307.523438 147.785156 C 308.960938 145.640625 309.496094 143.316406 309.140625 140.804688 C 308.789062 138.308594 307.546875 136.132812 305.429688 134.304688 C 303.613281 132.738281 301.785156 131.9375 299.902344 131.878906 C 298.03125 131.832031 295.605469 132.851562 292.613281 134.921875 Z M 307.523438 147.785156 "/>
<path style=" stroke:none;fill-rule:nonzero;fill:rgb(82%,82%,82%);fill-opacity:1;" d="M 316.949219 280.5625 L 319.21875 272.566406 L 311.222656 270.292969 L 312.09375 267.21875 L 320.09375 269.492188 L 322.363281 261.496094 L 325.4375 262.367188 L 323.164062 270.367188 L 331.160156 272.636719 L 330.289062 275.710938 L 322.292969 273.4375 L 320.019531 281.4375 L 316.945312 280.5625 Z M 316.949219 280.5625 "/>
</g>
</svg>
