<?xml version="1.0" encoding="UTF-8"?>
<!DOCTYPE svg PUBLIC "-//W3C//DTD SVG 1.1//EN" "http://www.w3.org/Graphics/SVG/1.1/DTD/svg11.dtd">
<!-- Creator: CorelDRAW X8 -->
<svg xmlns="http://www.w3.org/2000/svg" xml:space="preserve" width="256px" height="256px" version="1.1" style="shape-rendering:geometricPrecision; text-rendering:geometricPrecision; image-rendering:optimizeQuality; fill-rule:evenodd; clip-rule:evenodd"
viewBox="0 0 50 50"
 xmlns:xlink="http://www.w3.org/1999/xlink">
 <defs>
  <style type="text/css">
   <![CDATA[
    .fil0 {fill:none}
    .fil5 {fill:black}
    .fil4 {fill:#595959}
    .fil3 {fill:#757575}
    .fil2 {fill:#BABABA}
    .fil1 {fill:#D8D8D8}
   ]]>
  </style>
 </defs>
 <g id="Capa_x0020_1">
  <metadata id="CorelCorpID_0Corel-Layer"/>
  <rect class="fil0" width="50.1067" height="50.1067"/>
  <g id="_2514618797296">
   <path class="fil1" d="M34 46l-18 0c-3,0 -5,-2 -5,-5l0 -28 28 0 0 28c0,3 -2,5 -5,5l0 0zm0 0z"/>
   <path class="fil2" d="M11 13l0 2 24 0c1,0 2,1 2,2l0 24c0,2 -2,3 -4,3l-19 0c-1,0 -2,0 -2,0 0,1 2,2 4,2l18 0c3,0 5,-2 5,-5l0 -28 -28 0zm0 0z"/>
   <path class="fil3" d="M39 13l-28 0c-1,0 -2,-1 -2,-2l0 -2c0,-1 1,-2 2,-2l28 0c1,0 2,1 2,2l0 2c0,1 -1,2 -2,2l0 0zm0 0z"/>
   <path class="fil4" d="M39 7l-3 0c1,0 2,1 2,2l0 2c0,1 -1,2 -2,2l3 0c1,0 2,-1 2,-2l0 -2c0,-1 -1,-2 -2,-2l0 0zm0 0z"/>
   <path class="fil3" d="M33 41c-1,0 -2,-1 -2,-2l0 -16c0,-1 1,-2 2,-2 1,0 2,1 2,2l0 16c0,1 -1,2 -2,2zm0 0z"/>
   <path class="fil3" d="M17 41c1,0 2,-1 2,-2l0 -16c0,-1 -1,-2 -2,-2 -1,0 -2,1 -2,2l0 16c0,1 1,2 2,2zm0 0z"/>
   <path class="fil3" d="M25 41c-1,0 -2,-1 -2,-2l0 -16c0,-1 1,-2 2,-2 1,0 2,1 2,2l0 16c0,1 -1,2 -2,2zm0 0z"/>
   <path class="fil5" d="M39 16c0,0 0,0 0,0l0 25c0,3 -3,5 -5,5l-18 0c-2,0 -4,-2 -4,-5l0 -25c0,0 -1,0 -1,0 0,0 -1,0 -1,0l0 25c0,3 3,6 6,6l18 0c3,0 6,-3 6,-6l0 -25c0,0 0,0 -1,0zm0 0z"/>
   <path class="fil5" d="M39 7l-7 0 -2 -3c0,0 -1,-1 -2,-1l-6 0c-1,0 -2,1 -2,1l-1 3 -8 0c-1,0 -3,1 -3,2l0 2c0,2 2,3 3,3l28 0c2,0 3,-1 3,-3l0 -2c0,-1 -1,-2 -3,-2l0 0zm-18 -2c0,0 0,-1 1,-1l6 0c1,0 1,1 1,1l1 2 -10 0 1 -2zm19 6c0,0 0,0 0,0 0,0 0,0 0,0 0,0 0,0 0,0l0 0c0,0 0,0 0,1 0,0 0,0 0,0l0 0c0,0 0,0 0,0 0,0 0,0 0,0l0 0c0,0 0,0 0,0l0 0c0,0 0,0 0,0l0 0c0,0 0,0 0,0l0 0c0,0 0,0 0,0l0 0c0,0 0,0 0,0l0 0c0,0 0,0 -1,0 0,0 0,0 0,0l0 0c0,0 0,0 0,0l0 0c0,0 0,0 0,0l0 0c0,0 0,0 0,0l0 0c0,0 0,0 0,0l0 0c0,0 0,0 0,0l0 0c0,0 0,0 0,0l0 0c0,0 0,0 0,0l-3 0 -25 0c-1,0 -1,0 -1,-1l0 -2c0,-1 0,-1 1,-1l-3 0 0 0c11,0 24,0 31,0 1,0 1,0 1,1l0 2z"/>
   <path class="fil5" d="M35 39l0 -16c0,-1 -1,-2 -2,-2 -1,0 -2,1 -2,2l0 16c0,2 1,3 2,3 1,0 2,-1 2,-3zm-3 0l0 -16c0,-1 0,-1 1,-1 1,0 1,0 1,1l0 16c0,1 0,1 -1,1 -1,0 -1,0 -1,-1zm0 0z"/>
   <path class="fil5" d="M19 39l0 -16c0,-1 -1,-2 -2,-2 -1,0 -2,1 -2,2l0 16c0,2 1,3 2,3 1,0 2,-1 2,-3zm-3 0l0 -16c0,-1 1,-1 1,-1 1,0 1,0 1,1l0 16c0,1 0,1 -1,1 0,0 -1,0 -1,-1zm0 0z"/>
   <path class="fil5" d="M27 39l0 -16c0,-1 -1,-2 -2,-2 -1,0 -2,1 -2,2l0 16c0,2 1,3 2,3 1,0 2,-1 2,-3zm-3 0l0 -16c0,-1 0,-1 1,-1 1,0 1,0 1,1l0 16c0,1 0,1 -1,1 -1,0 -1,0 -1,-1zm0 0z"/>
  </g>
 </g>
</svg>
