<?xml version="1.0" encoding="UTF-8"?>
<svg xmlns="http://www.w3.org/2000/svg" xmlns:xlink="http://www.w3.org/1999/xlink" width="409.600006pt" height="409.600006pt" viewBox="0 0 409.600006 409.600006" version="1.1">
<g id="surface1">
<path style=" stroke:none;fill-rule:nonzero;fill:rgb(58%,58%,58%);fill-opacity:1;" d="M 361.601562 264.800781 L 349.601562 264.800781 C 342.96875 264.800781 337.601562 259.433594 337.601562 252.800781 C 337.601562 246.167969 342.96875 240.800781 349.601562 240.800781 L 361.601562 240.800781 C 374.832031 240.800781 385.601562 230.03125 385.601562 216.800781 C 385.601562 210.390625 383.105469 204.367188 378.570312 199.832031 C 373.882812 195.144531 373.882812 187.550781 378.570312 182.863281 C 383.257812 178.175781 390.851562 178.175781 395.539062 182.863281 C 404.609375 191.933594 409.601562 203.980469 409.601562 216.800781 C 409.601562 243.273438 388.074219 264.800781 361.601562 264.800781 Z M 361.601562 264.800781 "/>
<path style=" stroke:none;fill-rule:nonzero;fill:rgb(81%,81%,81%);fill-opacity:1;" d="M 228.800781 120 L 168.800781 120 C 161.359375 120 153.921875 120.71875 145.519531 122.398438 C 129.679688 105.597656 107.039062 96 84 96 C 77.277344 96 72 101.277344 72 108 L 72 162.800781 C 57.601562 178.160156 47.039062 196.640625 41.277344 216.800781 L 36 216.800781 C 16.078125 216.800781 0 232.878906 0 252.800781 L 0 276.800781 C 0 296.71875 16.078125 312.800781 36 312.800781 L 50.398438 312.800781 C 58.558594 328.878906 70.078125 343.839844 84 355.359375 L 84 397.601562 C 84 404.320312 89.277344 409.601562 96 409.601562 L 144.800781 409.601562 C 151.519531 409.601562 156.800781 404.320312 156.800781 397.601562 L 156.800781 385.121094 C 160.878906 385.359375 164.722656 385.601562 168.800781 385.601562 L 228.800781 385.601562 L 228.800781 397.601562 C 228.800781 404.320312 234.078125 409.601562 240.800781 409.601562 L 288.800781 409.601562 C 295.519531 409.601562 300.800781 404.320312 300.800781 397.601562 L 300.800781 364.238281 C 338 340 361.601562 297.441406 361.601562 252.800781 C 361.601562 180.078125 301.519531 120 228.800781 120 Z M 228.800781 120 "/>
<path style=" stroke:none;fill-rule:nonzero;fill:rgb(74%,74%,74%);fill-opacity:1;" d="M 361.601562 252.800781 C 361.601562 297.441406 338 340 300.800781 364.238281 L 300.800781 397.601562 C 300.800781 404.320312 295.519531 409.601562 288.800781 409.601562 L 240.800781 409.601562 C 234.078125 409.601562 228.800781 404.320312 228.800781 397.601562 L 228.800781 385.601562 L 204.800781 385.601562 L 204.800781 120 L 228.800781 120 C 301.519531 120 361.601562 180.078125 361.601562 252.800781 Z M 361.601562 252.800781 "/>
<path style=" stroke:none;fill-rule:nonzero;fill:rgb(37%,37%,37%);fill-opacity:1;" d="M 95.882812 241.035156 C 89.25 241.035156 83.753906 235.550781 83.753906 228.917969 C 83.753906 222.285156 89.25 216.800781 95.882812 216.800781 C 102.515625 216.800781 108 222.285156 108 228.917969 C 108 235.550781 102.515625 241.035156 95.882812 241.035156 Z M 107.753906 228.917969 L 107.988281 228.917969 Z M 95.882812 228.917969 L 96.117188 228.917969 Z M 95.882812 228.917969 "/>
<path style=" stroke:none;fill-rule:nonzero;fill:rgb(75%,75%,75%);fill-opacity:1;" d="M 204.800781 120 C 171.71875 120 144.800781 93.082031 144.800781 60 C 144.800781 26.917969 171.71875 0 204.800781 0 C 237.882812 0 264.800781 26.917969 264.800781 60 C 264.800781 93.082031 237.882812 120 204.800781 120 Z M 204.800781 120 "/>
<path style=" stroke:none;fill-rule:nonzero;fill:rgb(37%,37%,37%);fill-opacity:1;" d="M 252.800781 192.800781 L 156.800781 192.800781 C 150.167969 192.800781 144.800781 187.433594 144.800781 180.800781 C 144.800781 174.167969 150.167969 168.800781 156.800781 168.800781 L 252.800781 168.800781 C 259.433594 168.800781 264.800781 174.167969 264.800781 180.800781 C 264.800781 187.433594 259.433594 192.800781 252.800781 192.800781 Z M 252.800781 192.800781 "/>
<path style=" stroke:none;fill-rule:nonzero;fill:rgb(34%,34%,34%);fill-opacity:1;" d="M 252.800781 168.800781 L 204.800781 168.800781 L 204.800781 192.800781 L 252.800781 192.800781 C 259.433594 192.800781 264.800781 187.433594 264.800781 180.800781 C 264.800781 174.167969 259.433594 168.800781 252.800781 168.800781 Z M 252.800781 168.800781 "/>
<path style=" stroke:none;fill-rule:nonzero;fill:rgb(67%,67%,67%);fill-opacity:1;" d="M 264.800781 60 C 264.800781 26.917969 237.882812 0 204.800781 0 L 204.800781 120 C 237.882812 120 264.800781 93.082031 264.800781 60 Z M 264.800781 60 "/>
</g>
</svg>
