<?xml version="1.0" encoding="UTF-8"?>
<!DOCTYPE svg PUBLIC "-//W3C//DTD SVG 1.1//EN" "http://www.w3.org/Graphics/SVG/1.1/DTD/svg11.dtd">
<!-- Creator: CorelDRAW X8 -->
<svg xmlns="http://www.w3.org/2000/svg" xml:space="preserve" width="1024px" height="1024px" version="1.1" style="shape-rendering:geometricPrecision; text-rendering:geometricPrecision; image-rendering:optimizeQuality; fill-rule:evenodd; clip-rule:evenodd"
viewBox="0 0 505 505"
 xmlns:xlink="http://www.w3.org/1999/xlink">
 <defs>
  <style type="text/css">
   <![CDATA[
    .fil0 {fill:none}
    .fil5 {fill:#808080}
    .fil4 {fill:#a9a9a9}
    .fil3 {fill:#b5b5b5}
    .fil2 {fill:#dadada}
    .fil1 {fill:#e8e8e8}
   ]]>
  </style>
 </defs>
 <g id="Capa_x0020_1">
  <metadata id="CorelCorpID_0Corel-Layer"/>
  <rect class="fil0" width="505" height="505"/>
  <g id="_2514613577392">
   <path class="fil1" d="M333 444l-161 0c-25,0 -46,-21 -46,-47l0 -252 253 0 0 252c0,26 -20,47 -46,47l0 0zm0 0z"/>
   <path class="fil2" d="M126 145l0 19 218 0c8,0 15,7 15,15l0 214c0,17 -14,31 -31,31l-176 0c-8,0 -15,-2 -21,-5 8,15 23,25 41,25l161 0c26,0 46,-21 46,-47l0 -252 -253 0zm0 0z"/>
   <path class="fil3" d="M380 145l-255 0c-9,0 -16,-7 -16,-15l0 -22c0,-9 7,-16 16,-16l255 0c9,0 16,7 16,16l0 22c0,8 -7,15 -16,15l0 0zm0 0z"/>
   <path class="fil4" d="M380 92l-25 0c9,0 16,7 16,16l0 22c0,8 -7,15 -16,15l25 0c9,0 16,-7 16,-15l0 -22c0,-9 -7,-16 -16,-16l0 0zm0 0z"/>
   <path class="fil3" d="M324 396c-8,0 -15,-7 -15,-16l0 -145c0,-9 7,-16 15,-16 9,0 16,7 16,16l0 145c0,9 -7,16 -16,16zm0 0z"/>
   <path class="fil3" d="M181 396c9,0 16,-7 16,-16l0 -145c0,-9 -7,-16 -16,-16 -9,0 -16,7 -16,16l0 145c0,9 7,16 16,16zm0 0z"/>
   <path class="fil3" d="M253 396c-9,0 -16,-7 -16,-16l0 -145c0,-9 7,-16 16,-16 8,0 15,7 15,16l0 145c0,9 -7,16 -15,16zm0 0z"/>
   <path class="fil5" d="M379 167c-3,0 -5,3 -5,6l0 224c0,23 -19,41 -41,41l-161 0c-22,0 -40,-18 -40,-41l0 -224c0,-3 -3,-6 -6,-6 -4,0 -6,3 -6,6l0 224c0,29 23,53 52,53l161 0c29,0 52,-24 52,-53l0 -224c0,-3 -2,-6 -6,-6zm0 0z"/>
   <path class="fil5" d="M380 86l-69 0 -10 -19c-4,-7 -11,-12 -19,-12l-59 0c-8,0 -15,5 -19,12l-10 19 -69 0c-12,0 -21,10 -21,22l0 22c0,11 9,21 21,21l255 0c12,0 22,-10 22,-21l0 -22c0,-12 -10,-22 -22,-22l0 0zm-165 -14c1,-3 5,-5 8,-5l59 0c4,0 7,2 9,5l7 14 -90 0 7 -14zm175 58c0,0 0,0 0,0 0,0 0,0 0,0 0,0 0,0 0,0l0 0c0,0 0,0 0,1 0,0 0,0 0,0l0 0c0,0 0,0 0,0 0,0 0,0 0,0l0 0c0,0 0,0 0,1l0 0c0,0 0,0 0,0l0 0c0,0 0,0 0,0l0 0c0,0 0,0 -1,0l0 0c0,1 0,1 0,1l0 0c-1,3 -3,5 -7,6 0,0 0,0 0,0l0 0c0,0 0,0 0,0l0 0c0,0 0,0 -1,0l0 0c0,0 0,0 0,0l0 0c0,0 0,0 0,0l0 0c0,0 0,0 0,0l0 0c0,0 0,0 -1,0l0 0c0,0 0,0 0,0l-28 0 -227 0c-5,0 -10,-4 -10,-9l0 -22c0,-6 5,-10 10,-10l-21 0 0 0c97,0 209,0 276,0 6,0 10,4 10,10l0 22z"/>
   <path class="fil5" d="M346 380l0 -145c0,-12 -10,-22 -22,-22 -12,0 -21,10 -21,22l0 145c0,12 9,22 21,22 12,0 22,-10 22,-22zm-32 0l0 -145c0,-6 5,-10 10,-10 6,0 10,4 10,10l0 145c0,6 -4,10 -10,10 -5,0 -10,-4 -10,-10zm0 0z"/>
   <path class="fil5" d="M202 380l0 -145c0,-12 -9,-22 -21,-22 -12,0 -21,10 -21,22l0 145c0,12 9,22 21,22 12,0 21,-10 21,-22zm-31 0l0 -145c0,-6 5,-10 10,-10 5,0 10,4 10,10l0 145c0,6 -5,10 -10,10 -5,0 -10,-4 -10,-10zm0 0z"/>
   <path class="fil5" d="M274 380l0 -145c0,-12 -10,-22 -21,-22 -12,0 -22,10 -22,22l0 145c0,12 10,22 22,22 11,0 21,-10 21,-22zm-31 0l0 -145c0,-6 4,-10 10,-10 5,0 9,4 9,10l0 145c0,6 -4,10 -9,10 -6,0 -10,-4 -10,-10zm0 0z"/>
  </g>
 </g>
</svg>
