<?xml version="1.0" encoding="UTF-8"?>
<!DOCTYPE svg PUBLIC "-//W3C//DTD SVG 1.1//EN" "http://www.w3.org/Graphics/SVG/1.1/DTD/svg11.dtd">
<!-- Creator: CorelDRAW X8 -->
<svg xmlns="http://www.w3.org/2000/svg" xml:space="preserve" width="326px" height="200px" version="1.1" style="shape-rendering:geometricPrecision; text-rendering:geometricPrecision; image-rendering:optimizeQuality; fill-rule:evenodd; clip-rule:evenodd"
viewBox="0 0 319 196"
 xmlns:xlink="http://www.w3.org/1999/xlink">
 <defs>
  <style type="text/css">
   <![CDATA[
    .str0 {stroke:#CCCCCC;stroke-width:0.0859296}
    .fil0 {fill:#FFCC00}
    .fil3 {fill:white}
    .fil1 {fill:black;fill-rule:nonzero}
    .fil2 {fill:#B3B3B3;fill-rule:nonzero}
   ]]>
  </style>
 </defs>
 <g id="Capa_x0020_1">
  <metadata id="CorelCorpID_0Corel-Layer"/>
  <rect class="fil0 str0" x="181" y="79" width="138" height="116" rx="27" ry="23"/>
  <path class="fil1" d="M181 113l-146 0c-6,0 -12,3 -17,7 -4,5 -7,11 -7,17 0,7 3,12 7,17 5,4 11,7 17,7l146 0 0 11 -146 0c-10,0 -18,-4 -25,-10 -6,-7 -10,-15 -10,-25 0,-10 4,-18 10,-25 7,-6 15,-10 25,-10l146 0 0 11z"/>
  <path class="fil2" d="M201 79l0 -31c0,-13 5,-25 14,-34 9,-9 20,-14 34,-14 13,0 25,5 33,14 9,9 14,21 14,34l0 11 -15 0 0 -11c0,-9 -4,-17 -10,-23 -5,-6 -14,-10 -22,-10 -9,0 -17,4 -23,10 -6,6 -10,14 -10,23l0 31 -12 0c-1,0 -2,0 -3,0z"/>
  <path class="fil3" d="M235 161l26 0 0 -1 -7 -21c5,-2 7,-7 7,-12 0,-7 -6,-13 -13,-13 -7,0 -13,6 -13,13 0,5 2,10 6,12l-6 22z"/>
  <path class="fil1" d="M28 136l3 -8c6,2 10,4 13,5 -1,-7 -1,-12 -1,-14l9 0c-1,4 -1,8 -2,14 4,-2 9,-4 14,-5l3 8c-5,2 -10,3 -15,3 3,2 6,6 10,11l-7 5c-2,-3 -5,-7 -8,-12 -3,5 -5,10 -8,12l-7 -5c5,-5 8,-9 10,-11 -5,-1 -10,-2 -14,-3z"/>
  <path class="fil1" d="M81 136l2 -8c7,2 11,4 14,5 -1,-7 -1,-12 -1,-14l8 0c0,4 0,8 -1,14 4,-2 9,-4 14,-5l3 8c-5,2 -10,3 -15,3 2,2 6,6 10,11l-7 5c-2,-3 -5,-7 -8,-12 -3,5 -6,10 -8,12l-7 -5c5,-5 8,-9 10,-11 -5,-1 -10,-2 -14,-3z"/>
  <path class="fil1" d="M133 136l3 -8c6,2 11,4 14,5 -1,-7 -1,-12 -1,-14l8 0c0,4 0,8 -1,14 4,-2 9,-4 14,-5l2 8c-5,2 -9,3 -14,3 2,2 6,6 10,11l-7 5c-2,-3 -5,-7 -8,-12 -3,5 -6,10 -8,12l-7 -5c5,-5 8,-9 10,-11 -5,-1 -10,-2 -15,-3z"/>
 </g>
</svg>
