<?xml version="1.0" encoding="UTF-8"?>
<!DOCTYPE svg PUBLIC "-//W3C//DTD SVG 1.1//EN" "http://www.w3.org/Graphics/SVG/1.1/DTD/svg11.dtd">
<!-- Creator: CorelDRAW 2017 -->
<svg xmlns="http://www.w3.org/2000/svg" xml:space="preserve" width="16px" height="16px" version="1.1" style="shape-rendering:geometricPrecision; text-rendering:geometricPrecision; image-rendering:optimizeQuality; fill-rule:evenodd; clip-rule:evenodd"
viewBox="0 0 7.17 7.18"
 xmlns:xlink="http://www.w3.org/1999/xlink">
 <defs>
  <style type="text/css">
   <![CDATA[
    .fil0 {fill:none}
    .fil5 {fill:gray}
    .fil3 {fill:#9F9F9F}
    .fil4 {fill:#A4A4A4}
    .fil1 {fill:#C8C8C8}
    .fil2 {fill:#D4D4D4}
   ]]>
  </style>
 </defs>
 <g id="Capa_x0020_1">
  <metadata id="CorelCorpID_0Corel-Layer"/>
  <rect class="fil0" width="7.17" height="7.17"/>
  <path class="fil1" d="M3.59 0l0 0c-1.03,0 -1.87,0.8 -1.87,1.79l0 2.18 0.95 0 0 -2.14c0,-0.47 0.41,-0.85 0.92,-0.85l0 0c0.51,0 0.92,0.38 0.92,0.85l0 2.4 0.94 0 0 -2.44c0,-0.99 -0.83,-1.79 -1.86,-1.79l0 0z"/>
  <rect class="fil2" x="1.32" y="3.36" width="4.54" height="3.81"/>
  <path class="fil3" d="M4.15 4.95c0,0.15 -0.06,0.29 -0.16,0.39l0 0.7 -0.8 0 -0.01 -0.7c-0.09,-0.1 -0.16,-0.24 -0.16,-0.39 0,-0.31 0.26,-0.56 0.57,-0.56 0.31,0 0.56,0.25 0.56,0.56l0 0z"/>
  <rect class="fil4" x="3.59" y="3.36" width="2.27" height="3.81"/>
  <path class="fil5" d="M4.15 4.95c0,0.15 -0.06,0.29 -0.16,0.39l0 0.7 -0.4 0 0 -1.65c0.31,0 0.56,0.25 0.56,0.56z"/>
 </g>
</svg>
