<?xml version="1.0" encoding="UTF-8"?>
<svg xmlns="http://www.w3.org/2000/svg" xmlns:xlink="http://www.w3.org/1999/xlink" width="45.599998pt" height="45.599998pt" viewBox="0 0 45.599998 45.599998" version="1.1">
<g id="surface1">
<path style="fill:none;stroke-width:3.2;stroke-linecap:round;stroke-linejoin:miter;stroke:rgb(29%,29%,29%);stroke-opacity:1;stroke-miterlimit:10;" d="M 13.199219 12.65625 L 13.199219 10.082031 C 13.199219 5.414062 17.339844 1.601562 22.398438 1.601562 C 27.460938 1.601562 31.601562 5.414062 31.601562 10.082031 L 31.601562 20 "/>
<path style=" stroke:none;fill-rule:nonzero;fill:rgb(71%,71%,71%);fill-opacity:1;" d="M 6 20 L 39.601562 20 L 39.601562 45.601562 L 6 45.601562 Z M 6 20 "/>
<path style=" stroke:none;fill-rule:nonzero;fill:rgb(29%,29%,29%);fill-opacity:1;" d="M 22.800781 36 L 22.800781 36 C 21.480469 36 20.398438 34.921875 20.398438 33.601562 L 20.398438 28.800781 C 20.398438 27.480469 21.480469 26.398438 22.800781 26.398438 C 24.121094 26.398438 25.199219 27.480469 25.199219 28.800781 L 25.199219 33.601562 C 25.199219 34.921875 24.121094 36 22.800781 36 Z M 22.800781 36 "/>
<path style=" stroke:none;fill-rule:nonzero;fill:rgb(26%,26%,26%);fill-opacity:1;" d="M 6 40.800781 L 39.601562 40.800781 L 39.601562 45.601562 L 6 45.601562 Z M 6 40.800781 "/>
</g>
</svg>
