<?xml version="1.0" encoding="UTF-8"?>
<svg xmlns="http://www.w3.org/2000/svg" xmlns:xlink="http://www.w3.org/1999/xlink" width="409.600006pt" height="409.600006pt" viewBox="0 0 409.600006 409.600006" version="1.1">
<g id="surface1">
<path style=" stroke:none;fill-rule:nonzero;fill:rgb(78%,78%,78%);fill-opacity:1;" d="M 85.871094 297.613281 L 85.871094 361.042969 C 122 362.636719 111.574219 369.019531 174.4375 397.285156 C 182.441406 400.433594 200.921875 405.59375 220.714844 396.496094 C 220.726562 396.492188 220.742188 396.484375 220.753906 396.480469 L 344.246094 352.265625 C 348.265625 350.414062 368.535156 339.402344 360.539062 318.890625 C 351.195312 297.019531 327.140625 306.140625 325.125 306.796875 L 260.652344 324.625 "/>
<path style=" stroke:none;fill-rule:nonzero;fill:rgb(88%,88%,88%);fill-opacity:1;" d="M 158.8125 324.152344 L 230.613281 346.902344 C 243.144531 350.464844 256.1875 343.195312 259.753906 330.667969 C 263.316406 318.136719 256.046875 305.089844 241.6875 299.761719 L 177.992188 278.144531 C 177.992188 278.140625 164.394531 255.9375 132.015625 255.9375 C 111.570312 255.9375 93.945312 272.460938 85.871094 286.925781 L 85.871094 315.808594 "/>
<path style=" stroke:none;fill-rule:nonzero;fill:rgb(0%,0%,0%);fill-opacity:1;" d="M 130.199219 323.082031 C 129.679688 323.082031 129.152344 323.027344 128.640625 322.921875 C 128.128906 322.828125 127.625 322.667969 127.136719 322.464844 C 126.65625 322.265625 126.191406 322.019531 125.761719 321.730469 C 125.320312 321.441406 124.910156 321.105469 124.542969 320.738281 C 124.175781 320.371094 123.839844 319.960938 123.550781 319.523438 C 123.257812 319.089844 123.015625 318.625 122.816406 318.136719 C 122.617188 317.65625 122.457031 317.152344 122.359375 316.640625 C 122.257812 316.128906 122.199219 315.601562 122.199219 315.082031 C 122.199219 314.5625 122.257812 314.035156 122.359375 313.523438 C 122.457031 313.007812 122.617188 312.503906 122.816406 312.019531 C 123.015625 311.539062 123.257812 311.074219 123.550781 310.640625 C 123.839844 310.203125 124.175781 309.792969 124.542969 309.425781 C 124.910156 309.058594 125.320312 308.722656 125.761719 308.433594 C 126.191406 308.144531 126.65625 307.898438 127.136719 307.699219 C 127.625 307.496094 128.128906 307.335938 128.640625 307.242188 C 129.664062 307.035156 130.726562 307.035156 131.761719 307.242188 C 132.273438 307.335938 132.777344 307.496094 133.257812 307.699219 C 133.742188 307.898438 134.207031 308.144531 134.640625 308.433594 C 135.078125 308.722656 135.488281 309.058594 135.855469 309.425781 C 136.222656 309.792969 136.558594 310.203125 136.847656 310.640625 C 137.136719 311.074219 137.382812 311.539062 137.585938 312.019531 C 137.785156 312.503906 137.9375 313.007812 138.039062 313.523438 C 138.144531 314.035156 138.199219 314.5625 138.199219 315.082031 C 138.199219 315.601562 138.144531 316.128906 138.039062 316.640625 C 137.9375 317.152344 137.785156 317.65625 137.585938 318.136719 C 137.382812 318.625 137.136719 319.089844 136.847656 319.523438 C 136.558594 319.960938 136.222656 320.371094 135.855469 320.738281 C 135.488281 321.105469 135.078125 321.441406 134.640625 321.730469 C 134.207031 322.019531 133.742188 322.265625 133.257812 322.464844 C 132.777344 322.667969 132.273438 322.828125 131.761719 322.921875 C 131.246094 323.027344 130.71875 323.082031 130.199219 323.082031 Z M 130.199219 323.082031 "/>
<path style=" stroke:none;fill-rule:nonzero;fill:rgb(92%,92%,92%);fill-opacity:1;" d="M 55.566406 285.902344 L 85.875 285.902344 L 85.875 371.855469 L 55.566406 371.855469 Z M 55.566406 285.902344 "/>
<path style=" stroke:none;fill-rule:nonzero;fill:rgb(47%,47%,47%);fill-opacity:1;" d="M 8 285.902344 L 55.566406 285.902344 L 55.566406 386.765625 L 8 386.765625 Z M 8 285.902344 "/>
<path style=" stroke:none;fill-rule:nonzero;fill:rgb(0%,0%,0%);fill-opacity:1;" d="M 367.996094 315.984375 C 367.964844 315.90625 367.929688 315.828125 367.898438 315.746094 C 360.535156 298.519531 343.265625 292.152344 322.828125 299.128906 L 267.09375 314.542969 C 263.871094 304.785156 255.835938 296.480469 244.46875 292.261719 C 244.398438 292.238281 244.328125 292.210938 244.257812 292.1875 L 182.992188 271.394531 C 177.894531 264.804688 161.921875 247.9375 132.015625 247.9375 C 111.113281 247.9375 92.625 262.273438 82.046875 277.902344 L 8 277.902344 C 3.582031 277.902344 0 281.484375 0 285.902344 L 0 386.765625 C 0 391.183594 3.582031 394.765625 8 394.765625 L 55.566406 394.765625 C 59.984375 394.765625 63.566406 391.183594 63.566406 386.765625 L 63.566406 379.859375 L 85.871094 379.859375 C 90.289062 379.859375 93.871094 376.277344 93.871094 371.859375 L 93.871094 369.554688 C 106.875 370.691406 111.152344 373.15625 123.09375 380.042969 C 132.277344 385.339844 146.160156 393.34375 171.15625 404.582031 C 171.273438 404.632812 171.390625 404.683594 171.507812 404.730469 C 176.304688 406.617188 185.683594 409.582031 197.246094 409.582031 C 205.292969 409.582031 214.402344 408.144531 223.75 403.90625 L 346.941406 359.796875 C 347.164062 359.71875 347.378906 359.632812 347.589844 359.535156 C 359.363281 354.117188 376.90625 338.851562 367.996094 315.984375 Z M 47.566406 378.765625 L 16 378.765625 L 16 293.902344 L 47.566406 293.902344 Z M 77.871094 363.855469 L 63.566406 363.855469 L 63.566406 293.902344 L 77.871094 293.902344 Z M 341.195312 344.859375 L 218.058594 388.949219 C 217.953125 388.988281 217.804688 389.042969 217.699219 389.085938 C 217.589844 389.132812 217.480469 389.175781 217.375 389.226562 C 200.226562 397.109375 183.925781 392.390625 177.535156 389.90625 C 153.390625 379.039062 140.503906 371.609375 131.085938 366.179688 C 117.996094 358.632812 111.6875 354.992188 93.871094 353.523438 L 93.871094 289.089844 C 101.457031 276.660156 116.160156 263.9375 132.015625 263.9375 C 159.203125 263.9375 170.726562 281.621094 171.175781 282.335938 C 172.15625 283.921875 173.65625 285.121094 175.421875 285.71875 L 239 307.300781 C 249.15625 311.109375 254.523438 319.804688 252.054688 328.476562 C 250.917969 332.484375 248.289062 335.804688 244.652344 337.832031 C 241.042969 339.839844 236.875 340.335938 232.902344 339.238281 L 161.230469 316.523438 C 157.015625 315.1875 152.519531 317.523438 151.1875 321.734375 C 149.851562 325.945312 152.183594 330.441406 156.394531 331.777344 L 228.195312 354.53125 C 228.269531 354.554688 228.347656 354.578125 228.425781 354.597656 C 231.289062 355.414062 234.207031 355.816406 237.109375 355.816406 C 242.421875 355.816406 247.671875 354.464844 252.4375 351.808594 C 259.808594 347.703125 265.136719 340.96875 267.445312 332.855469 C 267.628906 332.207031 267.792969 331.558594 267.933594 330.910156 L 328 314.269531 C 336.675781 311.308594 348.0625 310.238281 353.132812 321.917969 C 358.382812 335.625 344.742188 343.167969 341.195312 344.859375 Z M 341.195312 344.859375 "/>
<path style=" stroke:none;fill-rule:nonzero;fill:rgb(60%,60%,60%);fill-opacity:1;" d="M 191.921875 79.074219 L 120.867188 8.019531 L 31.78125 97.105469 L 184.011719 249.332031 L 268.078125 165.269531 "/>
<path style=" stroke:none;fill-rule:nonzero;fill:rgb(83%,83%,83%);fill-opacity:1;" d="M 149.847656 91.210938 L 149.847656 91.210938 C 149.855469 91.195312 149.859375 91.175781 149.863281 91.160156 C 141.117188 91.757812 132.539062 95.398438 125.851562 102.085938 C 111.167969 116.769531 111.167969 140.578125 125.851562 155.265625 C 140.535156 169.949219 164.34375 169.949219 179.027344 155.265625 C 186.132812 148.160156 189.796875 138.925781 190.03125 129.621094 "/>
<path style=" stroke:none;fill-rule:nonzero;fill:rgb(78%,78%,78%);fill-opacity:1;" d="M 323.726562 124.261719 L 323.726562 60.832031 C 287.597656 59.238281 298.023438 52.855469 235.164062 24.59375 C 227.15625 21.441406 208.675781 16.285156 188.882812 25.378906 C 188.875 25.386719 188.855469 25.390625 188.84375 25.394531 L 151.585938 38.734375 L 190.03125 77.179688 "/>
<path style=" stroke:none;fill-rule:nonzero;fill:rgb(47%,47%,47%);fill-opacity:1;" d="M 31.78125 97.105469 L 61.984375 66.902344 C 78.640625 83.558594 78.640625 110.652344 61.984375 127.304688 Z M 31.78125 97.105469 "/>
<path style=" stroke:none;fill-rule:nonzero;fill:rgb(47%,47%,47%);fill-opacity:1;" d="M 153.8125 219.132812 C 170.464844 202.476562 197.558594 202.476562 214.214844 219.132812 L 184.011719 249.332031 Z M 153.8125 219.132812 "/>
<path style=" stroke:none;fill-rule:nonzero;fill:rgb(47%,47%,47%);fill-opacity:1;" d="M 90.667969 38.21875 L 120.867188 8.019531 L 151.070312 38.21875 C 134.414062 54.875 107.320312 54.875 90.667969 38.21875 Z M 90.667969 38.21875 "/>
<path style=" stroke:none;fill-rule:nonzero;fill:rgb(47%,47%,47%);fill-opacity:1;" d="M 232.964844 145.636719 C 227.488281 160.75 230.800781 178.351562 242.898438 190.449219 L 268.078125 165.269531 "/>
<path style=" stroke:none;fill-rule:nonzero;fill:rgb(88%,88%,88%);fill-opacity:1;" d="M 250.785156 97.726562 L 178.988281 74.972656 C 166.457031 71.410156 153.410156 78.679688 149.847656 91.210938 C 146.285156 103.742188 153.554688 116.785156 167.914062 122.113281 L 231.632812 143.742188 L 231.605469 143.730469 C 231.605469 143.730469 245.203125 165.941406 277.585938 165.941406 C 298.03125 165.941406 315.65625 149.414062 323.726562 134.949219 L 323.726562 106.066406 "/>
<path style=" stroke:none;fill-rule:nonzero;fill:rgb(0%,0%,0%);fill-opacity:1;" d="M 279.398438 114.792969 C 278.878906 114.792969 278.351562 114.738281 277.839844 114.632812 C 277.328125 114.53125 276.824219 114.378906 276.34375 114.179688 C 275.855469 113.976562 275.390625 113.730469 274.960938 113.441406 C 274.519531 113.15625 274.113281 112.820312 273.742188 112.449219 C 273.375 112.082031 273.039062 111.675781 272.753906 111.234375 C 272.464844 110.800781 272.214844 110.339844 272.015625 109.851562 C 271.816406 109.371094 271.65625 108.867188 271.558594 108.355469 C 271.457031 107.84375 271.398438 107.3125 271.398438 106.792969 C 271.398438 106.273438 271.457031 105.746094 271.558594 105.234375 C 271.65625 104.722656 271.816406 104.21875 272.015625 103.730469 C 272.214844 103.25 272.464844 102.785156 272.753906 102.355469 C 273.039062 101.914062 273.375 101.507812 273.742188 101.136719 C 274.113281 100.769531 274.519531 100.433594 274.960938 100.144531 C 275.390625 99.859375 275.855469 99.609375 276.34375 99.410156 C 276.824219 99.210938 277.328125 99.050781 277.839844 98.953125 C 278.871094 98.746094 279.9375 98.746094 280.96875 98.953125 C 281.472656 99.050781 281.976562 99.210938 282.464844 99.410156 C 282.945312 99.609375 283.40625 99.859375 283.839844 100.144531 C 284.28125 100.433594 284.6875 100.769531 285.054688 101.136719 C 285.425781 101.507812 285.761719 101.914062 286.046875 102.355469 C 286.34375 102.785156 286.585938 103.25 286.785156 103.730469 C 286.992188 104.21875 287.144531 104.722656 287.246094 105.234375 C 287.351562 105.746094 287.398438 106.273438 287.398438 106.792969 C 287.398438 107.3125 287.351562 107.84375 287.246094 108.355469 C 287.144531 108.867188 286.992188 109.371094 286.785156 109.851562 C 286.585938 110.339844 286.34375 110.800781 286.046875 111.234375 C 285.761719 111.675781 285.425781 112.082031 285.054688 112.449219 C 284.6875 112.820312 284.28125 113.15625 283.839844 113.441406 C 283.40625 113.730469 282.945312 113.976562 282.464844 114.179688 C 281.976562 114.378906 281.472656 114.53125 280.96875 114.632812 C 280.449219 114.738281 279.921875 114.792969 279.398438 114.792969 Z M 279.398438 114.792969 "/>
<path style=" stroke:none;fill-rule:nonzero;fill:rgb(92%,92%,92%);fill-opacity:1;" d="M 323.726562 50.023438 L 354.035156 50.023438 L 354.035156 135.976562 L 323.726562 135.976562 Z M 323.726562 50.023438 "/>
<path style=" stroke:none;fill-rule:nonzero;fill:rgb(47%,47%,47%);fill-opacity:1;" d="M 354.03125 35.113281 L 401.601562 35.113281 L 401.601562 135.976562 L 354.03125 135.976562 Z M 354.03125 35.113281 "/>
<path style=" stroke:none;fill-rule:nonzero;fill:rgb(0%,0%,0%);fill-opacity:1;" d="M 401.601562 27.113281 L 354.035156 27.113281 C 349.617188 27.113281 346.035156 30.695312 346.035156 35.113281 L 346.035156 42.019531 L 323.726562 42.019531 C 319.308594 42.019531 315.726562 45.601562 315.726562 50.019531 L 315.726562 52.324219 C 302.726562 51.1875 298.449219 48.722656 286.507812 41.835938 C 277.324219 36.539062 263.441406 28.535156 238.445312 17.296875 C 238.328125 17.242188 238.210938 17.195312 238.09375 17.148438 C 229.957031 13.945312 208.628906 7.648438 185.851562 17.96875 L 153.660156 29.496094 L 126.527344 2.363281 C 123.402344 -0.761719 118.335938 -0.761719 115.210938 2.363281 L 26.125 91.445312 C 23.242188 94.328125 22.691406 99.328125 26.125 102.761719 L 178.355469 254.992188 C 180.792969 257.429688 186.496094 258.164062 189.667969 254.992188 L 271 173.660156 C 273.117188 173.84375 275.308594 173.941406 277.585938 173.941406 C 298.484375 173.941406 316.972656 159.601562 327.550781 143.976562 L 401.601562 143.976562 C 406.019531 143.976562 409.601562 140.394531 409.601562 135.976562 L 409.601562 35.113281 C 409.601562 30.695312 406.019531 27.113281 401.601562 27.113281 Z M 141.160156 101.304688 C 142.636719 113.597656 151.484375 124.550781 165.128906 129.613281 C 165.199219 129.640625 165.269531 129.664062 165.34375 129.691406 L 181.339844 135.121094 C 180.132812 140.570312 177.398438 145.585938 173.375 149.609375 C 161.832031 161.148438 143.050781 161.152344 131.507812 149.609375 C 119.96875 138.066406 119.96875 119.289062 131.507812 107.746094 C 134.292969 104.960938 137.578125 102.78125 141.160156 101.304688 Z M 157.160156 70.070312 C 151.425781 73.265625 146.929688 78.046875 144.125 83.835938 C 135.101562 85.507812 126.746094 89.878906 120.195312 96.429688 C 102.414062 114.210938 102.414062 143.140625 120.195312 160.921875 C 129.085938 169.8125 140.761719 174.257812 152.441406 174.257812 C 164.117188 174.257812 175.796875 169.8125 184.6875 160.921875 C 190.472656 155.136719 194.523438 148.03125 196.554688 140.28125 L 223.5625 149.449219 C 220.523438 163.535156 223.636719 178.355469 232.039062 189.996094 L 213.769531 208.265625 C 196.089844 195.441406 171.933594 195.441406 154.257812 208.265625 L 72.855469 126.863281 C 79.101562 118.269531 82.476562 107.949219 82.476562 97.105469 C 82.476562 86.257812 79.105469 75.9375 72.855469 67.34375 L 91.109375 49.09375 C 99.703125 55.339844 110.023438 58.710938 120.867188 58.710938 C 131.714844 58.710938 142.035156 55.339844 150.628906 49.09375 L 167.929688 66.394531 C 164.199219 66.945312 160.558594 68.175781 157.160156 70.070312 Z M 243.566406 178.46875 C 240.476562 173.433594 238.730469 167.691406 238.453125 161.832031 C 242.285156 164.601562 246.96875 167.316406 252.5625 169.46875 Z M 120.867188 19.332031 L 139.101562 37.566406 C 133.679688 40.917969 127.414062 42.710938 120.867188 42.710938 C 114.320312 42.710938 108.054688 40.917969 102.632812 37.566406 Z M 61.332031 78.871094 C 64.683594 84.289062 66.476562 90.558594 66.476562 97.105469 C 66.476562 103.652344 64.683594 109.917969 61.332031 115.339844 L 43.097656 97.105469 Z M 184.011719 238.019531 L 165.78125 219.789062 C 176.914062 212.921875 191.109375 212.921875 202.242188 219.789062 Z M 277.585938 157.9375 C 274.617188 157.9375 271.839844 157.726562 269.238281 157.351562 L 269.207031 157.347656 C 251.929688 154.835938 242.636719 145.019531 239.574219 141.128906 C 239.410156 140.890625 238.714844 139.980469 238.613281 139.828125 C 237.679688 138.164062 236.152344 136.824219 234.203125 136.164062 L 170.597656 114.574219 C 160.445312 110.765625 155.082031 102.074219 157.539062 93.40625 L 157.546875 93.386719 C 157.546875 93.382812 157.550781 93.375 157.550781 93.367188 C 158.695312 89.375 161.320312 86.066406 164.949219 84.042969 C 168.554688 82.035156 172.722656 81.535156 176.695312 82.636719 L 248.371094 105.351562 C 252.582031 106.6875 257.078125 104.351562 258.414062 100.140625 C 259.746094 95.929688 257.414062 91.433594 253.203125 90.097656 L 196.199219 72.035156 L 195.703125 71.535156 C 195.695312 71.53125 195.691406 71.527344 195.6875 71.519531 L 166.175781 42.007812 L 191.539062 32.925781 C 191.625 32.894531 191.730469 32.855469 191.816406 32.820312 C 191.839844 32.8125 191.878906 32.796875 191.902344 32.789062 C 192.007812 32.742188 192.117188 32.695312 192.222656 32.648438 C 209.371094 24.765625 225.671875 29.484375 232.0625 31.96875 C 256.207031 42.832031 269.097656 50.265625 278.511719 55.695312 C 291.605469 63.242188 297.910156 66.882812 315.726562 68.351562 L 315.726562 132.785156 C 308.144531 145.21875 293.4375 157.9375 277.585938 157.9375 Z M 331.726562 58.019531 L 346.035156 58.019531 L 346.035156 127.972656 L 331.726562 127.972656 Z M 393.601562 127.972656 L 362.035156 127.972656 L 362.035156 43.113281 L 393.601562 43.113281 Z M 393.601562 127.972656 "/>
</g>
</svg>
