<?xml version="1.0" encoding="UTF-8"?>
<svg xmlns="http://www.w3.org/2000/svg" xmlns:xlink="http://www.w3.org/1999/xlink" width="46.400002pt" height="46.400002pt" viewBox="0 0 46.400002 46.400002" version="1.1">
<g id="surface1">
<path style=" stroke:none;fill-rule:nonzero;fill:rgb(27%,27%,27%);fill-opacity:1;" d="M 44 0.398438 L 2.398438 0.398438 C 1.078125 0.398438 0 1.480469 0 2.800781 C 0 4.121094 1.078125 5.199219 2.398438 5.199219 L 2.398438 2.800781 L 44 2.800781 L 44 5.199219 C 45.320312 5.199219 46.398438 4.121094 46.398438 2.800781 C 46.398438 1.480469 45.320312 0.398438 44 0.398438 Z M 44 0.398438 "/>
<path style=" stroke:none;fill-rule:nonzero;fill:rgb(93%,93%,93%);fill-opacity:1;" d="M 4 41.199219 L 8.800781 46 L 13.601562 41.199219 L 18.398438 46 L 23.199219 41.199219 L 28 46 L 32.800781 41.199219 L 37.601562 46 L 42.398438 41.199219 L 44 42.800781 L 44 2.800781 L 2.398438 2.800781 L 2.398438 42.800781 Z M 4 41.199219 "/>
<path style=" stroke:none;fill-rule:nonzero;fill:rgb(77%,77%,77%);fill-opacity:1;" d="M 34.398438 33.199219 L 22.398438 33.199219 C 21.957031 33.199219 21.601562 32.84375 21.601562 32.398438 C 21.601562 31.957031 21.957031 31.601562 22.398438 31.601562 L 34.398438 31.601562 C 34.839844 31.601562 35.199219 31.957031 35.199219 32.398438 C 35.199219 32.84375 34.839844 33.199219 34.398438 33.199219 Z M 34.398438 33.199219 "/>
<path style=" stroke:none;fill-rule:nonzero;fill:rgb(77%,77%,77%);fill-opacity:1;" d="M 38.398438 33.199219 C 38.191406 33.199219 37.984375 33.113281 37.832031 32.96875 C 37.6875 32.816406 37.601562 32.609375 37.601562 32.398438 C 37.601562 32.183594 37.6875 31.984375 37.832031 31.832031 C 38.136719 31.535156 38.664062 31.535156 38.96875 31.832031 C 39.113281 31.984375 39.199219 32.183594 39.199219 32.398438 C 39.199219 32.609375 39.113281 32.816406 38.96875 32.96875 C 38.816406 33.113281 38.609375 33.199219 38.398438 33.199219 Z M 38.398438 33.199219 "/>
<path style=" stroke:none;fill-rule:nonzero;fill:rgb(77%,77%,77%);fill-opacity:1;" d="M 38.398438 22 L 26.398438 22 C 25.957031 22 25.601562 21.640625 25.601562 21.199219 C 25.601562 20.757812 25.957031 20.398438 26.398438 20.398438 L 38.398438 20.398438 C 38.839844 20.398438 39.199219 20.757812 39.199219 21.199219 C 39.199219 21.640625 38.839844 22 38.398438 22 Z M 38.398438 22 "/>
<path style=" stroke:none;fill-rule:nonzero;fill:rgb(77%,77%,77%);fill-opacity:1;" d="M 38.398438 27.601562 L 30.398438 27.601562 C 29.957031 27.601562 29.601562 27.242188 29.601562 26.800781 C 29.601562 26.359375 29.957031 26 30.398438 26 L 38.398438 26 C 38.839844 26 39.199219 26.359375 39.199219 26.800781 C 39.199219 27.242188 38.839844 27.601562 38.398438 27.601562 Z M 38.398438 27.601562 "/>
<path style=" stroke:none;fill-rule:nonzero;fill:rgb(77%,77%,77%);fill-opacity:1;" d="M 24 27.601562 L 22.398438 27.601562 C 21.957031 27.601562 21.601562 27.242188 21.601562 26.800781 C 21.601562 26.359375 21.957031 26 22.398438 26 L 24 26 C 24.441406 26 24.800781 26.359375 24.800781 26.800781 C 24.800781 27.242188 24.441406 27.601562 24 27.601562 Z M 24 27.601562 "/>
<path style=" stroke:none;fill-rule:nonzero;fill:rgb(77%,77%,77%);fill-opacity:1;" d="M 34.398438 16.398438 L 22.398438 16.398438 C 21.957031 16.398438 21.601562 16.042969 21.601562 15.601562 C 21.601562 15.15625 21.957031 14.800781 22.398438 14.800781 L 34.398438 14.800781 C 34.839844 14.800781 35.199219 15.15625 35.199219 15.601562 C 35.199219 16.042969 34.839844 16.398438 34.398438 16.398438 Z M 34.398438 16.398438 "/>
<path style=" stroke:none;fill-rule:nonzero;fill:rgb(77%,77%,77%);fill-opacity:1;" d="M 38.398438 16.398438 C 38.191406 16.398438 37.984375 16.3125 37.832031 16.167969 C 37.6875 16.015625 37.601562 15.808594 37.601562 15.601562 C 37.601562 15.382812 37.6875 15.183594 37.832031 15.03125 C 38.128906 14.734375 38.671875 14.734375 38.96875 15.03125 C 39.113281 15.183594 39.199219 15.390625 39.199219 15.601562 C 39.199219 15.808594 39.113281 16.015625 38.96875 16.167969 C 38.816406 16.3125 38.617188 16.398438 38.398438 16.398438 Z M 38.398438 16.398438 "/>
<path style=" stroke:none;fill-rule:nonzero;fill:rgb(77%,77%,77%);fill-opacity:1;" d="M 23.199219 22 C 22.992188 22 22.785156 21.910156 22.632812 21.769531 C 22.488281 21.617188 22.398438 21.414062 22.398438 21.199219 C 22.398438 20.984375 22.488281 20.78125 22.632812 20.632812 C 22.9375 20.335938 23.472656 20.335938 23.769531 20.632812 C 23.910156 20.78125 24 20.984375 24 21.199219 C 24 21.414062 23.910156 21.617188 23.769531 21.769531 C 23.617188 21.910156 23.40625 22 23.199219 22 Z M 23.199219 22 "/>
<path style=" stroke:none;fill-rule:nonzero;fill:rgb(77%,77%,77%);fill-opacity:1;" d="M 27.199219 27.601562 C 26.992188 27.601562 26.785156 27.511719 26.632812 27.367188 C 26.488281 27.214844 26.398438 27.007812 26.398438 26.800781 C 26.398438 26.59375 26.488281 26.382812 26.632812 26.230469 C 26.9375 25.9375 27.472656 25.9375 27.769531 26.230469 C 27.910156 26.375 28 26.582031 28 26.800781 C 28 27.015625 27.910156 27.214844 27.769531 27.367188 C 27.617188 27.511719 27.40625 27.601562 27.199219 27.601562 Z M 27.199219 27.601562 "/>
<path style=" stroke:none;fill-rule:nonzero;fill:rgb(49%,49%,49%);fill-opacity:1;" d="M 14.398438 20.398438 C 14.398438 20.84375 14.757812 21.199219 15.199219 21.199219 C 15.640625 21.199219 16 20.84375 16 20.398438 C 16 18.46875 14.625 16.851562 12.800781 16.480469 L 12.800781 15.601562 C 12.800781 15.15625 12.441406 14.800781 12 14.800781 C 11.558594 14.800781 11.199219 15.15625 11.199219 15.601562 L 11.199219 16.484375 C 10.328125 16.660156 9.53125 17.125 8.945312 17.816406 C 8.457031 18.394531 8.230469 19.132812 8.308594 19.898438 C 8.390625 20.683594 8.796875 21.410156 9.417969 21.894531 L 11.199219 23.28125 L 11.199219 27.628906 C 10.269531 27.300781 9.601562 26.417969 9.601562 25.378906 C 9.601562 24.933594 9.242188 24.578125 8.800781 24.578125 C 8.359375 24.578125 8 24.933594 8 25.378906 C 8 27.308594 9.375 28.925781 11.199219 29.296875 L 11.199219 30 C 11.199219 30.441406 11.558594 30.800781 12 30.800781 C 12.441406 30.800781 12.800781 30.441406 12.800781 30 L 12.800781 29.292969 C 13.671875 29.117188 14.46875 28.652344 15.054688 27.960938 C 15.542969 27.378906 15.769531 26.640625 15.691406 25.875 C 15.605469 25.09375 15.203125 24.367188 14.582031 23.886719 L 12.800781 22.5 L 12.800781 18.148438 C 13.730469 18.476562 14.398438 19.359375 14.398438 20.398438 Z M 13.601562 25.148438 C 13.878906 25.363281 14.0625 25.691406 14.097656 26.042969 C 14.132812 26.371094 14.039062 26.683594 13.832031 26.925781 C 13.554688 27.253906 13.195312 27.484375 12.800781 27.625 L 12.800781 24.523438 Z M 10.398438 20.628906 C 10.121094 20.414062 9.9375 20.085938 9.902344 19.734375 C 9.867188 19.40625 9.960938 19.09375 10.167969 18.851562 C 10.445312 18.523438 10.804688 18.292969 11.199219 18.152344 L 11.199219 21.253906 Z M 10.398438 20.628906 "/>
<path style=" stroke:none;fill-rule:nonzero;fill:rgb(65%,65%,65%);fill-opacity:1;" d="M 4.800781 9.199219 C 4.59375 9.199219 4.382812 9.113281 4.230469 8.96875 C 4.089844 8.816406 4 8.609375 4 8.398438 C 4 8.191406 4.089844 7.984375 4.230469 7.832031 C 4.535156 7.535156 5.070312 7.535156 5.367188 7.832031 C 5.511719 7.984375 5.601562 8.191406 5.601562 8.398438 C 5.601562 8.609375 5.511719 8.816406 5.367188 8.96875 C 5.214844 9.113281 5.007812 9.199219 4.800781 9.199219 Z M 4.800781 9.199219 "/>
<path style=" stroke:none;fill-rule:nonzero;fill:rgb(65%,65%,65%);fill-opacity:1;" d="M 37.734375 8.398438 C 37.734375 7.960938 38.089844 7.601562 38.535156 7.601562 C 38.976562 7.601562 39.335938 7.960938 39.335938 8.398438 C 39.335938 8.839844 38.976562 9.199219 38.535156 9.199219 C 38.089844 9.199219 37.734375 8.839844 37.734375 8.398438 Z M 34.664062 8.398438 C 34.664062 7.960938 35.023438 7.601562 35.464844 7.601562 C 35.910156 7.601562 36.265625 7.960938 36.265625 8.398438 C 36.265625 8.839844 35.910156 9.199219 35.464844 9.199219 C 35.023438 9.199219 34.664062 8.839844 34.664062 8.398438 Z M 31.601562 8.398438 C 31.601562 7.960938 31.960938 7.601562 32.398438 7.601562 C 32.839844 7.601562 33.199219 7.960938 33.199219 8.398438 C 33.199219 8.839844 32.839844 9.199219 32.398438 9.199219 C 31.960938 9.199219 31.601562 8.839844 31.601562 8.398438 Z M 28.535156 8.398438 C 28.535156 7.960938 28.886719 7.601562 29.335938 7.601562 C 29.777344 7.601562 30.136719 7.960938 30.136719 8.398438 C 30.136719 8.839844 29.777344 9.199219 29.335938 9.199219 C 28.886719 9.199219 28.535156 8.839844 28.535156 8.398438 Z M 25.464844 8.398438 C 25.464844 7.960938 25.824219 7.601562 26.265625 7.601562 C 26.710938 7.601562 27.0625 7.960938 27.0625 8.398438 C 27.0625 8.839844 26.710938 9.199219 26.265625 9.199219 C 25.824219 9.199219 25.464844 8.839844 25.464844 8.398438 Z M 22.398438 8.398438 C 22.398438 7.960938 22.761719 7.601562 23.199219 7.601562 C 23.640625 7.601562 24 7.960938 24 8.398438 C 24 8.839844 23.640625 9.199219 23.199219 9.199219 C 22.761719 9.199219 22.398438 8.839844 22.398438 8.398438 Z M 19.335938 8.398438 C 19.335938 7.960938 19.6875 7.601562 20.136719 7.601562 C 20.574219 7.601562 20.9375 7.960938 20.9375 8.398438 C 20.9375 8.839844 20.574219 9.199219 20.136719 9.199219 C 19.6875 9.199219 19.335938 8.839844 19.335938 8.398438 Z M 16.265625 8.398438 C 16.265625 7.960938 16.625 7.601562 17.0625 7.601562 C 17.511719 7.601562 17.863281 7.960938 17.863281 8.398438 C 17.863281 8.839844 17.511719 9.199219 17.0625 9.199219 C 16.625 9.199219 16.265625 8.839844 16.265625 8.398438 Z M 13.199219 8.398438 C 13.199219 7.960938 13.558594 7.601562 14 7.601562 C 14.441406 7.601562 14.800781 7.960938 14.800781 8.398438 C 14.800781 8.839844 14.441406 9.199219 14 9.199219 C 13.558594 9.199219 13.199219 8.839844 13.199219 8.398438 Z M 10.136719 8.398438 C 10.136719 7.960938 10.488281 7.601562 10.9375 7.601562 C 11.375 7.601562 11.734375 7.960938 11.734375 8.398438 C 11.734375 8.839844 11.375 9.199219 10.9375 9.199219 C 10.488281 9.199219 10.136719 8.839844 10.136719 8.398438 Z M 7.0625 8.398438 C 7.0625 7.960938 7.425781 7.601562 7.863281 7.601562 C 8.3125 7.601562 8.664062 7.960938 8.664062 8.398438 C 8.664062 8.839844 8.3125 9.199219 7.863281 9.199219 C 7.425781 9.199219 7.0625 8.839844 7.0625 8.398438 Z M 7.0625 8.398438 "/>
<path style=" stroke:none;fill-rule:nonzero;fill:rgb(65%,65%,65%);fill-opacity:1;" d="M 41.601562 9.199219 C 41.382812 9.199219 41.183594 9.113281 41.03125 8.960938 C 40.886719 8.816406 40.800781 8.609375 40.800781 8.398438 C 40.800781 8.191406 40.886719 7.984375 41.03125 7.832031 C 41.320312 7.535156 41.863281 7.535156 42.167969 7.832031 C 42.3125 7.984375 42.398438 8.191406 42.398438 8.398438 C 42.398438 8.609375 42.3125 8.816406 42.167969 8.96875 C 42.015625 9.113281 41.808594 9.199219 41.601562 9.199219 Z M 41.601562 9.199219 "/>
</g>
</svg>
