<?xml version="1.0" encoding="UTF-8"?>
<!DOCTYPE svg PUBLIC "-//W3C//DTD SVG 1.1//EN" "http://www.w3.org/Graphics/SVG/1.1/DTD/svg11.dtd">
<!-- Creator: CorelDRAW 2017 -->
<svg xmlns="http://www.w3.org/2000/svg" xml:space="preserve" width="16px" height="16px" version="1.1" style="shape-rendering:geometricPrecision; text-rendering:geometricPrecision; image-rendering:optimizeQuality; fill-rule:evenodd; clip-rule:evenodd"
viewBox="0 0 5.37 5.37"
 xmlns:xlink="http://www.w3.org/1999/xlink">
 <defs>
  <style type="text/css">
   <![CDATA[
    .fil0 {fill:none}
    .fil5 {fill:#703700}
    .fil3 {fill:#9A4C00}
    .fil1 {fill:#C8C6CD}
    .fil4 {fill:#FF9A00}
    .fil2 {fill:#FFB74F}
   ]]>
  </style>
 </defs>
 <g id="Capa_x0020_1">
  <metadata id="CorelCorpID_0Corel-Layer"/>
  <g id="_2232422657648">
   <rect class="fil0" width="5.37" height="5.37"/>
   <path class="fil1" d="M3.74 0l0 0c-0.77,0 -1.39,0.6 -1.39,1.34l0 1.64 0.7 0 0 -1.61c0,-0.35 0.31,-0.64 0.69,-0.64l0 0c0.38,0 0.69,0.29 0.69,0.64l0 0.53 0.71 0 0 -0.56c0,-0.74 -0.63,-1.34 -1.4,-1.34z"/>
   <rect class="fil2" x="0.23" y="2.52" width="3.4" height="2.86"/>
   <path class="fil3" d="M2.36 3.71c0,0.11 -0.05,0.22 -0.12,0.29l0 0.52 -0.61 0 0 -0.52c-0.07,-0.07 -0.12,-0.18 -0.12,-0.29 0,-0.24 0.19,-0.43 0.42,-0.43 0.24,0 0.43,0.19 0.43,0.43l0 0z"/>
   <rect class="fil4" x="1.93" y="2.52" width="1.7" height="2.86"/>
   <path class="fil5" d="M2.36 3.71c0,0.11 -0.05,0.22 -0.12,0.29l0 0.52 -0.31 0 0 -1.24c0.24,0 0.43,0.19 0.43,0.43z"/>
  </g>
 </g>
</svg>
