<svg height="496pt" viewBox="0 0 496 496" width="496pt" xmlns="http://www.w3.org/2000/svg"><path d="m280 368h-73.375c-14.488281 0-28.386719 5.753906-38.625 16-10.246094 10.246094-16 24.136719-16 38.625v65.375h336v-65.375c0-14.488281-5.753906-28.386719-16-38.625-10.246094-10.246094-24.136719-16-38.625-16h-73.375" fill="#dbd9dc"/><path d="m200 488v-120h48v88h144v-88h48v120zm0 0" fill="#ffc1c1"/><path d="m280 328v24c0 22.089844 17.910156 40 40 40s40-17.910156 40-40v-24" fill="#fcc062"/><g fill="#fdd089"><path d="m308 389.96875c16.183594-5.121094 28-20.082031 28-37.96875v-24h-56v24c0 17.878906 11.816406 32.839844 28 37.96875zm0 0"/><path d="m216 248c-17.671875 0-32-14.328125-32-32s14.328125-32 32-32"/><path d="m424 184c17.671875 0 32 14.328125 32 32s-14.328125 32-32 32"/></g><path d="m424 152v80c0 57.441406-46.558594 104-104 104s-104-46.558594-104-104v-80zm0 0" fill="#fcc062"/><path d="m308 335.257812c51.777344-5.960937 92-49.882812 92-103.257812v-80h-184v80c0 53.375 40.222656 97.296875 92 103.257812zm0 0" fill="#fdd089"/><path d="m424 152-48 64h-112l-48-64c0-53.015625 42.984375-96 96-96h16c53.015625 0 96 42.984375 96 96zm0 0" fill="#674735"/><path d="m304 56.398438c-49.265625 4.082031-88 45.28125-88 95.601562l48 64h80l48-64c0-50.320312-38.734375-91.519531-88-95.601562zm0 0" fill="#895f47"/><path d="m216 152h208c0-53.015625-42.984375-96-96-96h-16c-53.015625 0-96 42.984375-96 96zm0 0" fill="#895f47"/><path d="m302.863281 56.464844c-48.726562 4.597656-86.863281 45.597656-86.863281 95.535156h176c0-50.6875-39.34375-91.992188-89.136719-95.535156zm0 0" fill="#b67f5f"/><path d="m136 232c0 35.347656-28.652344 64-64 64s-64-28.652344-64-64 28.652344-64 64-64 64 28.652344 64 64zm0 0" fill="#ffe17d"/><path d="m136 72c0 35.347656-28.652344 64-64 64s-64-28.652344-64-64 28.652344-64 64-64 64 28.652344 64 64zm0 0" fill="#ffe17d"/><path d="m488 496h-336c-4.425781 0-8-3.574219-8-8v-65.375c0-16.488281 6.6875-32.625 18.34375-44.28125s27.800781-18.34375 44.28125-18.34375h73.375v16h-73.375c-12.273438 0-24.289062 4.976562-32.96875 13.65625s-13.65625 20.695312-13.65625 32.96875v57.375h320v-57.375c0-12.273438-4.976562-24.289062-13.65625-32.96875s-20.695312-13.65625-32.96875-13.65625h-73.375v-16h73.375c16.488281 0 32.625 6.6875 44.28125 18.34375s18.34375 27.800781 18.34375 44.28125v65.375c0 4.425781-3.574219 8-8 8zm0 0"/><path d="m192 368h16v120h-16zm0 0"/><path d="m432 368h16v120h-16zm0 0"/><path d="m392 464h-144c-4.425781 0-8-3.574219-8-8v-88h16v80h128v-80h16v88c0 4.425781-3.574219 8-8 8zm0 0"/><path d="m320 400c-26.472656 0-48-21.527344-48-48v-24h16v24c0 17.648438 14.351562 32 32 32s32-14.351562 32-32v-24h16v24c0 26.472656-21.527344 48-48 48zm0 0"/><path d="m424 256v-16c13.230469 0 24-10.769531 24-24s-10.769531-24-24-24v-16c22.054688 0 40 17.945312 40 40s-17.945312 40-40 40zm0 0"/><path d="m216 256c-22.054688 0-40-17.945312-40-40s17.945312-40 40-40v16c-13.230469 0-24 10.769531-24 24s10.769531 24 24 24zm0 0"/><path d="m320 344c-61.761719 0-112-50.238281-112-112v-80c0-4.425781 3.574219-8 8-8h208c4.425781 0 8 3.574219 8 8v80c0 61.761719-50.238281 112-112 112zm-96-184v72c0 52.9375 43.0625 96 96 96s96-43.0625 96-96v-72zm0 0"/><path d="m376 224h-112c-2.511719 0-4.886719-1.183594-6.398438-3.199219l-48-64c-1.042968-1.386719-1.601562-3.066406-1.601562-4.800781 0-57.34375 46.65625-104 104-104h16c57.34375 0 104 46.65625 104 104 0 1.734375-.558594 3.414062-1.601562 4.800781l-48 64c-1.511719 2.015625-3.886719 3.199219-6.398438 3.199219zm-108-16h104l43.960938-58.617188c-1.386719-47.320312-40.3125-85.382812-87.960938-85.382812h-16c-47.648438 0-86.574219 38.0625-87.960938 85.382812zm0 0"/><path d="m320 304c-17.648438 0-32-14.351562-32-32h16c0 8.824219 7.175781 16 16 16s16-7.175781 16-16h16c0 17.648438-14.351562 32-32 32zm0 0"/><path d="m72 112h-24v-16h24c4.414062 0 8-3.585938 8-8s-3.585938-8-8-8c-13.230469 0-24-10.769531-24-24s10.769531-24 24-24h24v16h-24c-4.414062 0-8 3.585938-8 8s3.585938 8 8 8c13.230469 0 24 10.769531 24 24s-10.769531 24-24 24zm0 0"/><path d="m72 144c-39.703125 0-72-32.296875-72-72s32.296875-72 72-72 72 32.296875 72 72-32.296875 72-72 72zm0-128c-30.871094 0-56 25.128906-56 56s25.128906 56 56 56 56-25.128906 56-56-25.128906-56-56-56zm0 0"/><path d="m64 8h16v32h-16zm0 0"/><path d="m64 104h16v32h-16zm0 0"/><path d="m72 272h-24v-16h24c4.414062 0 8-3.585938 8-8s-3.585938-8-8-8c-13.230469 0-24-10.769531-24-24s10.769531-24 24-24h24v16h-24c-4.414062 0-8 3.585938-8 8s3.585938 8 8 8c13.230469 0 24 10.769531 24 24s-10.769531 24-24 24zm0 0"/><path d="m72 304c-39.703125 0-72-32.296875-72-72s32.296875-72 72-72 72 32.296875 72 72-32.296875 72-72 72zm0-128c-30.871094 0-56 25.128906-56 56s25.128906 56 56 56 56-25.128906 56-56-25.128906-56-56-56zm0 0"/><path d="m64 168h16v32h-16zm0 0"/><path d="m64 264h16v32h-16zm0 0"/></svg>