<?xml version="1.0" encoding="UTF-8"?>
<!DOCTYPE svg PUBLIC "-//W3C//DTD SVG 1.1//EN" "http://www.w3.org/Graphics/SVG/1.1/DTD/svg11.dtd">
<!-- Creator: CorelDRAW X8 -->
<svg xmlns="http://www.w3.org/2000/svg" xml:space="preserve" width="1280px" height="174px" version="1.1" style="shape-rendering:geometricPrecision; text-rendering:geometricPrecision; image-rendering:optimizeQuality; fill-rule:evenodd; clip-rule:evenodd"
viewBox="0 0 1250 170"
 xmlns:xlink="http://www.w3.org/1999/xlink">
 <defs>
  <style type="text/css">
   <![CDATA[
    .str0 {stroke:black;stroke-width:0.213749}
    .fil2 {fill:none;fill-rule:nonzero}
    .fil0 {fill:black}
    .fil1 {fill:black;fill-rule:nonzero}
   ]]>
  </style>
 </defs>
 <g id="Capa_x0020_1">
  <metadata id="CorelCorpID_0Corel-Layer"/>
  <path class="fil0" d="M81 18c6,-2 13,-1 18,3 -15,7 -25,18 -25,33 1,21 43,15 46,42 3,28 -18,45 -47,56 12,-12 32,-37 28,-52 -5,-18 -39,-20 -49,-42 -5,-11 -2,-24 8,-31 3,-2 6,-2 9,-3 -5,6 -8,9 -9,22 3,-12 10,-25 21,-28zm-1 152c-45,-3 -80,-40 -80,-85 0,-45 35,-82 80,-85l0 13c-38,3 -67,34 -67,72 0,38 29,69 67,72l0 13zm10 -170c45,3 80,40 80,85 0,45 -35,82 -80,85l0 -13c37,-3 67,-34 67,-72 0,-38 -30,-69 -67,-72l0 -13z"/>
  <path class="fil1" d="M306 119c1,0 1,0 0,1 -3,4 -9,7 -18,10 -6,2 -15,3 -25,3 -8,0 -15,-1 -20,-2 -5,-2 -10,-5 -15,-10 -7,-7 -11,-18 -11,-33 0,-9 2,-17 6,-25 4,-7 10,-13 17,-17 10,-7 22,-10 38,-10 6,0 11,1 16,1 5,1 9,1 10,2 0,0 0,0 0,1 0,1 0,3 0,6 -1,2 -1,4 -1,6 0,1 0,1 -1,1 0,0 0,0 0,0 0,-1 -1,-2 -1,-2 -1,-1 -3,-3 -6,-5 -5,-3 -13,-4 -23,-4 -13,0 -23,4 -31,11 -8,9 -13,20 -13,33 0,14 5,25 14,33 5,4 9,6 14,8 4,1 10,2 17,2 5,0 10,-1 15,-4 5,-2 9,-5 11,-8 2,-2 3,-4 3,-6 0,-1 0,-1 0,-1 0,0 1,0 1,0 0,2 1,3 1,5 1,1 1,2 2,4z"/>
  <path id="1" class="fil2 str0" d="M306 119c1,0 1,0 0,1 -3,4 -9,7 -18,10 -6,2 -15,3 -25,3 -8,0 -15,-1 -20,-2 -5,-2 -10,-5 -15,-10 -7,-7 -11,-18 -11,-33 0,-9 2,-17 6,-25 4,-7 10,-13 17,-17 10,-7 22,-10 38,-10 6,0 11,1 16,1 5,1 9,1 10,2 0,0 0,0 0,1 0,1 0,3 0,6 -1,2 -1,4 -1,6 0,1 0,1 -1,1 0,0 0,0 0,0 0,-1 -1,-2 -1,-2 -1,-1 -3,-3 -6,-5 -5,-3 -13,-4 -23,-4 -13,0 -23,4 -31,11 -8,9 -13,20 -13,33 0,14 5,25 14,33 5,4 9,6 14,8 4,1 10,2 17,2 5,0 10,-1 15,-4 5,-2 9,-5 11,-8 2,-2 3,-4 3,-6 0,-1 0,-1 0,-1 0,0 1,0 1,0 0,2 1,3 1,5 1,1 1,2 2,4z"/>
  <path class="fil1" d="M387 99c0,10 -3,18 -8,23 -2,2 -3,4 -4,5 -3,1 -6,3 -10,4 -3,1 -8,2 -13,2 -8,0 -14,-1 -18,-3 -4,-1 -6,-3 -8,-5 -3,-3 -5,-6 -6,-9 -1,-4 -2,-9 -2,-15 0,-4 1,-8 2,-12 2,-5 4,-9 7,-12 3,-3 7,-5 13,-7 4,-2 8,-2 13,-2 8,0 13,0 17,2 4,2 8,4 10,7 5,6 7,13 7,22zm-8 2c0,-4 -1,-8 -2,-11 -1,-4 -3,-8 -6,-11 -3,-2 -6,-4 -9,-6 -4,-1 -8,-2 -12,-2 -6,0 -9,1 -12,2 -4,3 -7,6 -9,9 -2,5 -3,10 -3,17 0,9 2,16 6,22 2,3 6,6 10,8 4,1 8,2 12,2 5,0 10,-1 14,-4 3,-2 5,-5 8,-9 2,-5 3,-10 3,-17z"/>
  <path id="1" class="fil2 str0" d="M387 99c0,10 -3,18 -8,23 -2,2 -3,4 -4,5 -3,1 -6,3 -10,4 -3,1 -8,2 -13,2 -8,0 -14,-1 -18,-3 -4,-1 -6,-3 -8,-5 -3,-3 -5,-6 -6,-9 -1,-4 -2,-9 -2,-15 0,-4 1,-8 2,-12 2,-5 4,-9 7,-12 3,-3 7,-5 13,-7 4,-2 8,-2 13,-2 8,0 13,0 17,2 4,2 8,4 10,7 5,6 7,13 7,22zm-8 2c0,-4 -1,-8 -2,-11 -1,-4 -3,-8 -6,-11 -3,-2 -6,-4 -9,-6 -4,-1 -8,-2 -12,-2 -6,0 -9,1 -12,2 -4,3 -7,6 -9,9 -2,5 -3,10 -3,17 0,9 2,16 6,22 2,3 6,6 10,8 4,1 8,2 12,2 5,0 10,-1 14,-4 3,-2 5,-5 8,-9 2,-5 3,-10 3,-17z"/>
  <path class="fil1" d="M461 132c0,0 -1,0 -1,0l-16 0c0,0 0,0 -1,0 -1,-1 -3,-4 -7,-8 -1,-2 -3,-5 -5,-7 -2,-3 -5,-7 -8,-13 0,-1 0,-1 -1,-1 -1,0 -4,0 -8,-1 0,0 -1,0 -1,1 0,0 0,2 0,6 0,3 0,7 0,11 0,6 1,10 3,10l8 0c1,0 1,0 1,0l0 2c0,0 0,0 -1,0l-25 0c-1,0 -1,0 -1,0 0,0 0,0 0,0l0 -2c0,0 0,0 0,0 0,0 0,0 0,0l7 0c0,0 1,-1 1,-2l0 -25c0,-13 0,-19 0,-19 0,-9 -1,-13 -2,-13l-6 0c-1,0 -1,-1 -1,-1l0 -2c0,0 0,0 1,0l14 0c1,0 3,0 6,0 3,0 5,0 5,0 2,0 4,0 6,0 5,1 9,2 11,5 3,3 5,7 5,11 0,5 -1,9 -5,13 -2,2 -5,3 -9,5 0,0 0,0 0,0 1,4 4,9 10,14 2,3 4,6 5,7 3,2 5,4 6,5 2,1 5,2 8,2 0,0 1,0 1,0l0 2zm-24 -45c0,-5 -1,-8 -4,-11 -4,-3 -10,-5 -18,-5 -1,0 -1,0 -1,1 0,9 -1,14 -1,17 0,0 0,3 0,10 0,1 1,1 1,1 1,0 3,0 6,0 2,0 3,0 5,0 2,0 2,-1 2,-1 7,-1 10,-5 10,-12z"/>
  <path id="1" class="fil2 str0" d="M461 132c0,0 -1,0 -1,0l-16 0c0,0 0,0 -1,0 -1,-1 -3,-4 -7,-8 -1,-2 -3,-5 -5,-7 -2,-3 -5,-7 -8,-13 0,-1 0,-1 -1,-1 -1,0 -4,0 -8,-1 0,0 -1,0 -1,1 0,0 0,2 0,6 0,3 0,7 0,11 0,6 1,10 3,10l8 0c1,0 1,0 1,0l0 2c0,0 0,0 -1,0l-25 0c-1,0 -1,0 -1,0 0,0 0,0 0,0l0 -2c0,0 0,0 0,0 0,0 0,0 0,0l7 0c0,0 1,-1 1,-2l0 -25c0,-13 0,-19 0,-19 0,-9 -1,-13 -2,-13l-6 0c-1,0 -1,-1 -1,-1l0 -2c0,0 0,0 1,0l14 0c1,0 3,0 6,0 3,0 5,0 5,0 2,0 4,0 6,0 5,1 9,2 11,5 3,3 5,7 5,11 0,5 -1,9 -5,13 -2,2 -5,3 -9,5 0,0 0,0 0,0 1,4 4,9 10,14 2,3 4,6 5,7 3,2 5,4 6,5 2,1 5,2 8,2 0,0 1,0 1,0l0 2zm-24 -45c0,-5 -1,-8 -4,-11 -4,-3 -10,-5 -18,-5 -1,0 -1,0 -1,1 0,9 -1,14 -1,17 0,0 0,3 0,10 0,1 1,1 1,1 1,0 3,0 6,0 2,0 3,0 5,0 2,0 2,-1 2,-1 7,-1 10,-5 10,-12z"/>
  <path class="fil1" d="M512 87c0,5 -1,9 -4,13 -4,3 -9,5 -15,5 -3,0 -7,0 -11,-1 0,-1 0,0 0,0l0 15c0,7 0,11 2,11l8 0c0,0 0,0 0,1l0 1c0,0 0,0 0,0l-25 0c0,0 0,0 0,0l0 -1c0,-1 0,-1 1,-1l6 0c0,0 1,0 1,-1l0 -49c0,-6 -1,-9 -2,-9l-6 0c0,0 -1,0 -1,0l0 -2c0,0 1,0 1,0l12 0c0,0 2,0 6,0 3,-1 5,-1 5,-1 4,0 6,1 8,1 4,1 7,3 10,5 3,4 4,8 4,13zm-7 1c0,-4 -1,-8 -4,-11 -4,-4 -9,-5 -15,-5 -2,0 -3,0 -3,0 -1,0 -1,0 -1,1 0,1 0,6 0,14 0,0 0,3 0,7 0,4 0,6 0,6 0,1 0,1 0,1 2,1 5,1 9,1 5,0 8,-1 10,-3 3,-2 4,-6 4,-11z"/>
  <path id="1" class="fil2 str0" d="M512 87c0,5 -1,9 -4,13 -4,3 -9,5 -15,5 -3,0 -7,0 -11,-1 0,-1 0,0 0,0l0 15c0,7 0,11 2,11l8 0c0,0 0,0 0,1l0 1c0,0 0,0 0,0l-25 0c0,0 0,0 0,0l0 -1c0,-1 0,-1 1,-1l6 0c0,0 1,0 1,-1l0 -49c0,-6 -1,-9 -2,-9l-6 0c0,0 -1,0 -1,0l0 -2c0,0 1,0 1,0l12 0c0,0 2,0 6,0 3,-1 5,-1 5,-1 4,0 6,1 8,1 4,1 7,3 10,5 3,4 4,8 4,13zm-7 1c0,-4 -1,-8 -4,-11 -4,-4 -9,-5 -15,-5 -2,0 -3,0 -3,0 -1,0 -1,0 -1,1 0,1 0,6 0,14 0,0 0,3 0,7 0,4 0,6 0,6 0,1 0,1 0,1 2,1 5,1 9,1 5,0 8,-1 10,-3 3,-2 4,-6 4,-11z"/>
  <path class="fil1" d="M731 132c0,0 0,0 -1,0l-23 0c0,0 0,0 0,0l0 -1c0,-1 0,-1 0,-1l7 0c1,0 1,0 1,-1 0,-1 -2,-4 -4,-10 -2,-5 -3,-8 -3,-9 0,0 -1,-1 -1,-1l-24 0c0,0 -1,1 -1,1 0,1 -1,3 -2,6 -1,3 -2,5 -2,6 -1,3 -1,4 -1,5 0,2 0,3 1,3l7 0c1,0 1,0 1,1l0 1c0,0 0,0 -1,0l-20 0c0,0 0,0 0,0l0 -2c0,0 0,0 0,0l4 0c1,0 2,-2 3,-5 2,-2 5,-11 12,-25 4,-9 8,-20 14,-33 0,-1 1,-1 1,-1 1,-1 2,-1 4,-2 0,0 0,1 0,1 1,0 1,1 0,1 -1,1 -1,2 -1,3 0,1 0,2 0,4 2,5 5,13 10,26 5,13 8,22 10,26 2,3 3,5 4,5l4 0c1,0 1,0 1,1l0 1zm-25 -27c-1,-4 -3,-8 -4,-12 -2,-5 -4,-10 -5,-14 0,-1 0,-1 -1,-1 0,0 0,0 0,1 -4,9 -7,16 -9,20 -2,4 -3,6 -3,6 0,1 0,1 1,1l21 0c0,0 0,-1 0,-1z"/>
  <path id="1" class="fil2 str0" d="M731 132c0,0 0,0 -1,0l-23 0c0,0 0,0 0,0l0 -1c0,-1 0,-1 0,-1l7 0c1,0 1,0 1,-1 0,-1 -2,-4 -4,-10 -2,-5 -3,-8 -3,-9 0,0 -1,-1 -1,-1l-24 0c0,0 -1,1 -1,1 0,1 -1,3 -2,6 -1,3 -2,5 -2,6 -1,3 -1,4 -1,5 0,2 0,3 1,3l7 0c1,0 1,0 1,1l0 1c0,0 0,0 -1,0l-20 0c0,0 0,0 0,0l0 -2c0,0 0,0 0,0l4 0c1,0 2,-2 3,-5 2,-2 5,-11 12,-25 4,-9 8,-20 14,-33 0,-1 1,-1 1,-1 1,-1 2,-1 4,-2 0,0 0,1 0,1 1,0 1,1 0,1 -1,1 -1,2 -1,3 0,1 0,2 0,4 2,5 5,13 10,26 5,13 8,22 10,26 2,3 3,5 4,5l4 0c1,0 1,0 1,1l0 1zm-25 -27c-1,-4 -3,-8 -4,-12 -2,-5 -4,-10 -5,-14 0,-1 0,-1 -1,-1 0,0 0,0 0,1 -4,9 -7,16 -9,20 -2,4 -3,6 -3,6 0,1 0,1 1,1l21 0c0,0 0,-1 0,-1z"/>
  <path class="fil1" d="M796 123c0,0 0,1 0,1 -3,2 -7,5 -12,7 -5,1 -11,2 -18,2 -5,0 -10,-1 -13,-2 -4,-1 -7,-3 -11,-6 -5,-5 -8,-13 -8,-23 0,-6 2,-11 5,-17 3,-5 6,-9 12,-12 6,-4 15,-6 25,-6 4,0 8,0 11,0 4,1 6,1 7,2 1,0 1,0 1,0 0,1 0,2 -1,4 0,2 0,4 0,5 0,0 0,0 -1,0 0,0 0,0 0,0 0,0 0,-1 -1,-1 0,-1 -1,-2 -4,-4 -3,-1 -9,-2 -16,-2 -8,0 -15,2 -21,8 -6,5 -9,13 -9,22 0,9 4,17 10,22 3,3 6,5 9,6 3,1 7,1 12,1 4,0 7,-1 11,-2 3,-2 6,-4 7,-6 1,-2 2,-3 2,-4 0,-1 0,-1 0,-1 0,0 0,0 1,1 0,1 0,2 1,3 0,0 0,1 1,2z"/>
  <path id="1" class="fil2 str0" d="M796 123c0,0 0,1 0,1 -3,2 -7,5 -12,7 -5,1 -11,2 -18,2 -5,0 -10,-1 -13,-2 -4,-1 -7,-3 -11,-6 -5,-5 -8,-13 -8,-23 0,-6 2,-11 5,-17 3,-5 6,-9 12,-12 6,-4 15,-6 25,-6 4,0 8,0 11,0 4,1 6,1 7,2 1,0 1,0 1,0 0,1 0,2 -1,4 0,2 0,4 0,5 0,0 0,0 -1,0 0,0 0,0 0,0 0,0 0,-1 -1,-1 0,-1 -1,-2 -4,-4 -3,-1 -9,-2 -16,-2 -8,0 -15,2 -21,8 -6,5 -9,13 -9,22 0,9 4,17 10,22 3,3 6,5 9,6 3,1 7,1 12,1 4,0 7,-1 11,-2 3,-2 6,-4 7,-6 1,-2 2,-3 2,-4 0,-1 0,-1 0,-1 0,0 0,0 1,1 0,1 0,2 1,3 0,0 0,1 1,2z"/>
  <path class="fil1" d="M998 70c0,0 0,1 0,1l-8 0c0,0 -1,0 -1,1 0,0 0,4 0,13 0,8 0,13 0,13 0,1 0,7 0,17 0,11 0,16 0,17 0,1 -1,2 -1,2 0,0 -1,0 -1,0 -3,-4 -13,-15 -29,-33 -5,-7 -12,-14 -19,-23 -1,0 -1,0 -1,1 0,0 -1,6 -1,17 0,11 -1,18 -1,21 0,9 1,13 3,13l7 0c0,0 1,0 1,0l0 2c0,0 0,0 -1,0l-20 0c-1,0 -1,0 -1,0l0 -2c0,0 0,0 1,0l6 0c1,0 1,0 1,-1l0 -7c0,-2 0,-9 1,-22 0,-14 0,-20 0,-21 0,-6 -2,-8 -6,-8l-4 0c0,0 0,-1 0,-1l0 -1c0,-1 0,-1 0,-1l17 0c0,0 1,0 1,1 0,0 3,4 9,10 5,7 8,11 9,12 8,9 16,19 25,29 0,0 0,0 0,0 1,0 1,-1 1,-2 0,0 0,-6 0,-16 0,-11 0,-17 0,-17 -1,-10 -2,-14 -4,-14l-7 0c-1,0 -1,-1 -1,-1l0 -1c0,-1 0,-1 1,-1l23 0c0,0 0,0 0,0l0 2z"/>
  <path id="1" class="fil2 str0" d="M998 70c0,0 0,1 0,1l-8 0c0,0 -1,0 -1,1 0,0 0,4 0,13 0,8 0,13 0,13 0,1 0,7 0,17 0,11 0,16 0,17 0,1 -1,2 -1,2 0,0 -1,0 -1,0 -3,-4 -13,-15 -29,-33 -5,-7 -12,-14 -19,-23 -1,0 -1,0 -1,1 0,0 -1,6 -1,17 0,11 -1,18 -1,21 0,9 1,13 3,13l7 0c0,0 1,0 1,0l0 2c0,0 0,0 -1,0l-20 0c-1,0 -1,0 -1,0l0 -2c0,0 0,0 1,0l6 0c1,0 1,0 1,-1l0 -7c0,-2 0,-9 1,-22 0,-14 0,-20 0,-21 0,-6 -2,-8 -6,-8l-4 0c0,0 0,-1 0,-1l0 -1c0,-1 0,-1 0,-1l17 0c0,0 1,0 1,1 0,0 3,4 9,10 5,7 8,11 9,12 8,9 16,19 25,29 0,0 0,0 0,0 1,0 1,-1 1,-2 0,0 0,-6 0,-16 0,-11 0,-17 0,-17 -1,-10 -2,-14 -4,-14l-7 0c-1,0 -1,-1 -1,-1l0 -1c0,-1 0,-1 1,-1l23 0c0,0 0,0 0,0l0 2z"/>
  <path class="fil1 str0" d="M1107 117c0,1 0,7 -2,10 0,1 -1,2 -2,4 0,1 -1,1 -1,1l-56 0c-1,0 -1,0 -1,0l0 -3c0,0 0,0 1,0l10 0c1,0 1,-1 1,-2 0,0 0,-3 0,-8 0,-5 0,-17 0,-35 0,-17 0,-27 0,-28 0,-9 -1,-14 -3,-14l-7 0c-1,0 -1,-1 -1,-1l0 -2c0,-1 0,-1 1,-1l36 0c1,0 1,0 1,1l0 2c0,0 0,1 0,1l-14 0c-1,0 -1,0 -1,1 0,0 -1,12 -1,33 0,21 0,33 0,36 0,10 1,16 3,16 15,0 15,-1 17,-1 11,1 12,-3 16,-10 1,-1 2,-1 2,-1 1,0 1,1 1,1z"/>
  <path class="fil1" d="M1142 132c0,0 0,0 0,0l-23 0c0,0 -1,0 -1,0 0,0 0,0 0,0l0 -2c0,0 0,0 0,0 1,0 1,0 1,0l6 0c1,0 1,-1 1,-1l0 -49c0,-6 -1,-9 -2,-9l-6 0c0,0 -1,0 -1,-1l0 -1c0,-1 1,-1 1,-1l23 0c0,0 0,0 0,1l0 1c0,1 0,1 0,1l-7 0c0,0 -1,0 -1,1 0,28 0,43 0,44 0,5 0,7 0,8 1,4 1,6 2,6l7 0c0,0 0,0 0,0l0 2z"/>
  <path id="1" class="fil2 str0" d="M1142 132c0,0 0,0 0,0l-23 0c0,0 -1,0 -1,0 0,0 0,0 0,0l0 -2c0,0 0,0 0,0 1,0 1,0 1,0l6 0c1,0 1,-1 1,-1l0 -49c0,-6 -1,-9 -2,-9l-6 0c0,0 -1,0 -1,-1l0 -1c0,-1 1,-1 1,-1l23 0c0,0 0,0 0,1l0 1c0,1 0,1 0,1l-7 0c0,0 -1,0 -1,1 0,28 0,43 0,44 0,5 0,7 0,8 1,4 1,6 2,6l7 0c0,0 0,0 0,0l0 2z"/>
  <path class="fil1 str0" d="M1197 69c0,0 0,0 -1,3 0,1 -1,2 -1,4 0,0 0,1 -1,1 0,0 0,0 0,-1 0,0 -1,-1 -2,-2 -1,-1 -3,-1 -5,-2 -1,0 -4,0 -12,0 -7,-1 -3,-1 -3,-1 -1,0 -1,0 -1,1 0,1 -1,9 -1,23 0,1 1,1 1,1l18 0c1,0 1,0 1,0 0,-2 1,-4 1,-6 0,-1 0,-1 1,-1l0 0c1,0 1,0 1,1 0,0 0,1 0,4 0,2 0,4 0,4 0,1 0,3 0,5 0,3 0,5 0,5 0,1 -1,1 -1,1l-1 0c0,0 0,0 0,0 0,0 -1,-2 -1,-4 0,-3 0,-4 0,-4 0,-1 0,-1 -1,-1 -2,0 -4,0 -18,0 0,0 0,0 -1,0 0,0 0,6 0,17 0,9 1,13 3,13l10 0c0,0 0,0 0,0l0 2c0,0 0,0 0,0l-27 0c0,0 0,0 0,0l0 -1c0,-1 0,-1 0,-1l6 0c1,0 1,0 1,-1 0,-1 0,-11 0,-31l0 -17c0,-7 0,-10 -1,-10l-7 0c0,0 0,0 0,-1l0 -1c0,-1 0,-1 0,-1l16 0c1,0 5,0 14,0 3,0 11,0 11,0 1,0 1,0 1,1z"/>
  <path class="fil1 str0" d="M1250 121c-1,2 -1,9 -2,11 0,0 -1,0 -1,0l-39 0c0,0 0,0 0,0l0 -2c0,0 0,0 0,0l8 0c1,0 1,0 1,-1 0,0 0,-5 0,-15 0,-9 0,-14 0,-14 0,-1 0,-4 0,-10 0,-6 0,-9 0,-10 0,-6 -1,-9 -2,-9l-7 0c0,0 0,-1 0,-1l0 -1c0,-1 0,-1 1,-1l35 0c1,0 2,0 3,0 1,0 1,0 1,0 1,0 1,0 1,0 -1,2 -1,6 -2,9 0,0 -1,1 -1,1 0,0 0,0 -1,-1 0,-8 -14,-6 -20,-6 0,0 0,0 0,1 -1,0 -1,8 -1,23 0,1 1,1 1,1l17 0c1,0 1,0 1,-1 0,0 1,0 1,-2 0,-1 0,-1 0,-1 0,0 0,-1 1,-1l0 0c1,0 1,0 1,1 0,0 0,0 0,3 0,2 0,3 0,3 0,1 0,2 0,4 0,3 0,4 0,4 0,1 0,1 -1,1l-1 0c0,0 0,0 0,-1 0,-2 0,-2 -1,-5 0,-1 0,-1 -1,-1 0,0 -7,0 -15,0 -8,0 -2,0 -2,0 0,0 -1,0 -1,0l0 18c0,8 1,12 3,12 16,0 20,-2 21,-8 0,-1 2,-1 2,-2 0,0 0,1 0,1z"/>
  <path class="fil1" d="M593 99c0,10 -3,18 -8,23 -2,2 -3,4 -4,5 -3,1 -6,3 -10,4 -3,1 -8,2 -13,2 -8,0 -14,-1 -18,-3 -4,-1 -6,-3 -8,-5 -3,-3 -5,-6 -6,-9 -1,-4 -2,-9 -2,-15 0,-4 1,-8 2,-12 2,-5 4,-9 7,-12 3,-3 7,-5 13,-7 4,-2 8,-2 13,-2 8,0 13,0 17,2 5,2 8,4 10,7 5,6 7,13 7,22zm-8 2c0,-4 -1,-8 -2,-11 -1,-4 -3,-8 -6,-11 -3,-2 -6,-4 -9,-6 -4,-1 -8,-2 -12,-2 -6,0 -9,1 -12,2 -4,3 -7,6 -8,9 -3,5 -4,10 -4,17 0,9 2,16 6,22 2,3 6,6 10,8 4,1 8,2 12,2 5,0 10,-1 14,-4 3,-2 6,-5 8,-9 2,-5 3,-10 3,-17z"/>
  <path id="1" class="fil2 str0" d="M593 99c0,10 -3,18 -8,23 -2,2 -3,4 -4,5 -3,1 -6,3 -10,4 -3,1 -8,2 -13,2 -8,0 -14,-1 -18,-3 -4,-1 -6,-3 -8,-5 -3,-3 -5,-6 -6,-9 -1,-4 -2,-9 -2,-15 0,-4 1,-8 2,-12 2,-5 4,-9 7,-12 3,-3 7,-5 13,-7 4,-2 8,-2 13,-2 8,0 13,0 17,2 5,2 8,4 10,7 5,6 7,13 7,22zm-8 2c0,-4 -1,-8 -2,-11 -1,-4 -3,-8 -6,-11 -3,-2 -6,-4 -9,-6 -4,-1 -8,-2 -12,-2 -6,0 -9,1 -12,2 -4,3 -7,6 -8,9 -3,5 -4,10 -4,17 0,9 2,16 6,22 2,3 6,6 10,8 4,1 8,2 12,2 5,0 10,-1 14,-4 3,-2 6,-5 8,-9 2,-5 3,-10 3,-17z"/>
  <path class="fil1" d="M669 132c0,0 0,0 0,0l-16 0c-1,0 -1,0 -1,0 -2,-1 -4,-4 -7,-8 -2,-2 -4,-5 -6,-7 -1,-3 -4,-7 -8,-13 0,-1 0,-1 0,-1 -2,0 -5,0 -8,-1 -1,0 -1,0 -1,1 0,0 0,2 0,6 0,3 0,7 0,11 0,6 1,10 2,10l9 0c0,0 0,0 0,0l0 2c0,0 0,0 0,0l-26 0c0,0 0,0 -1,0 0,0 0,0 0,0l0 -2c0,0 0,0 1,0 0,0 0,0 0,0l6 0c1,0 1,-1 1,-2l0 -25c0,-13 0,-19 0,-19 0,-9 -1,-13 -2,-13l-6 0c0,0 0,-1 0,-1l0 -2c0,0 0,0 0,0l15 0c0,0 2,0 5,0 3,0 5,0 6,0 2,0 4,0 6,0 4,1 8,2 11,5 3,3 4,7 4,11 0,5 -1,9 -4,13 -2,2 -5,3 -10,5 0,0 0,0 0,0 2,4 5,9 10,14 3,3 5,6 6,7 2,2 4,4 5,5 3,1 5,2 8,2 1,0 1,0 1,0l0 2zm-24 -45c0,-5 -1,-8 -4,-11 -4,-3 -10,-5 -17,-5 -1,0 -2,0 -2,1 0,9 0,14 0,17 0,0 0,3 0,10 0,1 0,1 0,1 1,0 3,0 7,0 1,0 3,0 4,0 2,0 3,-1 3,-1 6,-1 9,-5 9,-12z"/>
  <path id="1" class="fil2 str0" d="M669 132c0,0 0,0 0,0l-16 0c-1,0 -1,0 -1,0 -2,-1 -4,-4 -7,-8 -2,-2 -4,-5 -6,-7 -1,-3 -4,-7 -8,-13 0,-1 0,-1 0,-1 -2,0 -5,0 -8,-1 -1,0 -1,0 -1,1 0,0 0,2 0,6 0,3 0,7 0,11 0,6 1,10 2,10l9 0c0,0 0,0 0,0l0 2c0,0 0,0 0,0l-26 0c0,0 0,0 -1,0 0,0 0,0 0,0l0 -2c0,0 0,0 1,0 0,0 0,0 0,0l6 0c1,0 1,-1 1,-2l0 -25c0,-13 0,-19 0,-19 0,-9 -1,-13 -2,-13l-6 0c0,0 0,-1 0,-1l0 -2c0,0 0,0 0,0l15 0c0,0 2,0 5,0 3,0 5,0 6,0 2,0 4,0 6,0 4,1 8,2 11,5 3,3 4,7 4,11 0,5 -1,9 -4,13 -2,2 -5,3 -10,5 0,0 0,0 0,0 2,4 5,9 10,14 3,3 5,6 6,7 2,2 4,4 5,5 3,1 5,2 8,2 1,0 1,0 1,0l0 2zm-24 -45c0,-5 -1,-8 -4,-11 -4,-3 -10,-5 -17,-5 -1,0 -2,0 -2,1 0,9 0,14 0,17 0,0 0,3 0,10 0,1 0,1 0,1 1,0 3,0 7,0 1,0 3,0 4,0 2,0 3,-1 3,-1 6,-1 9,-5 9,-12z"/>
  <path class="fil1" d="M832 132c0,0 0,0 0,0l-23 0c0,0 0,0 -1,0 0,0 0,0 0,0l0 -2c0,0 0,0 1,0 0,0 0,0 0,0l6 0c1,0 1,-1 1,-1l0 -49c0,-6 -1,-9 -2,-9l-6 0c0,0 0,0 0,-1l0 -1c0,-1 0,-1 0,-1l23 0c0,0 1,0 1,1l0 1c0,1 -1,1 -1,1l-7 0c0,0 -1,0 -1,1 0,28 0,43 0,44 0,5 0,7 0,8 1,4 1,6 2,6l7 0c0,0 0,0 0,0l0 2z"/>
  <path id="1" class="fil2 str0" d="M832 132c0,0 0,0 0,0l-23 0c0,0 0,0 -1,0 0,0 0,0 0,0l0 -2c0,0 0,0 1,0 0,0 0,0 0,0l6 0c1,0 1,-1 1,-1l0 -49c0,-6 -1,-9 -2,-9l-6 0c0,0 0,0 0,-1l0 -1c0,-1 0,-1 0,-1l23 0c0,0 1,0 1,1l0 1c0,1 -1,1 -1,1l-7 0c0,0 -1,0 -1,1 0,28 0,43 0,44 0,5 0,7 0,8 1,4 1,6 2,6l7 0c0,0 0,0 0,0l0 2z"/>
  <path class="fil1" d="M914 99c0,10 -3,18 -8,23 -2,2 -4,4 -5,5 -2,1 -6,3 -10,4 -3,1 -7,2 -12,2 -8,0 -15,-1 -19,-3 -3,-1 -5,-3 -8,-5 -2,-3 -4,-6 -5,-9 -1,-4 -2,-9 -2,-15 0,-4 1,-8 2,-12 1,-5 4,-9 7,-12 3,-3 7,-5 13,-7 4,-2 8,-2 13,-2 7,0 13,0 17,2 4,2 8,4 10,7 4,6 7,13 7,22zm-9 2c0,-4 0,-8 -1,-11 -2,-4 -4,-8 -6,-11 -3,-2 -6,-4 -9,-6 -5,-1 -9,-2 -13,-2 -5,0 -9,1 -11,2 -4,3 -7,6 -9,9 -2,5 -3,10 -3,17 0,9 2,16 6,22 2,3 5,6 10,8 4,1 8,2 12,2 5,0 9,-1 13,-4 3,-2 6,-5 8,-9 2,-5 3,-10 3,-17z"/>
  <path id="1" class="fil2 str0" d="M914 99c0,10 -3,18 -8,23 -2,2 -4,4 -5,5 -2,1 -6,3 -10,4 -3,1 -7,2 -12,2 -8,0 -15,-1 -19,-3 -3,-1 -5,-3 -8,-5 -2,-3 -4,-6 -5,-9 -1,-4 -2,-9 -2,-15 0,-4 1,-8 2,-12 1,-5 4,-9 7,-12 3,-3 7,-5 13,-7 4,-2 8,-2 13,-2 7,0 13,0 17,2 4,2 8,4 10,7 4,6 7,13 7,22zm-9 2c0,-4 0,-8 -1,-11 -2,-4 -4,-8 -6,-11 -3,-2 -6,-4 -9,-6 -5,-1 -9,-2 -13,-2 -5,0 -9,1 -11,2 -4,3 -7,6 -9,9 -2,5 -3,10 -3,17 0,9 2,16 6,22 2,3 5,6 10,8 4,1 8,2 12,2 5,0 9,-1 13,-4 3,-2 6,-5 8,-9 2,-5 3,-10 3,-17z"/>
  <path class="fil1 str0" d="M892 47c-3,2 -18,12 -19,12l1 1c2,-1 17,-5 23,-4l-5 -9z"/>
 </g>
</svg>
