<?xml version="1.0" encoding="UTF-8"?>
<!DOCTYPE svg PUBLIC "-//W3C//DTD SVG 1.1//EN" "http://www.w3.org/Graphics/SVG/1.1/DTD/svg11.dtd">
<!-- Creator: CorelDRAW 2017 -->
<svg xmlns="http://www.w3.org/2000/svg" xml:space="preserve" width="1280px" height="1280px" version="1.1" style="shape-rendering:geometricPrecision; text-rendering:geometricPrecision; image-rendering:optimizeQuality; fill-rule:evenodd; clip-rule:evenodd"
viewBox="0 0 269.09 269.09"
 xmlns:xlink="http://www.w3.org/1999/xlink">
 <defs>
  <style type="text/css">
   <![CDATA[
    .fil0 {fill:none}
    .fil1 {fill:black}
   ]]>
  </style>
 </defs>
 <g id="Capa_x0020_1">
  <metadata id="CorelCorpID_0Corel-Layer"/>
  <rect class="fil0" width="269.09" height="269.09"/>
  <g>
   <path class="fil1" d="M3.65 134.56c0,71.48 54.06,129.93 122.45,134.47l0 -19.86c-57.77,-4.42 -103.31,-53.99 -103.31,-114.61 0,-60.54 45.54,-110.21 103.31,-114.69l0 -19.72c-68.39,4.54 -122.45,62.88 -122.45,134.41l0 0zm138.37 -134.56l0 19.84c58.16,3.93 104.24,53.8 104.24,114.72 0,60.97 -46.08,110.81 -104.24,114.71l0 19.82c68.85,-4 123.41,-62.64 123.41,-134.53 0,-71.82 -54.56,-130.54 -123.41,-134.56zm14.25 33.96c0,0 -41.07,16 -38.84,52.66 2.29,36.61 74.42,19.29 72.11,77.08 -2.31,57.76 -73.94,78.43 -73.94,78.43 0,0 51.97,-52.61 42.9,-84.09 -9.06,-31.54 -78.91,-31.3 -78.91,-86.42 0,-7.12 8.88,-34.48 30.37,-33.02 0,0 -16.72,16.66 -14.44,35.36 0,0 9.01,-37.93 31.95,-45.2 1.95,-0.54 12.38,-6.07 28.8,5.2z"/>
  </g>
 </g>
</svg>
