<?xml version="1.0" encoding="UTF-8"?>
<!DOCTYPE svg PUBLIC "-//W3C//DTD SVG 1.1//EN" "http://www.w3.org/Graphics/SVG/1.1/DTD/svg11.dtd">
<!-- Creator: CorelDRAW 2017 -->
<svg xmlns="http://www.w3.org/2000/svg" xml:space="preserve" width="1280px" height="144px" version="1.1" style="shape-rendering:geometricPrecision; text-rendering:geometricPrecision; image-rendering:optimizeQuality; fill-rule:evenodd; clip-rule:evenodd"
viewBox="0 0 2470.73 278.11"
 xmlns:xlink="http://www.w3.org/1999/xlink">
 <defs>
  <style type="text/css">
   <![CDATA[
    .fil0 {fill:white}
    .fil1 {fill:white;fill-rule:nonzero}
   ]]>
  </style>
 </defs>
 <g id="Capa_x0020_1">
  <metadata id="CorelCorpID_0Corel-Layer"/>
  <g>
   <path class="fil0" d="M0 139.07c0,73.87 55.87,134.28 126.55,138.98l0 -20.53c-59.71,-4.57 -106.78,-55.8 -106.78,-118.46 0,-62.56 47.07,-113.89 106.78,-118.53l0 -20.38c-70.68,4.7 -126.55,64.99 -126.55,138.92l0 0zm143 -139.07l0 20.51c60.11,4.05 107.73,55.59 107.73,118.56 0,63.01 -47.62,114.52 -107.73,118.55l0 20.49c71.16,-4.13 127.55,-64.74 127.55,-139.04 0,-74.22 -56.39,-134.92 -127.55,-139.07zm14.72 35.1c0,0 -42.43,16.54 -40.13,54.42 2.37,37.84 76.91,19.94 74.52,79.67 -2.38,59.69 -76.41,81.06 -76.41,81.06 0,0 53.71,-54.38 44.34,-86.92 -9.37,-32.59 -81.56,-32.34 -81.56,-89.31 0,-7.36 9.18,-35.63 31.39,-34.13 0,0 -17.28,17.23 -14.93,36.55 0,0 9.32,-39.2 33.02,-46.72 2.02,-0.55 12.8,-6.27 29.76,5.38z"/>
  </g>
  <path class="fil1" d="M542.57 44.93l4.08 61.12 -4.08 0c-5.48,-18.29 -13.26,-31.51 -23.4,-39.53 -10.15,-8.06 -22.28,-12.09 -36.5,-12.09 -11.86,0 -22.63,3.04 -32.23,9.1 -9.6,6.07 -17.16,15.71 -22.68,29.03 -5.48,13.26 -8.24,29.79 -8.24,49.53 0,16.29 2.58,30.42 7.78,42.37 5.21,11.96 13.04,21.1 23.45,27.48 10.46,6.39 22.37,9.56 35.73,9.56 11.63,0 21.91,-2.49 30.78,-7.47 8.92,-4.98 18.7,-14.9 29.34,-29.75l4.12 2.72c-9.01,15.98 -19.51,27.66 -31.51,35.09 -12,7.38 -26.26,11.09 -42.74,11.09 -29.74,0 -52.79,-11.05 -69.09,-33.19 -12.18,-16.48 -18.29,-35.86 -18.29,-58.13 0,-17.97 4.03,-34.5 12.04,-49.53 8.02,-15.08 19.06,-26.71 33.1,-35 14.08,-8.28 29.43,-12.4 46.09,-12.4 12.95,0 25.72,3.17 38.35,9.55 3.66,1.95 6.34,2.94 7.92,2.94 2.35,0 4.44,-0.86 6.2,-2.53 2.31,-2.4 3.94,-5.71 4.89,-9.96l4.89 0zm27.44 116.53c0,-9.19 1.63,-17.79 4.93,-25.85 3.26,-8.06 7.84,-15.07 13.72,-21.1 5.89,-5.97 12.9,-10.73 21.05,-14.17 8.15,-3.44 17.12,-5.16 26.85,-5.16 9.92,0 19.02,1.77 27.26,5.25 8.24,3.49 15.3,8.33 21.19,14.49 5.88,6.2 10.45,13.49 13.71,21.87 3.31,8.42 4.94,17.57 4.94,27.44 0,9.55 -1.68,18.51 -4.98,26.84 -3.31,8.38 -7.92,15.62 -13.81,21.74 -5.89,6.15 -12.9,11 -21.05,14.53 -8.15,3.53 -17.07,5.3 -26.71,5.3 -4.44,0 -9.2,-0.46 -14.22,-1.41 -5.07,-0.9 -10.05,-2.44 -15.03,-4.62 -4.94,-2.17 -9.69,-5.02 -14.26,-8.64 -4.58,-3.58 -8.61,-7.97 -12.09,-13.22 -3.49,-5.26 -6.29,-11.5 -8.38,-18.66 -2.08,-7.15 -3.12,-15.35 -3.12,-24.63zm25.81 1.86c0,1.77 0.04,4.53 0.18,8.29 0.13,3.75 0.58,7.96 1.35,12.63 0.73,4.61 1.95,9.41 3.58,14.3 1.63,4.94 3.99,9.42 6.97,13.45 3.04,3.98 6.89,7.33 11.59,9.92 4.71,2.62 10.46,3.93 17.3,3.93 6.79,0 12.59,-1.31 17.25,-3.93 4.71,-2.59 8.6,-5.94 11.63,-9.92 3.08,-4.03 5.44,-8.51 7.07,-13.45 1.63,-4.89 2.85,-9.64 3.57,-14.26 0.77,-4.62 1.23,-8.74 1.36,-12.49 0.14,-3.72 0.18,-6.43 0.18,-8.2 0,-3.03 -0.09,-6.65 -0.31,-10.91 -0.23,-4.26 -0.77,-8.65 -1.68,-13.22 -0.9,-4.53 -2.22,-9.05 -3.98,-13.54 -1.77,-4.43 -4.17,-8.46 -7.2,-11.99 -2.99,-3.54 -6.75,-6.43 -11.28,-8.65 -4.52,-2.22 -10,-3.31 -16.38,-3.31 -5.85,0 -10.92,0.95 -15.22,2.81 -4.3,1.86 -7.97,4.35 -11.04,7.56 -3.04,3.17 -5.53,6.84 -7.52,10.96 -1.95,4.12 -3.44,8.42 -4.57,12.99 -1.09,4.57 -1.86,9.15 -2.27,13.81 -0.4,4.66 -0.58,9.05 -0.58,13.22zm222.97 65.78l-48.3 -60.57c-1.23,0.09 -2.27,0.13 -3.08,0.18 -0.86,0.04 -1.68,0.09 -2.4,0.09 -0.77,0 -1.54,-0.05 -2.4,-0.09 -0.86,-0.05 -1.81,-0.09 -2.85,-0.18l0 35.4c0,5.03 0.67,8.92 1.99,11.68 1.31,2.72 2.94,4.76 4.84,6.02 1.9,1.27 3.94,2.04 6.11,2.27 2.18,0.22 4.12,0.31 5.8,0.31l0 4.89 -62.48 0 0 -4.89c4.48,0 8.15,-0.45 10.91,-1.31 2.81,-0.9 4.89,-2.31 6.38,-4.25 1.45,-1.95 2.4,-4.4 2.9,-7.38 0.5,-2.99 0.73,-6.61 0.73,-10.87l0 -72.85c0,-4.16 -0.23,-7.74 -0.68,-10.77 -0.41,-3.08 -1.36,-5.57 -2.81,-7.47 -1.49,-1.95 -3.58,-3.4 -6.38,-4.3 -2.77,-0.95 -6.48,-1.41 -11.05,-1.41l0 -4.89 56.73 0c2.85,0 5.93,0.09 9.33,0.27 3.44,0.19 6.92,0.59 10.5,1.27 3.58,0.64 7.15,1.68 10.77,3.04 3.63,1.35 7.11,3.26 10.37,5.61 3.53,2.58 6.48,5.89 8.79,9.96 2.35,4.03 3.53,8.69 3.53,13.9 0,4.07 -0.59,7.65 -1.77,10.73 -1.18,3.08 -2.71,5.79 -4.66,8.06 -1.9,2.31 -4.03,4.25 -6.39,5.84 -2.35,1.58 -4.7,2.9 -7.06,3.98 -2.4,1.04 -4.57,1.9 -6.65,2.49 -2.04,0.64 -3.67,1.14 -4.89,1.5l33.77 42.01c2.04,2.49 3.99,4.67 5.84,6.57 1.86,1.9 3.71,3.53 5.62,4.84 1.9,1.31 3.93,2.45 6.06,3.31 2.13,0.9 4.44,1.58 7.02,2.12l0 4.89 -34.14 0zm-59.03 -67.23c1.58,0.18 3.3,0.32 5.16,0.36 1.85,0.05 3.84,-0.04 5.97,-0.27 2.13,-0.22 4.35,-0.63 6.7,-1.27 2.36,-0.63 4.8,-1.54 7.38,-2.8 2.67,-1.32 4.94,-2.95 6.84,-4.85 1.9,-1.9 3.49,-3.98 4.71,-6.2 1.22,-2.26 2.17,-4.62 2.76,-7.06 0.63,-2.4 0.95,-4.76 0.95,-6.93 0,-3.89 -0.63,-7.52 -1.95,-10.91 -1.26,-3.35 -3.07,-6.25 -5.47,-8.69 -2.4,-2.4 -5.3,-4.31 -8.7,-5.71 -3.39,-1.36 -7.2,-2.04 -11.36,-2.04 -2.45,0 -4.89,0.14 -7.29,0.46 -2.4,0.31 -4.3,0.54 -5.7,0.72l0 55.19zm151.58 -63.16c2.03,0 4.88,0.05 8.6,0.18 3.71,0.14 7.74,0.55 12.09,1.23 4.3,0.63 8.73,1.76 13.22,3.3 4.52,1.54 8.6,3.71 12.27,6.52 3.66,2.76 6.65,6.34 8.96,10.64 2.31,4.35 3.44,9.64 3.44,15.94 0,6.38 -1.36,11.81 -4.03,16.39 -2.72,4.52 -6.11,8.24 -10.28,11.13 -4.16,2.86 -8.73,4.98 -13.76,6.3 -5.07,1.31 -9.92,1.99 -14.58,1.99 -5.57,0 -10.5,-0.32 -14.85,-1 -4.34,-0.68 -8.6,-1.49 -12.86,-2.44l0 34.54c0,3.26 0.18,6.21 0.59,8.88 0.41,2.62 1.36,4.89 2.9,6.65 1.54,1.81 3.85,3.22 6.88,4.12 3.03,0.95 7.15,1.32 12.45,1.13l0 4.89 -68.18 0 0 -4.89c2.99,0 5.88,-0.09 8.6,-0.31 2.76,-0.23 5.16,-1 7.24,-2.27 2.09,-1.26 3.72,-3.3 4.89,-6.06 1.23,-2.81 1.82,-6.75 1.82,-11.87l0 -77.51c0,-4.02 -0.23,-7.51 -0.68,-10.36 -0.41,-2.86 -1.41,-5.21 -2.9,-7.02 -1.5,-1.81 -3.76,-3.12 -6.79,-3.94 -2.99,-0.86 -7.07,-1.27 -12.18,-1.27l0 -4.89 57.14 0zm-11.78 62.3c0.73,0.36 1.77,0.77 3.13,1.18 1.36,0.45 2.89,0.86 4.57,1.22 1.68,0.32 3.44,0.63 5.34,0.91 1.9,0.27 3.76,0.4 5.53,0.4 3.8,0 7.33,-0.72 10.55,-2.17 3.21,-1.49 5.97,-3.53 8.19,-6.11 2.26,-2.63 4.03,-5.75 5.34,-9.37 1.27,-3.63 1.9,-7.61 1.9,-11.96 0,-5.56 -0.86,-10.23 -2.58,-13.99 -1.72,-3.75 -3.94,-6.74 -6.65,-8.96 -2.67,-2.22 -5.66,-3.8 -8.92,-4.71 -3.26,-0.95 -6.43,-1.4 -9.42,-1.4 -3.26,0 -6.47,0.13 -9.6,0.45 -3.17,0.32 -5.61,0.77 -7.38,1.4l0 53.11zm87.2 0.45c0,-9.19 1.63,-17.79 4.94,-25.85 3.26,-8.06 7.83,-15.07 13.72,-21.1 5.88,-5.97 12.9,-10.73 21.05,-14.17 8.15,-3.44 17.11,-5.16 26.85,-5.16 9.91,0 19.01,1.77 27.25,5.25 8.24,3.49 15.3,8.33 21.19,14.49 5.89,6.2 10.46,13.49 13.72,21.87 3.3,8.42 4.93,17.57 4.93,27.44 0,9.55 -1.67,18.51 -4.98,26.84 -3.3,8.38 -7.92,15.62 -13.81,21.74 -5.88,6.15 -12.9,11 -21.05,14.53 -8.15,3.53 -17.07,5.3 -26.71,5.3 -4.44,0 -9.19,-0.46 -14.22,-1.41 -5.07,-0.9 -10.05,-2.44 -15.03,-4.62 -4.93,-2.17 -9.69,-5.02 -14.26,-8.64 -4.57,-3.58 -8.6,-7.97 -12.09,-13.22 -3.48,-5.26 -6.29,-11.5 -8.37,-18.66 -2.09,-7.15 -3.13,-15.35 -3.13,-24.63zm25.81 1.86c0,1.77 0.04,4.53 0.18,8.29 0.14,3.75 0.59,7.96 1.36,12.63 0.72,4.61 1.95,9.41 3.58,14.3 1.63,4.94 3.98,9.42 6.97,13.45 3.03,3.98 6.88,7.33 11.59,9.92 4.71,2.62 10.46,3.93 17.29,3.93 6.79,0 12.59,-1.31 17.25,-3.93 4.71,-2.59 8.6,-5.94 11.64,-9.92 3.08,-4.03 5.43,-8.51 7.06,-13.45 1.63,-4.89 2.85,-9.64 3.58,-14.26 0.77,-4.62 1.22,-8.74 1.36,-12.49 0.13,-3.72 0.18,-6.43 0.18,-8.2 0,-3.03 -0.09,-6.65 -0.32,-10.91 -0.23,-4.26 -0.77,-8.65 -1.68,-13.22 -0.9,-4.53 -2.21,-9.05 -3.98,-13.54 -1.77,-4.43 -4.16,-8.46 -7.2,-11.99 -2.99,-3.54 -6.74,-6.43 -11.27,-8.65 -4.53,-2.22 -10.01,-3.31 -16.39,-3.31 -5.84,0 -10.91,0.95 -15.21,2.81 -4.3,1.86 -7.97,4.35 -11.05,7.56 -3.03,3.17 -5.52,6.84 -7.52,10.96 -1.94,4.12 -3.44,8.42 -4.57,12.99 -1.09,4.57 -1.85,9.15 -2.26,13.81 -0.41,4.66 -0.59,9.05 -0.59,13.22zm222.98 65.78l-48.31 -60.57c-1.22,0.09 -2.26,0.13 -3.08,0.18 -0.86,0.04 -1.67,0.09 -2.4,0.09 -0.77,0 -1.54,-0.05 -2.4,-0.09 -0.86,-0.05 -1.81,-0.09 -2.85,-0.18l0 35.4c0,5.03 0.68,8.92 1.99,11.68 1.31,2.72 2.94,4.76 4.85,6.02 1.9,1.27 3.93,2.04 6.11,2.27 2.17,0.22 4.12,0.31 5.79,0.31l0 4.89 -62.48 0 0 -4.89c4.49,0 8.15,-0.45 10.91,-1.31 2.81,-0.9 4.89,-2.31 6.39,-4.25 1.45,-1.95 2.4,-4.4 2.9,-7.38 0.49,-2.99 0.72,-6.61 0.72,-10.87l0 -72.85c0,-4.16 -0.23,-7.74 -0.68,-10.77 -0.41,-3.08 -1.36,-5.57 -2.81,-7.47 -1.49,-1.95 -3.57,-3.4 -6.38,-4.3 -2.76,-0.95 -6.47,-1.41 -11.05,-1.41l0 -4.89 56.73 0c2.86,0 5.93,0.09 9.33,0.27 3.44,0.19 6.93,0.59 10.5,1.27 3.58,0.64 7.16,1.68 10.78,3.04 3.62,1.35 7.11,3.26 10.37,5.61 3.53,2.58 6.47,5.89 8.78,9.96 2.35,4.03 3.53,8.69 3.53,13.9 0,4.07 -0.59,7.65 -1.76,10.73 -1.18,3.08 -2.72,5.79 -4.67,8.06 -1.9,2.31 -4.03,4.25 -6.38,5.84 -2.36,1.58 -4.71,2.9 -7.06,3.98 -2.4,1.04 -4.58,1.9 -6.66,2.49 -2.04,0.64 -3.67,1.14 -4.89,1.5l33.78 42.01c2.03,2.49 3.98,4.67 5.84,6.57 1.85,1.9 3.71,3.53 5.61,4.84 1.9,1.31 3.94,2.45 6.07,3.31 2.12,0.9 4.43,1.58 7.01,2.12l0 4.89 -34.13 0zm-59.04 -67.23c1.58,0.18 3.3,0.32 5.16,0.36 1.86,0.05 3.85,-0.04 5.98,-0.27 2.12,-0.22 4.34,-0.63 6.7,-1.27 2.35,-0.63 4.8,-1.54 7.38,-2.8 2.67,-1.32 4.93,-2.95 6.83,-4.85 1.91,-1.9 3.49,-3.98 4.71,-6.2 1.22,-2.26 2.18,-4.62 2.76,-7.06 0.64,-2.4 0.95,-4.76 0.95,-6.93 0,-3.89 -0.63,-7.52 -1.94,-10.91 -1.27,-3.35 -3.08,-6.25 -5.48,-8.69 -2.4,-2.4 -5.3,-4.31 -8.69,-5.71 -3.4,-1.36 -7.2,-2.04 -11.37,-2.04 -2.44,0 -4.89,0.14 -7.29,0.46 -2.4,0.31 -4.3,0.54 -5.7,0.72l0 55.19zm94.44 67.23l0 -4.89c1.77,-0.09 3.49,-0.27 5.16,-0.58 1.68,-0.32 3.4,-1.23 5.12,-2.72 1.77,-1.49 3.62,-3.8 5.57,-6.93 1.95,-3.08 4.07,-7.47 6.47,-13.13l43.33 -105.67 2.58 0 48.13 112.19c1.76,4.08 3.48,7.25 5.16,9.46 1.67,2.27 3.4,3.94 5.12,5.08 1.72,1.08 3.48,1.76 5.29,1.99 1.81,0.22 3.76,0.31 5.8,0.31l0 4.89 -54.6 0 0 -4.89c0.86,0 2.03,-0.04 3.39,-0.18 1.41,-0.13 2.76,-0.45 4.08,-0.86 1.31,-0.45 2.49,-1.13 3.44,-2.08 0.95,-0.91 1.45,-2.17 1.45,-3.76 0,-1.54 -0.32,-3.21 -1,-5.07 -0.63,-1.85 -1.54,-4.03 -2.63,-6.56l-7.28 -17.07 -46.77 0 -6.89 16.98c-0.76,1.94 -1.35,3.66 -1.72,5.16 -0.31,1.45 -0.49,2.9 -0.49,4.3 0,1.76 0.45,3.26 1.4,4.44 0.91,1.17 2.08,2.12 3.4,2.76 1.35,0.68 2.67,1.17 4.03,1.49 1.35,0.32 2.39,0.45 3.21,0.45l0 4.89 -40.75 0zm40.98 -48.35l40.2 0 -20.74 -48.31 -19.46 48.31zm232.48 -39.66l-4.89 0c-0.63,-1.68 -1.27,-3.44 -1.9,-5.3 -0.68,-1.85 -1.49,-3.76 -2.49,-5.7 -0.95,-1.95 -2.13,-3.9 -3.49,-5.84 -1.35,-1.95 -2.98,-3.9 -4.84,-5.84 -2.4,-2.36 -5.03,-4.48 -7.88,-6.39 -2.9,-1.9 -5.88,-3.53 -9.01,-4.84 -3.17,-1.36 -6.34,-2.36 -9.64,-3.08 -3.26,-0.68 -6.48,-1.04 -9.64,-1.04 -6.66,0 -12.73,1.4 -18.25,4.16 -5.52,2.81 -10.28,6.84 -14.26,12.05 -3.99,5.2 -7.06,11.54 -9.28,19.01 -2.22,7.43 -3.31,15.8 -3.31,25.09 0,8.42 0.77,15.75 2.31,22 1.54,6.25 3.58,11.59 6.11,16.07 2.54,4.44 5.44,8.15 8.7,11.09 3.26,2.9 6.65,5.21 10.18,6.89 3.53,1.67 7.07,2.85 10.55,3.53 3.49,0.68 6.75,0.99 9.74,0.99 5.16,0 10.45,-0.9 15.93,-2.67 5.48,-1.76 10.78,-4.89 15.89,-9.42 2.13,-1.85 3.99,-3.62 5.53,-5.34 1.54,-1.72 2.94,-3.48 4.16,-5.25 1.22,-1.77 2.36,-3.62 3.4,-5.57 0.99,-1.95 2.13,-4.03 3.35,-6.25l4.66 2.67c-0.72,1.41 -1.67,3.36 -2.9,5.94 -1.26,2.53 -2.89,5.34 -4.98,8.37 -2.08,3.03 -4.61,6.11 -7.56,9.19 -2.94,3.08 -6.47,5.89 -10.59,8.42 -4.12,2.58 -8.88,4.62 -14.26,6.21 -5.39,1.58 -11.5,2.4 -18.29,2.4 -8.83,0 -17.34,-1.63 -25.54,-4.89 -8.15,-3.31 -15.35,-7.88 -21.6,-13.72 -6.2,-5.89 -11.22,-12.95 -14.98,-21.15 -3.76,-8.24 -5.61,-17.25 -5.61,-27.07 0,-9.96 1.81,-19.29 5.43,-27.89 3.62,-8.6 8.51,-16.07 14.67,-22.41 6.11,-6.29 13.31,-11.27 21.59,-14.9 8.24,-3.62 17.03,-5.43 26.31,-5.43 6.79,0 12.45,0.73 16.89,2.17 4.48,1.5 8.19,2.86 11.18,4.22 2.13,0.86 3.85,1.58 5.2,2.08 1.32,0.54 2.36,0.95 3.17,1.27 0.77,0.31 1.41,0.54 1.86,0.58 0.45,0.09 0.86,0.14 1.31,0.14 0.37,0 0.91,-0.09 1.68,-0.23 0.72,-0.18 1.49,-0.63 2.26,-1.26 0.73,-0.68 1.45,-1.72 2.08,-3.13 0.68,-1.4 1.18,-3.35 1.54,-5.84l4.62 0 4.89 45.91zm76.24 88.01l-60.3 0 0 -4.89c4.16,0 7.47,-0.45 9.96,-1.4 2.49,-0.9 4.39,-2.31 5.66,-4.16 1.27,-1.86 2.13,-4.12 2.53,-6.89 0.41,-2.71 0.59,-5.84 0.59,-9.37l0 -76.56c0,-2.85 -0.09,-5.57 -0.27,-8.19 -0.18,-2.67 -0.86,-5.03 -2.04,-7.11 -1.22,-2.04 -3.08,-3.71 -5.61,-5.03 -2.49,-1.26 -6.11,-1.9 -10.82,-1.9l0 -4.89 60.3 0 0 4.89c-4.7,0 -8.33,0.64 -10.82,1.9 -2.53,1.32 -4.39,2.99 -5.61,5.03 -1.18,2.08 -1.86,4.44 -2.04,7.11 -0.18,2.62 -0.27,5.34 -0.27,8.19l0 76.56c0,3.53 0.18,6.66 0.59,9.37 0.41,2.77 1.27,5.03 2.53,6.89 1.27,1.85 3.17,3.26 5.66,4.16 2.49,0.95 5.8,1.4 9.96,1.4l0 4.89zm15.04 -67.64c0,-9.19 1.63,-17.79 4.93,-25.85 3.26,-8.06 7.83,-15.07 13.72,-21.1 5.88,-5.97 12.9,-10.73 21.05,-14.17 8.15,-3.44 17.12,-5.16 26.85,-5.16 9.91,0 19.01,1.77 27.25,5.25 8.24,3.49 15.31,8.33 21.19,14.49 5.89,6.2 10.46,13.49 13.72,21.87 3.31,8.42 4.94,17.57 4.94,27.44 0,9.55 -1.68,18.51 -4.98,26.84 -3.31,8.38 -7.93,15.62 -13.81,21.74 -5.89,6.15 -12.91,11 -21.06,14.53 -8.14,3.53 -17.06,5.3 -26.71,5.3 -4.43,0 -9.19,-0.46 -14.21,-1.41 -5.07,-0.9 -10.05,-2.44 -15.03,-4.62 -4.94,-2.17 -9.69,-5.02 -14.27,-8.64 -4.57,-3.58 -8.6,-7.97 -12.08,-13.22 -3.49,-5.26 -6.3,-11.5 -8.38,-18.66 -2.08,-7.15 -3.12,-15.35 -3.12,-24.63zm25.8 1.86c0,1.77 0.05,4.53 0.18,8.29 0.14,3.75 0.59,7.96 1.36,12.63 0.73,4.61 1.95,9.41 3.58,14.3 1.63,4.94 3.98,9.42 6.97,13.45 3.03,3.98 6.88,7.33 11.59,9.92 4.71,2.62 10.46,3.93 17.3,3.93 6.79,0 12.58,-1.31 17.25,-3.93 4.7,-2.59 8.6,-5.94 11.63,-9.92 3.08,-4.03 5.43,-8.51 7.06,-13.45 1.63,-4.89 2.86,-9.64 3.58,-14.26 0.77,-4.62 1.22,-8.74 1.36,-12.49 0.13,-3.72 0.18,-6.43 0.18,-8.2 0,-3.03 -0.09,-6.65 -0.32,-10.91 -0.22,-4.26 -0.77,-8.65 -1.67,-13.22 -0.91,-4.53 -2.22,-9.05 -3.99,-13.54 -1.76,-4.43 -4.16,-8.46 -7.2,-11.99 -2.98,-3.54 -6.74,-6.43 -11.27,-8.65 -4.53,-2.22 -10,-3.31 -16.39,-3.31 -5.84,0 -10.91,0.95 -15.21,2.81 -4.3,1.86 -7.97,4.35 -11.05,7.56 -3.03,3.17 -5.52,6.84 -7.51,10.96 -1.95,4.12 -3.44,8.42 -4.58,12.99 -1.08,4.57 -1.85,9.15 -2.26,13.81 -0.41,4.66 -0.59,9.05 -0.59,13.22zm155.75 -64.61l88.33 94.31 0 -65.2c0,-4.25 -0.27,-7.87 -0.86,-10.91 -0.59,-3.08 -1.63,-5.57 -3.13,-7.56 -1.54,-1.99 -3.66,-3.44 -6.47,-4.34 -2.81,-0.95 -6.38,-1.41 -10.73,-1.41l0 -4.89 48.9 0 0 4.89c-2.86,0 -5.44,0.18 -7.84,0.55 -2.4,0.36 -4.43,1.17 -6.11,2.44 -1.72,1.27 -3.03,3.12 -3.94,5.57 -0.95,2.4 -1.4,5.66 -1.4,9.69l0 107.25 -4.71 0 -94.44 -102.54 0 73.89c0,4.12 0.22,7.69 0.72,10.68 0.5,2.99 1.5,5.48 2.99,7.38 1.54,1.95 3.71,3.4 6.61,4.3 2.9,0.95 6.7,1.4 11.41,1.4l0 4.89 -49.98 0 0 -4.89c5.07,0 8.92,-0.58 11.59,-1.76 2.67,-1.22 4.61,-2.9 5.84,-5.03 1.26,-2.17 1.94,-4.8 2.12,-7.97 0.19,-3.12 0.28,-6.61 0.28,-10.5l0 -81.31c-2.9,-3.08 -5.44,-5.57 -7.52,-7.43 -2.13,-1.85 -4.07,-3.26 -5.88,-4.21 -1.82,-0.99 -3.63,-1.63 -5.44,-1.94 -1.81,-0.32 -3.85,-0.46 -6.16,-0.46l0 -4.89 35.82 0zm342.86 80.68l4.35 0.95 -15.48 48.76 -139.36 0 0 -4.89 6.75 0c7.6,0 13.03,-2.44 16.29,-7.38 1.86,-2.8 2.77,-9.32 2.77,-19.51l0 -116.54c0,-11.22 -1.23,-18.24 -3.72,-21.05 -3.44,-3.89 -8.55,-5.84 -15.34,-5.84l-6.75 0 0 -4.89 81.49 0 0 4.89c-9.55,-0.09 -16.25,0.77 -20.14,2.63 -3.85,1.81 -6.48,4.16 -7.88,6.92 -1.4,2.81 -2.13,9.51 -2.13,20.06l0 113.55c0,7.38 0.73,12.4 2.13,15.17 1.04,1.9 2.72,3.26 4.93,4.16 2.18,0.86 9.1,1.31 20.74,1.31l13.13 0c13.85,0 23.54,-0.99 29.11,-3.03 5.57,-2.04 10.69,-5.66 15.3,-10.82 4.58,-5.16 9.19,-13.31 13.81,-24.45zm75.48 49.71l-60.31 0 0 -4.89c4.16,0 7.47,-0.45 9.96,-1.4 2.49,-0.9 4.39,-2.31 5.66,-4.16 1.27,-1.86 2.13,-4.12 2.53,-6.89 0.41,-2.71 0.59,-5.84 0.59,-9.37l0 -76.56c0,-2.85 -0.09,-5.57 -0.27,-8.19 -0.18,-2.67 -0.86,-5.03 -2.04,-7.11 -1.22,-2.04 -3.07,-3.71 -5.61,-5.03 -2.49,-1.26 -6.11,-1.9 -10.82,-1.9l0 -4.89 60.31 0 0 4.89c-4.71,0 -8.34,0.64 -10.83,1.9 -2.53,1.32 -4.39,2.99 -5.61,5.03 -1.18,2.08 -1.86,4.44 -2.04,7.11 -0.18,2.62 -0.27,5.34 -0.27,8.19l0 76.56c0,3.53 0.18,6.66 0.59,9.37 0.41,2.77 1.27,5.03 2.54,6.89 1.26,1.85 3.16,3.26 5.66,4.16 2.49,0.95 5.79,1.4 9.96,1.4l0 4.89zm115.81 -99.15l-5.16 0c-0.37,-4.25 -0.95,-7.97 -1.86,-11 -0.86,-3.08 -2.22,-5.61 -4.07,-7.65 -1.86,-1.99 -4.35,-3.44 -7.43,-4.39 -3.08,-0.95 -6.97,-1.41 -11.77,-1.41l-33.55 0 0 51.07 20.65 0c3.53,0 6.52,-0.18 9.01,-0.54 2.49,-0.32 4.61,-1.18 6.33,-2.49 1.68,-1.31 3.04,-3.35 3.94,-6.02 0.91,-2.72 1.54,-6.38 1.9,-11.05l4.89 0 0 48.36 -4.89 0c-0.18,-3.81 -0.58,-7.02 -1.17,-9.65 -0.64,-2.67 -1.77,-4.8 -3.44,-6.43 -1.68,-1.63 -3.99,-2.8 -6.98,-3.53 -2.98,-0.68 -6.88,-1.04 -11.68,-1.04l-18.56 0 0 34.36c0,4.08 0.14,7.7 0.41,10.87 0.27,3.17 0.99,5.84 2.26,8.06 1.22,2.22 3.22,3.89 5.93,5.02 2.67,1.14 6.43,1.72 11.23,1.72l0 4.89 -63.56 0 0 -4.89c4.93,0 8.78,-0.49 11.59,-1.44 2.76,-1 4.89,-2.45 6.29,-4.44 1.4,-1.99 2.26,-4.44 2.58,-7.43 0.32,-2.94 0.45,-6.43 0.45,-10.5l0 -72.85c0,-3.53 -0.13,-6.79 -0.4,-9.73 -0.28,-2.94 -1.05,-5.48 -2.36,-7.61 -1.36,-2.13 -3.4,-3.76 -6.25,-4.89 -2.8,-1.13 -6.79,-1.72 -11.9,-1.72l0 -4.89 105.85 0 1.72 31.24zm112.32 -31.24l1.32 30.97 -4.89 0c-0.45,-6.07 -1.72,-10.73 -3.85,-13.94 -2.08,-3.26 -4.62,-5.66 -7.56,-7.16 -2.99,-1.54 -6.16,-2.4 -9.55,-2.67 -3.35,-0.27 -6.57,-0.41 -9.56,-0.41l-27.61 0 0 51.89 25.58 0c5.11,0 9.05,-0.59 11.86,-1.77 2.85,-1.22 4.89,-2.76 6.16,-4.71 1.26,-1.94 1.99,-4.16 2.17,-6.61 0.18,-2.49 0.22,-5.02 0.13,-7.56l4.89 0 0 47.81 -4.89 0c-0.09,-3.17 -0.31,-6.02 -0.68,-8.55 -0.31,-2.49 -1.22,-4.67 -2.67,-6.48 -1.45,-1.81 -3.62,-3.17 -6.56,-4.16 -2.9,-0.95 -6.84,-1.45 -11.86,-1.45l-24.13 0 0 43.55c0,2.67 0.04,4.94 0.18,6.84 0.13,1.9 0.68,3.44 1.58,4.62 0.95,1.22 2.4,2.08 4.39,2.58 1.99,0.54 4.76,0.81 8.38,0.81l10.86 0c4.4,0 8.43,-0.27 12.14,-0.86 3.71,-0.59 7.11,-1.81 10.23,-3.66 3.12,-1.91 6.02,-4.62 8.69,-8.15 2.63,-3.49 5.07,-8.24 7.38,-14.22l4.89 0 -7.83 33.68 -100.56 0 0 -4.89c4.26,0 7.52,-0.67 9.74,-2.03 2.26,-1.36 3.94,-3.08 4.98,-5.16 1.09,-2.09 1.67,-4.4 1.86,-6.89 0.18,-2.53 0.27,-4.93 0.27,-7.19l0 -78.69c0,-3.17 -0.14,-6.02 -0.46,-8.56 -0.31,-2.49 -1.04,-4.66 -2.21,-6.47 -1.14,-1.81 -2.86,-3.17 -5.08,-4.17 -2.26,-0.95 -5.29,-1.45 -9.1,-1.45l0 -4.89 101.37 0z"/>
 </g>
</svg>
