<?xml version="1.0" encoding="UTF-8"?>
<!DOCTYPE svg PUBLIC "-//W3C//DTD SVG 1.1//EN" "http://www.w3.org/Graphics/SVG/1.1/DTD/svg11.dtd">
<!-- Creator: CorelDRAW X8 -->
<svg xmlns="http://www.w3.org/2000/svg" xml:space="preserve" width="886px" height="886px" version="1.1" style="shape-rendering:geometricPrecision; text-rendering:geometricPrecision; image-rendering:optimizeQuality; fill-rule:evenodd; clip-rule:evenodd"
viewBox="0 0 393 393"
 xmlns:xlink="http://www.w3.org/1999/xlink">
 <defs>
  <style type="text/css">
   <![CDATA[
    .fil0 {fill:none}
    .fil1 {fill:#00BCD4;fill-rule:nonzero}
   ]]>
  </style>
 </defs>
 <g id="Capa_x0020_1">
  <metadata id="CorelCorpID_0Corel-Layer"/>
  <rect class="fil0" width="393" height="393"/>
  <path class="fil1" d="M196 8c24,0 46,10 62,25 15,16 25,38 25,62l0 16 -20 0 0 -16c0,-19 -8,-35 -20,-47 -12,-12 -28,-19 -47,-19 -18,0 -34,7 -46,19 -12,12 -20,28 -20,47l0 203c0,19 8,35 20,47 12,12 28,19 46,19 19,0 35,-7 47,-19 12,-12 20,-28 20,-47 0,-37 0,-75 0,-112 0,-12 -5,-22 -12,-29 -8,-8 -18,-12 -29,-12 -11,0 -21,4 -29,12 -7,7 -12,17 -12,29l0 76 -20 0 0 -76c0,-17 7,-33 18,-44 11,-11 26,-18 43,-18 17,0 32,7 43,18 11,11 18,27 18,44 0,37 0,75 0,112 0,24 -10,46 -25,62 -16,15 -38,25 -62,25 -23,0 -45,-10 -61,-25 -16,-16 -25,-38 -25,-62l0 -203c0,-24 9,-46 25,-62 16,-15 38,-25 61,-25z"/>
 </g>
</svg>
